SplineFontDB: 3.0
FontName: PatrickHand-Regular
FullName: Patrick Hand Regular
FamilyName: Patrick Hand Regular
Weight: Regular
Copyright: Copyright (c) 2010 by Patrick Wagesreiter. All rights reserved.
Version: 001.001
ItalicAngle: 0
UnderlinePosition: -73
UnderlineWidth: 71
Ascent: 740
Descent: 260
sfntRevision: 0x00010000
LayerCount: 2
Layer: 0 1 "Back"  1
Layer: 1 1 "Fore"  0
XUID: [1021 288 713564382 9480978]
FSType: 0
OS2Version: 2
OS2_WeightWidthSlopeOnly: 0
OS2_UseTypoMetrics: 1
CreationTime: 1285847470
ModificationTime: 1309528457
PfmFamily: 65
TTFWeight: 400
TTFWidth: 5
LineGap: 0
VLineGap: 0
Panose: 2 0 0 0 0 0 0 0 0 0
OS2TypoAscent: 890
OS2TypoAOffset: 0
OS2TypoDescent: -312
OS2TypoDOffset: 0
OS2TypoLinegap: 0
OS2WinAscent: 890
OS2WinAOffset: 0
OS2WinDescent: 312
OS2WinDOffset: 0
HheadAscent: 890
HheadAOffset: 0
HheadDescent: -312
HheadDOffset: 0
OS2SubXSize: 700
OS2SubYSize: 650
OS2SubXOff: 0
OS2SubYOff: 140
OS2SupXSize: 700
OS2SupYSize: 650
OS2SupXOff: 0
OS2SupYOff: 477
OS2StrikeYSize: 50
OS2StrikeYPos: 250
OS2Vendor: 'pyrs'
OS2CodePages: 00000001.00000000
OS2UnicodeRanges: 800000af.4000e04a.00000000.00000000
Lookup: 1 0 0 "'smcp' Lowercase to Small Capitals in Latin lookup 0"  {"'smcp' Lowercase to Small Capitals in Latin lookup 0 subtable"  } ['smcp' ('latn' <'dflt' > ) ]
Lookup: 1 0 0 "'c2sc' Capitals to Small Capitals in Latin lookup 1"  {"'c2sc' Capitals to Small Capitals in Latin lookup 1 subtable"  } ['c2sc' ('latn' <'dflt' > ) ]
Lookup: 4 0 1 "'liga' Standard Ligatures in Latin lookup 2"  {"'liga' Standard Ligatures in Latin lookup 2 subtable"  } ['liga' ('latn' <'dflt' > ) ]
Lookup: 1 0 0 "'onum' Oldstyle Figures in Latin lookup 3"  {"'onum' Oldstyle Figures in Latin lookup 3 subtable" ("oldstyle" ) } ['onum' ('latn' <'dflt' > ) ]
Lookup: 1 0 0 "'lnum' Lining Figures in Latin lookup 4"  {"'lnum' Lining Figures in Latin lookup 4 subtable"  } ['lnum' ('latn' <'dflt' > ) ]

StartChar: zero
Encoding: 48 48 1
Width: 448
VWidth: 1200
Flags: W
HStem: -1.2002 92.4004<183.013 280.092> 592.8 70.7998<185.199 276.682>
VStem: 31.2002 84<189.771 478.319> 332.4 82.7998<172.196 494.021>
LayerCount: 2
Fore
SplineSet
142.951952171 633.130100547 m 128,-1,1
 183.760785289 663.599609375 183.760785289 663.599609375 237.901009009 663.599609375 c 128,-1,2
 292.041232729 663.599609375 292.041232729 663.599609375 333.81035701 611.96943122 c 0,3,4
 415.200195312 511.364692102 415.200195312 511.364692102 415.200195312 322.702788643 c 128,-1,5
 415.200195312 134.040885184 415.200195312 134.040885184 337.764528414 45.6969202196 c 0,6,7
 296.65804855 -1.2001953125 296.65804855 -1.2001953125 238.799804688 -1.2001953125 c 0,8,9
 31.2001953125 -1.2001953125 31.2001953125 -1.2001953125 31.2001953125 315.599609375 c 0,10,11
 31.2001953125 449.600469503 31.2001953125 449.600469503 78.5233896262 551.700771035 c 0,12,0
 102.143119052 602.660591719 102.143119052 602.660591719 142.951952171 633.130100547 c 128,-1,1
315.080883142 188.361407788 m 0,13,14
 332.400390625 244.754888083 332.400390625 244.754888083 332.400390625 307.916173773 c 128,-1,15
 332.400390625 371.077459462 332.400390625 371.077459462 326.637454999 416.971212726 c 128,-1,16
 320.874519374 462.86496599 320.874519374 462.86496599 309.644145953 503.0536591 c 128,-1,17
 298.413772531 543.24235221 298.413772531 543.24235221 279.049655927 568.021078449 c 128,-1,18
 259.685539323 592.799804688 259.685539323 592.799804688 231.981716344 592.799804688 c 128,-1,19
 204.277893365 592.799804688 204.277893365 592.799804688 180.24633794 566.655421597 c 128,-1,20
 156.214782515 540.511038505 156.214782515 540.511038505 142.553741405 497.725392003 c 0,21,22
 115.200195312 412.05555584 115.200195312 412.05555584 115.200195312 319.287478818 c 128,-1,23
 115.200195312 226.519401796 115.200195312 226.519401796 149.4017131 158.859798554 c 128,-1,24
 183.603230888 91.2001953125 183.603230888 91.2001953125 229.200195312 91.2001953125 c 0,25,26
 254.303608766 91.2001953125 254.303608766 91.2001953125 265.133565327 100.447769397 c 128,-1,27
 275.963521888 109.695343482 275.963521888 109.695343482 281.908858107 114.373099746 c 128,-1,28
 287.854194327 119.050856009 287.854194327 119.050856009 293.559378829 131.274978743 c 128,-1,29
 299.264563331 143.499101478 299.264563331 143.499101478 302.307193799 148.503088386 c 128,-1,30
 305.349824266 153.507075295 305.349824266 153.507075295 309.691076789 169.227160671 c 128,-1,31
 314.032329311 184.947246047 314.032329311 184.947246047 315.080883142 188.361407788 c 0,13,14
EndSplineSet
Substitution2: "'onum' Oldstyle Figures in Latin lookup 3 subtable" zero.onum
Substitution2: "'smcp' Lowercase to Small Capitals in Latin lookup 0 subtable" zero.smcp
EndChar

StartChar: one
Encoding: 49 49 2
Width: 363
VWidth: 1200
Flags: W
HStem: 637.6 20G<263.262 298.054>
VStem: 235.2 80.3994<10.0582 525.461> 235.2 85.2002<382.484 528>
LayerCount: 2
Fore
SplineSet
94.7998046875 376.799804688 m 1,0,1
 81.3612890236 368.400390625 81.3612890236 368.400390625 65.1307177539 368.400390625 c 128,-1,2
 48.9001464843 368.400390625 48.9001464843 368.400390625 37.6502685546 379.650268555 c 128,-1,3
 26.400390625 390.900146484 26.400390625 390.900146484 26.400390625 406.530620098 c 128,-1,4
 26.400390625 422.161093712 26.400390625 422.161093712 34.7998046875 435.599609375 c 1,5,-1
 223.200195312 637.200195312 l 1,6,7
 245.866620847 657.599609375 245.866620847 657.599609375 280.658183025 657.599609375 c 128,-1,8
 315.449745203 657.599609375 315.449745203 657.599609375 320.400390625 631.200195312 c 1,9,10
 313.200195312 497.275859347 313.200195312 497.275859347 313.200195312 356.07203399 c 128,-1,11
 313.200195312 214.868208632 313.200195312 214.868208632 315.599609375 46.7998046875 c 1,12,13
 312.916494835 28.015819148 312.916494835 28.015819148 297.209886624 12.8077142615 c 128,-1,14
 281.503278413 -2.400390625 281.503278413 -2.400390625 262.551769415 -2.400390625 c 128,-1,15
 243.600260416 -2.400390625 243.600260416 -2.400390625 235.200195312 22.7998046875 c 1,16,17
 231.587024634 164.700966649 231.587024634 164.700966649 231.587024634 291.001015462 c 128,-1,18
 231.587024634 417.301064309 231.587024634 417.301064309 235.200195314 528 c 1,19,20
 198.021792729 495.387552401 198.021792729 495.387552401 160.445989276 449.869126606 c 128,-1,21
 122.870185824 404.350700811 122.870185824 404.350700811 94.7998046875 376.799804688 c 1,0,1
EndSplineSet
Substitution2: "'sups' Superscript in Latin lookup 5 subtable" onesuperior
Substitution2: "'onum' Oldstyle Figures in Latin lookup 3 subtable" one.onum
Substitution2: "'smcp' Lowercase to Small Capitals in Latin lookup 0 subtable" one.smcp
EndChar

StartChar: two
Encoding: 50 50 3
Width: 468
VWidth: 1200
Flags: W
HStem: 0 84<133.478 420.959> 17.6834 73.5168<268.964 449.135> 590.4 72<158.83 288.418>
VStem: 325.2 76.7998<394.973 551.501>
LayerCount: 2
Fore
SplineSet
272.172987379 -0.116866976596 m 2,0,-1
 230.400390625 0 l 2,1,2
 228.03076608 0 228.03076608 0 218.858507458 -0.0129176169845 c 128,-1,3
 209.686248837 -0.025835233969 209.686248837 -0.025835233969 202.216980789 0.0288716002462 c 128,-1,4
 194.747712742 0.0835784344614 194.747712742 0.0835784344614 179.994572619 0.355450375116 c 128,-1,5
 165.241432496 0.627322315771 165.241432496 0.627322315771 155.912631266 1.37438348563 c 128,-1,6
 146.583830035 2.12144465548 146.583830035 2.12144465548 132.608920269 3.32719781842 c 128,-1,7
 118.634010502 4.53295098136 118.634010502 4.53295098136 109.42009904 6.62625049471 c 128,-1,8
 100.206187578 8.71955000806 100.206187578 8.71955000806 88.9839311183 11.5130684011 c 0,9,10
 72.3286138924 15.6590202586 72.3286138924 15.6590202586 58.3645022587 26.4842230575 c 128,-1,11
 44.400390625 37.3094258564 44.400390625 37.3094258564 44.400390625 54 c 0,12,13
 44.400390625 88.2343387098 44.400390625 88.2343387098 78.9603480138 139.453093137 c 128,-1,14
 113.520305403 190.671847564 113.520305403 190.671847564 129.794207248 205.856103404 c 128,-1,15
 146.068109093 221.040359244 146.068109093 221.040359244 174.495490018 246.389506156 c 128,-1,16
 202.922870944 271.738653068 202.922870944 271.738653068 217.954094943 285.911030954 c 0,17,18
 325.200195312 387.029360459 325.200195312 387.029360459 325.200195312 477.874411814 c 0,19,20
 325.200195312 527.235541537 325.200195312 527.235541537 298.163675663 558.817966081 c 128,-1,21
 271.127156015 590.400390625 271.127156015 590.400390625 224.830412658 590.400390625 c 128,-1,22
 178.533669301 590.400390625 178.533669301 590.400390625 124.799804688 543.599609375 c 0,23,24
 109.950347906 530.400390625 109.950347906 530.400390625 98.8654058501 530.400390625 c 0,25,26
 67.2001953125 530.400390625 67.2001953125 530.400390625 67.2001953125 569.379697446 c 0,27,28
 67.2001953125 593.831258746 67.2001953125 593.831258746 100.467486789 617.457814686 c 128,-1,29
 133.734778265 641.084370627 133.734778265 641.084370627 171.132448107 651.742380626 c 128,-1,30
 208.530117949 662.400390625 208.530117949 662.400390625 244.198446279 662.400390625 c 128,-1,31
 279.86677461 662.400390625 279.86677461 662.400390625 317.866758756 641.87586869 c 128,-1,32
 355.866742903 621.351346754 355.866742903 621.351346754 378.933371452 581.724717248 c 128,-1,33
 402 542.098087742 402 542.098087742 402 487.466576835 c 128,-1,34
 402 432.835065928 402 432.835065928 383.536892408 384.390028667 c 128,-1,35
 365.073784817 335.944991406 365.073784817 335.944991406 333.371771654 298.898932271 c 128,-1,36
 301.669758492 261.852873135 301.669758492 261.852873135 268.356001783 231.116341167 c 0,37,38
 166.161472638 136.827803268 166.161472638 136.827803268 133.200195312 87.599609375 c 1,39,40
 194.408205113 84 194.408205113 84 266.701477957 84 c 128,-1,41
 338.994750802 84 338.994750802 84 423.599609375 91.2001953125 c 1,42,43
 454.799804688 84.6322254665 454.799804688 84.6322254665 454.799804688 61.2001953125 c 0,44,45
 454.799804688 46.2936152445 454.799804688 46.2936152445 446.218361373 35.1973218141 c 128,-1,46
 437.636918057 24.1010283837 437.636918057 24.1010283837 419.287789222 17.6834358343 c 0,47,48
 368.39330705 -0.116866976596 368.39330705 -0.116866976596 272.172987379 -0.116866976596 c 2,0,-1
EndSplineSet
Substitution2: "'sups' Superscript in Latin lookup 5 subtable" twosuperior
Substitution2: "'onum' Oldstyle Figures in Latin lookup 3 subtable" two.onum
Substitution2: "'smcp' Lowercase to Small Capitals in Latin lookup 0 subtable" two.smcp
EndChar

StartChar: three
Encoding: 51 51 4
Width: 448
VWidth: 1200
Flags: W
HStem: 0 79.2002<172.119 293.482> 324 64.7998<150.715 237.444> 588 79.2002<149.755 267.668>
VStem: 297.6 78<446.788 558.12> 333.6 82.8008<127.239 278.496>
LayerCount: 2
Fore
SplineSet
108 532.799804688 m 1,0,1
 92.5706313221 522 92.5706313221 522 77.8709218274 522 c 128,-1,2
 63.1712123326 522 63.1712123326 522 54.3854108538 530.310820173 c 128,-1,3
 45.599609375 538.621640347 45.599609375 538.621640347 45.599609375 552 c 0,4,5
 45.599609375 577.470628719 45.599609375 577.470628719 79.5516069439 605.167706008 c 128,-1,6
 113.503604513 632.864783296 113.503604513 632.864783296 158.048327952 650.032489304 c 128,-1,7
 202.593051391 667.200195312 202.593051391 667.200195312 235.200195312 667.200195312 c 0,8,9
 303.011708535 667.200195312 303.011708535 667.200195312 339.305658955 624.026600675 c 128,-1,10
 375.599609375 580.853006038 375.599609375 580.853006038 375.599609375 532.896303135 c 0,11,12
 375.599609375 438.444827011 375.599609375 438.444827011 310.799804688 379.200195312 c 1,13,14
 359.099766174 360.973962667 359.099766174 360.973962667 387.750078399 316.484592139 c 128,-1,15
 416.400390625 271.995221612 416.400390625 271.995221612 416.400390625 215.214469227 c 128,-1,16
 416.400390625 158.433716843 416.400390625 158.433716843 396.555490582 110.608429211 c 128,-1,17
 376.710590538 62.7831415789 376.710590538 62.7831415789 336.644704731 31.3915707895 c 128,-1,18
 296.578818924 0 296.578818924 0 254.057752345 0 c 128,-1,19
 211.536685767 0 211.536685767 0 160.984106338 19.0352363029 c 128,-1,20
 110.431526909 38.0704726058 110.431526909 38.0704726058 71.4159587668 66.1646334887 c 128,-1,21
 32.400390625 94.2587943717 32.400390625 94.2587943717 32.400390625 114.019195417 c 128,-1,22
 32.400390625 133.779596462 32.400390625 133.779596462 46.6475403538 147.289700575 c 128,-1,23
 60.8946900826 160.799804688 60.8946900826 160.799804688 77.5471375089 160.799804688 c 128,-1,24
 94.1995849353 160.799804688 94.1995849353 160.799804688 101.929035514 155.185716733 c 128,-1,25
 109.658486092 149.571628779 109.658486092 149.571628779 130.166656742 132.161190902 c 0,26,27
 155.798943978 110.400627653 155.798943978 110.400627653 182.147243381 94.800411483 c 128,-1,28
 208.495542784 79.2001953125 208.495542784 79.2001953125 246.704931688 79.2001953125 c 128,-1,29
 284.914320591 79.2001953125 284.914320591 79.2001953125 309.256964983 121.800169677 c 128,-1,30
 333.599609375 164.400144042 333.599609375 164.400144042 333.599609375 217.200195312 c 0,31,32
 333.599609375 288.238719249 333.599609375 288.238719249 256.976843754 309.691565354 c 0,33,34
 221.582004821 319.601414293 221.582004821 319.601414293 164.400390625 324 c 1,35,36
 140.400390625 330.85654499 140.400390625 330.85654499 140.400390625 348.852614101 c 128,-1,37
 140.400390625 366.848683211 140.400390625 366.848683211 150.400187175 377.82424395 c 128,-1,38
 160.399983724 388.799804688 160.399983724 388.799804688 180.961063959 388.799804688 c 128,-1,39
 201.522144195 388.799804688 201.522144195 388.799804688 230.380536048 406.010859716 c 128,-1,40
 259.238927902 423.221914745 259.238927902 423.221914745 278.419268639 449.58907518 c 128,-1,41
 297.599609375 475.956235615 297.599609375 475.956235615 297.599609375 503.935851015 c 128,-1,42
 297.599609375 531.915466414 297.599609375 531.915466414 274.190571502 559.957733207 c 128,-1,43
 250.781533628 588 250.781533628 588 218.520291914 588 c 128,-1,44
 186.2590502 588 186.2590502 588 156.905866051 570.719471571 c 128,-1,45
 127.552681901 553.438943143 127.552681901 553.438943143 108 532.799804688 c 1,0,1
EndSplineSet
Substitution2: "'sups' Superscript in Latin lookup 5 subtable" threesuperior
Substitution2: "'onum' Oldstyle Figures in Latin lookup 3 subtable" three.onum
Substitution2: "'smcp' Lowercase to Small Capitals in Latin lookup 0 subtable" three.smcp
EndChar

StartChar: four
Encoding: 52 52 5
Width: 375
VWidth: 1200
Flags: W
HStem: -1.2002 21G<268.398 295.25> 214.8 87.6006<127.365 251.247> 446.8 20G<282.506 297.56> 644.8 20G<118.329 140.731>
VStem: 36 90<304.216 534.39> 73.2002 82.7998<493.712 653.214> 249.996 89.6037<11.2915 220.8 307.2 364.368> 259.496 81.3036<308.996 462.723>
LayerCount: 2
Fore
SplineSet
249.995866232 114.822234813 m 1,0,-1
 250.799804688 166.769584826 l 2,1,2
 250.799804688 173.066270616 250.799804688 173.066270616 251.399902344 192.682956272 c 128,-1,3
 252 212.299641927 252 212.299641927 252 220.799804688 c 1,4,5
 215.990231998 214.799804688 215.990231998 214.799804688 150.294975182 214.799804688 c 128,-1,6
 84.5997183659 214.799804688 84.5997183659 214.799804688 60.299859183 236.399853903 c 128,-1,7
 36 257.999903118 36 257.999903118 36 326.321613473 c 128,-1,8
 36 394.643323828 36 394.643323828 45.8194315121 458.099370227 c 128,-1,9
 55.6388630241 521.555416626 55.6388630241 521.555416626 63.6964167513 568.768230945 c 128,-1,10
 71.7539704785 615.981045264 71.7539704785 615.981045264 73.2001953125 625.200195312 c 1,11,12
 79.272496357 642.550837153 79.272496357 642.550837153 95.2339774627 653.67532092 c 128,-1,13
 111.195458568 664.799804688 111.195458568 664.799804688 125.462455103 664.799804688 c 0,14,15
 156 664.799804688 156 664.799804688 156 633.599609375 c 2,16,-1
 156 625.200195312 l 1,17,18
 154.344424494 614.301308006 154.344424494 614.301308006 149.925184518 585.804319859 c 128,-1,19
 145.505944542 557.307331711 145.505944542 557.307331711 143.633705332 544.568140509 c 128,-1,20
 141.761466123 531.828949307 141.761466123 531.828949307 138.268000662 507.073042527 c 0,21,22
 126 420.137738828 126 420.137738828 126 369.66896707 c 128,-1,23
 126 319.200195312 126 319.200195312 127.200195312 304.799804688 c 1,24,25
 140.400390625 302.400390625 140.400390625 302.400390625 161.65740844 302.400390625 c 128,-1,26
 182.914426255 302.400390625 182.914426255 302.400390625 212.030879319 304.568470869 c 128,-1,27
 241.147332382 306.736551112 241.147332382 306.736551112 253.200195312 307.200195312 c 1,28,29
 257.462155799 364.736661893 257.462155799 364.736661893 259.496163281 411.825008451 c 128,-1,30
 261.530170763 458.913355008 261.530170763 458.913355008 268.254428261 462.856579848 c 128,-1,31
 274.978685758 466.799804688 274.978685758 466.799804688 290.033151473 466.799804688 c 128,-1,32
 305.087617188 466.799804688 305.087617188 466.799804688 310.881230469 466.266767376 c 0,33,34
 329.790743134 464.527010973 329.790743134 464.527010973 335.295273911 450.464347305 c 128,-1,35
 340.799804688 436.401683638 340.799804688 436.401683638 340.799804688 404.400390625 c 2,36,-1
 333.599609375 164.400390625 l 1,37,38
 333.599609375 96.9025269479 333.599609375 96.9025269479 339.599609375 44.400390625 c 1,39,40
 335.954508751 27.0848648088 335.954508751 27.0848648088 319.827154292 12.9423347482 c 128,-1,41
 303.699799833 -1.2001953125 303.699799833 -1.2001953125 286.799804688 -1.2001953125 c 0,42,43
 249.995866232 -1.2001953125 249.995866232 -1.2001953125 249.995866232 114.822234813 c 1,0,-1
EndSplineSet
Substitution2: "'onum' Oldstyle Figures in Latin lookup 3 subtable" four.onum
Substitution2: "'smcp' Lowercase to Small Capitals in Latin lookup 0 subtable" four.smcp
EndChar

StartChar: five
Encoding: 53 53 6
Width: 423
VWidth: 1200
Flags: W
HStem: 3.59961 75.6006<161.157 270.909> 352.8 88.7998<121.234 263.658> 579.6 76.8008<103.617 345.442>
VStem: 40.7998 76.7998<432.135 582> 51.5996 69.6006<430.8 507.258> 316.8 87.6006<135.731 305.011>
LayerCount: 2
Fore
SplineSet
356.400390625 640.799804688 m 1,0,1
 375.599609375 628.582249163 375.599609375 628.582249163 375.599609375 606.030901709 c 128,-1,2
 375.599609375 583.479554255 375.599609375 583.479554255 362.842387573 571.339874784 c 128,-1,3
 350.085165771 559.200195312 350.085165771 559.200195312 336.442546264 559.200195312 c 128,-1,4
 322.799926758 559.200195312 322.799926758 559.200195312 275.99987793 569.399902344 c 128,-1,5
 229.199829102 579.599609375 229.199829102 579.599609375 194.742789132 579.599609375 c 128,-1,6
 160.285749163 579.599609375 160.285749163 579.599609375 138.942679269 564.659582032 c 128,-1,7
 117.599609375 549.719554688 117.599609375 549.719554688 117.599609375 507.599609375 c 0,8,9
 117.599609375 496.799804688 117.599609375 496.799804688 119.399902344 471 c 128,-1,10
 121.200195312 445.200195313 121.200195312 445.200195313 121.200195312 430.799804688 c 1,11,12
 149.999186221 441.599609375 149.999186221 441.599609375 193.200195312 441.599609375 c 0,13,14
 296.712120523 441.599609375 296.712120523 441.599609375 350.556255574 385.235454913 c 128,-1,15
 404.400390625 328.871300451 404.400390625 328.871300451 404.400390625 228 c 0,16,17
 404.400390625 101.862744152 404.400390625 101.862744152 319.226510941 37.2309465352 c 0,18,19
 274.906043764 3.599609375 274.906043764 3.599609375 221.832410332 3.599609375 c 128,-1,20
 168.7587769 3.599609375 168.7587769 3.599609375 133.587388128 13.0587839671 c 0,21,22
 75.7279602463 28.6197967461 75.7279602463 28.6197967461 50.6817006282 64.457502717 c 0,23,24
 33.599609375 88.8995939926 33.599609375 88.8995939926 33.599609375 106.356696478 c 128,-1,25
 33.599609375 123.813798963 33.599609375 123.813798963 40.7357172791 135.753498569 c 0,26,27
 55.705368859 160.799804688 55.705368859 160.799804688 81.4576072087 160.799804688 c 128,-1,28
 107.209845558 160.799804688 107.209845558 160.799804688 124.813951823 139.644350405 c 0,29,30
 161.98164977 94.9786614526 161.98164977 94.9786614526 181.792319568 87.0894283826 c 128,-1,31
 201.602989366 79.2001953125 201.602989366 79.2001953125 219.599609375 79.2001953125 c 0,32,33
 264.753227376 80.8721230874 264.753227376 80.8721230874 290.776516032 127.135965243 c 128,-1,34
 316.799804688 173.399807399 316.799804688 173.399807399 316.799804688 218.230368565 c 0,35,36
 316.799804688 298.479197809 316.799804688 298.479197809 273.106237665 325.639501248 c 128,-1,37
 229.412670642 352.799804688 229.412670642 352.799804688 178.799804688 352.799804688 c 0,38,39
 162.899780274 352.799804688 162.899780274 352.799804688 140.699829102 348 c 128,-1,40
 118.49987793 343.200195312 118.49987793 343.200195312 105.923407109 343.200195312 c 128,-1,41
 93.3469362878 343.200195312 93.3469362878 343.200195312 81.2941020212 348.123956661 c 0,42,43
 52.7290322042 359.793210845 52.7290322042 359.793210845 51.599609375 394.799804688 c 0,44,45
 50.7203224339 416.347523863 50.7203224339 416.347523863 45.7600635607 483.930514895 c 128,-1,46
 40.7998046875 551.513505927 40.7998046875 551.513505927 40.7998046875 582 c 0,47,48
 40.7998046875 651.599609375 40.7998046875 651.599609375 63.599609375 651.599609375 c 0,49,50
 193.201171821 656.400390625 193.201171821 656.400390625 204 656.400390625 c 0,51,52
 308.038320304 656.400390625 308.038320304 656.400390625 356.400390625 640.799804688 c 1,0,1
EndSplineSet
Substitution2: "'onum' Oldstyle Figures in Latin lookup 3 subtable" five.onum
Substitution2: "'smcp' Lowercase to Small Capitals in Latin lookup 0 subtable" five.smcp
EndChar

StartChar: six
Encoding: 54 54 7
Width: 399
VWidth: 1200
Flags: W
HStem: -1.2002 76.7998<140.527 239.428> 273.6 72<139.2 271.018> 644.8 20G<245.289 262.726>
VStem: 34.7998 80.4004<103.415 267.5> 292.8 75.6006<130.65 252.077>
LayerCount: 2
Fore
SplineSet
139.200195312 344.400390625 m 1,0,-1
 204 345.599609375 l 1,1,2
 272.55712696 345.599609375 272.55712696 345.599609375 320.478758792 312.531013167 c 128,-1,3
 368.400390625 279.46241696 368.400390625 279.46241696 368.400390625 195.919934198 c 128,-1,4
 368.400390625 112.377451436 368.400390625 112.377451436 304.543484917 55.5886280617 c 128,-1,5
 240.68657921 -1.2001953125 240.68657921 -1.2001953125 161.759620904 -1.2001953125 c 128,-1,6
 82.8326625979 -1.2001953125 82.8326625979 -1.2001953125 57.4670289683 56.8266715447 c 0,7,8
 36.5704522462 104.630045706 36.5704522462 104.630045706 35.1005474484 177.30236852 c 0,9,10
 34.7998046875 192.171137596 34.7998046875 192.171137596 34.7998046875 225.95799826 c 128,-1,11
 34.7998046875 259.744858925 34.7998046875 259.744858925 55.8665188913 330.605270668 c 128,-1,12
 76.9332330951 401.46568241 76.9332330951 401.46568241 99.7436100769 451.130526224 c 128,-1,13
 122.553987059 500.795370039 122.553987059 500.795370039 142.910869256 534.262451238 c 128,-1,14
 163.267751453 567.729532437 163.267751453 567.729532437 177.90193592 587.437469417 c 128,-1,15
 192.536120386 607.145406397 192.536120386 607.145406397 208.68589367 627.712341375 c 128,-1,16
 224.835666954 648.279276353 224.835666954 648.279276353 230.703348474 656.53954052 c 128,-1,17
 236.571029994 664.799804688 236.571029994 664.799804688 254.007745762 664.799804688 c 128,-1,18
 271.444461529 664.799804688 271.444461529 664.799804688 282.722230765 658.321248226 c 128,-1,19
 294 651.842691763 294 651.842691763 293.732843696 643.650119943 c 128,-1,20
 293.465687393 635.457548123 293.465687393 635.457548123 273.46698848 601.249913059 c 128,-1,21
 253.468289567 567.042277996 253.468289567 567.042277996 225.732881311 521.949956733 c 128,-1,22
 197.997473056 476.85763547 197.997473056 476.85763547 193.86600447 469.826041783 c 128,-1,23
 189.734535884 462.794448096 189.734535884 462.794448096 182.414129358 448.036823082 c 0,24,25
 147.526122975 377.704101274 147.526122975 377.704101274 139.200195312 344.400390625 c 1,0,-1
202.799804688 273.599609375 m 1,26,-1
 130.799804688 268.799804688 l 1,27,28
 115.200195312 227.201551612 115.200195312 227.201551612 115.200195312 186.278000475 c 128,-1,29
 115.200195312 145.354449337 115.200195312 145.354449337 132.392951842 110.477029356 c 128,-1,30
 149.585708373 75.599609375 149.585708373 75.599609375 177.599609375 75.599609375 c 0,31,32
 222.872465492 75.599609375 222.872465492 75.599609375 257.83613509 114.059808524 c 128,-1,33
 292.799804688 152.520007673 292.799804688 152.520007673 292.799804688 195.599609375 c 0,34,35
 292.799804688 215.28093751 292.799804688 215.28093751 283.200195312 236.400390625 c 1,36,37
 263.855875015 273.599609375 263.855875015 273.599609375 202.799804688 273.599609375 c 1,26,-1
EndSplineSet
Substitution2: "'onum' Oldstyle Figures in Latin lookup 3 subtable" six.onum
Substitution2: "'smcp' Lowercase to Small Capitals in Latin lookup 0 subtable" six.smcp
EndChar

StartChar: seven
Encoding: 55 55 8
Width: 495
VWidth: 1200
Flags: W
HStem: -1.2002 21G<270 291.851> 351.6 72<112.78 243.195> 360 67.2002<194.206 265.2 341.038 466.62> 646 20G<42.8998 49.4998>
VStem: 255.6 73.2002<6.97033 310.47>
LayerCount: 2
Fore
SplineSet
472.799804688 400.715559662 m 0,0,1
 472.799804688 358.799804688 472.799804688 358.799804688 391.200195312 358.799804688 c 1,2,-1
 343.200195312 360 l 2,3,4
 328.799804688 360 328.799804688 360 328.799804688 148.799804688 c 0,5,6
 328.799804688 79.2001953125 328.799804688 79.2001953125 331.200195312 43.2001953125 c 1,7,8
 326.561413052 25.5729737273 326.561413052 25.5729737273 312.931598144 12.1863892074 c 128,-1,9
 299.301783236 -1.2001953125 299.301783236 -1.2001953125 284.400390625 -1.2001953125 c 0,10,11
 255.599609375 -1.2001953125 255.599609375 -1.2001953125 255.599609375 74.400390625 c 0,12,13
 255.599609375 230.395345161 255.599609375 230.395345161 265.200195312 360 c 1,14,-1
 133.200195312 351.599609375 l 2,15,16
 120.200195312 351.599609375 120.200195312 351.599609375 111.700195312 358.885323661 c 128,-1,17
 103.200195312 366.171037946 103.200195312 366.171037946 103.200195312 378.593219335 c 128,-1,18
 103.200195312 391.015400724 103.200195312 391.015400724 116.158472784 405.967399744 c 128,-1,19
 129.116750255 420.919398765 129.116750255 420.919398765 145.200195312 423.599609375 c 1,20,-1
 271.200195312 427.200195312 l 1,21,22
 273 448.200195317 273 448.200195317 275.399902344 489.000000005 c 128,-1,23
 277.799804688 529.799804693 277.799804688 529.799804693 279.599609375 550.799804688 c 1,24,25
 236.810487671 557.283068899 236.810487671 557.283068899 154.981176833 572.13352413 c 128,-1,26
 73.1518659949 586.983979362 73.1518659949 586.983979362 37.2001953125 592.799804688 c 1,27,28
 16.7998046875 604.700263127 16.7998046875 604.700263127 16.7998046875 632.38647814 c 0,29,30
 16.7998046875 643.199951172 16.7998046875 643.199951172 28.1998291015 654.599975586 c 128,-1,31
 39.5998535155 666 39.5998535155 666 46.1998291015 666 c 128,-1,32
 52.7998046875 666 52.7998046875 666 58.4458460013 664.927800909 c 128,-1,33
 64.0918873151 663.855601818 64.0918873151 663.855601818 204.822953481 642.069281443 c 128,-1,34
 345.554019646 620.282961068 345.554019646 620.282961068 361.200195312 612 c 0,35,36
 361.809169243 611.63460573 361.809169243 611.63460573 363.052418576 610.893610724 c 0,37,38
 388.799804688 595.547787475 388.799804688 595.547787475 388.799804688 579.599609375 c 0,39,40
 388.799804688 535.200195312 388.799804688 535.200195312 355.200195312 535.200195312 c 1,41,-1
 348 536.400390625 l 1,42,43
 347.578889816 532.469533842 347.578889816 532.469533842 340.799804688 430.799804688 c 1,44,-1
 445.200195312 432 l 1,45,46
 460.819447465 428.529133541 460.819447465 428.529133541 466.809626077 422.111010414 c 128,-1,47
 472.799804688 415.692887287 472.799804688 415.692887287 472.799804688 400.715559662 c 0,0,1
EndSplineSet
Substitution2: "'onum' Oldstyle Figures in Latin lookup 3 subtable" seven.onum
Substitution2: "'smcp' Lowercase to Small Capitals in Latin lookup 0 subtable" seven.smcp
EndChar

StartChar: eight
Encoding: 56 56 9
Width: 433
VWidth: 1200
Flags: W
HStem: 1.2002 75.5996<141.511 287.71> 595.2 69.5996<144.054 301.191>
VStem: 31.414 74.1856<109.979 238.502> 55.2002 70.7998<477.314 577.708> 304.8 81.6006<94.926 224.921> 324 67.2002<485.479 572.904>
LayerCount: 2
Fore
SplineSet
103.176212207 633.04753611 m 128,-1,1
 151.152229101 664.799804688 151.152229101 664.799804688 221.384852397 664.799804688 c 128,-1,2
 291.617475693 664.799804688 291.617475693 664.799804688 341.408835502 622.403389964 c 128,-1,3
 391.200195312 580.00697524 391.200195312 580.00697524 391.200195312 526.799804688 c 0,4,5
 391.200195312 495.668556105 391.200195312 495.668556105 360.801215538 446.831143424 c 128,-1,6
 330.402235765 397.993730743 330.402235765 397.993730743 286.799804688 372 c 1,7,8
 386.400390625 256.186680292 386.400390625 256.186680292 386.400390625 158.400390625 c 0,9,10
 386.400390625 83.3088331419 386.400390625 83.3088331419 333.243098898 42.2545142272 c 128,-1,11
 280.085807171 1.2001953125 280.085807171 1.2001953125 200.10520762 1.2001953125 c 128,-1,12
 120.124608068 1.2001953125 120.124608068 1.2001953125 68.1026721071 55.1531460916 c 0,13,14
 31.4139848991 94.433323687 31.4139848991 94.433323687 31.4139848991 141.000458106 c 128,-1,15
 31.4139848991 187.567592525 31.4139848991 187.567592525 47.117934264 228.21696059 c 0,16,17
 79.4392041467 311.879940219 79.4392041467 311.879940219 154.799804688 368.400390625 c 1,18,19
 113.055527476 391.994307801 113.055527476 391.994307801 84.1278613944 440.6894249 c 128,-1,20
 55.2001953125 489.384541999 55.2001953125 489.384541999 55.2001953125 537.599609375 c 0,21,0
 55.2001953125 601.295267532 55.2001953125 601.295267532 103.176212207 633.04753611 c 128,-1,1
304.799804688 142.799804688 m 0,22,23
 304.799804688 223.471186517 304.799804688 223.471186517 212.400390625 322.799804688 c 1,24,25
 136.410600987 274.673350187 136.410600987 274.673350187 113.464917536 208.341690012 c 0,26,27
 105.599609375 185.604561731 105.599609375 185.604561731 105.599609375 162 c 0,28,29
 105.599609375 123.266090661 105.599609375 123.266090661 139.026951495 100.032947674 c 128,-1,30
 172.454293616 76.7998046875 172.454293616 76.7998046875 225.757834533 76.7998046875 c 128,-1,31
 279.06137545 76.7998046875 279.06137545 76.7998046875 297.557189386 112.341306996 c 0,32,33
 304.365334331 125.423818538 304.365334331 125.423818538 304.799804688 142.799804688 c 0,22,23
235.200195312 595.200195312 m 2,34,-1
 211.200195312 595.200195312 l 2,35,36
 126 595.200195312 126 595.200195312 126 525.599609375 c 0,37,38
 126 498.515093186 126 498.515093186 142.938710947 481.960094113 c 128,-1,39
 159.877421895 465.40509504 159.877421895 465.40509504 169.125789058 457.986239304 c 128,-1,40
 178.37415622 450.567383569 178.37415622 450.567383569 196.720593755 437.761034134 c 128,-1,41
 215.067031289 424.954684698 215.067031289 424.954684698 223.200195312 418.799804688 c 1,42,43
 324 489.362949205 324 489.362949205 324 526.799804688 c 0,44,45
 324 548.12011745 324 548.12011745 311.153235399 564.030110742 c 0,46,47
 285.984479405 595.200195312 285.984479405 595.200195312 235.200195312 595.200195312 c 2,34,-1
EndSplineSet
Substitution2: "'onum' Oldstyle Figures in Latin lookup 3 subtable" eight.onum
Substitution2: "'smcp' Lowercase to Small Capitals in Latin lookup 0 subtable" eight.smcp
EndChar

StartChar: nine
Encoding: 57 57 10
Width: 367
VWidth: 1200
Flags: W
HStem: 304.8 80.4004<128.209 221.003> 596.4 69.5996<130.307 245.533>
VStem: 28.7998 73.2002<413.479 568.427> 264 72<8.91514 256.919 413.379 589.967>
LayerCount: 2
Fore
SplineSet
334.799804688 511.200195312 m 2,0,-1
 332.400390625 283.200195312 l 1,1,2
 332.400390625 133.200195312 332.400390625 133.200195312 336 44.400390625 c 1,3,4
 334.223192647 27.5228893716 334.223192647 27.5228893716 320.813476372 14.3615423421 c 128,-1,5
 307.403760096 1.2001953125 307.403760096 1.2001953125 290.686665321 1.2001953125 c 128,-1,6
 273.969570547 1.2001953125 273.969570547 1.2001953125 264 22.7998046875 c 1,7,8
 256.799804688 184.810791435 256.799804688 184.810791435 256.799804688 349.200195312 c 1,9,10
 231.880856776 329.818290654 231.880856776 329.818290654 199.781924542 317.309047671 c 128,-1,11
 167.682992307 304.799804688 167.682992307 304.799804688 140.292852291 304.799804688 c 128,-1,12
 112.902712275 304.799804688 112.902712275 304.799804688 90.7795719189 322.401147617 c 128,-1,13
 68.6564315625 340.002490546 68.6564315625 340.002490546 55.582702251 368.31134628 c 0,14,15
 28.7998046875 426.304988737 28.7998046875 426.304988737 28.7998046875 488.552152572 c 128,-1,16
 28.7998046875 550.799316406 28.7998046875 550.799316406 46.7998046875 583.200195312 c 128,-1,17
 64.7815996518 615.567572584 64.7815996518 615.567572584 119.664290335 640.783786292 c 128,-1,18
 174.546981019 666 174.546981019 666 214.889485982 666 c 128,-1,19
 255.231990945 666 255.231990945 666 275.721163907 656.741757507 c 0,20,21
 312.792649069 639.99062754 312.792649069 639.99062754 323.796226878 602.16236229 c 128,-1,22
 334.799804688 564.33409704 334.799804688 564.33409704 334.799804688 511.200195312 c 2,0,-1
259.200195312 424.799804688 m 1,23,-1
 260.400390625 496.799804688 l 1,24,25
 260.400390625 569.444983108 260.400390625 569.444983108 241.200195312 591.599609375 c 1,26,27
 228.399414061 596.400390625 228.399414061 596.400390625 204 596.400390625 c 0,28,29
 102 596.400390625 102 596.400390625 102 501.599609375 c 0,30,31
 102 440.523082511 102 440.523082511 128.684230603 405.979856527 c 0,32,33
 144.736271369 385.200195312 144.736271369 385.200195312 169.200195312 385.200195312 c 0,34,35
 171.845594149 386.050496589 171.845594149 386.050496589 185.063120002 390.215620512 c 128,-1,36
 198.280645855 394.380744435 198.280645855 394.380744435 201.88679048 395.634599214 c 0,37,38
 237.958943287 408.176869674 237.958943287 408.176869674 259.200195312 424.799804688 c 1,23,-1
EndSplineSet
Substitution2: "'onum' Oldstyle Figures in Latin lookup 3 subtable" nine.onum
Substitution2: "'smcp' Lowercase to Small Capitals in Latin lookup 0 subtable" nine.smcp
EndChar

StartChar: A
Encoding: 65 65 11
Width: 488
VWidth: 1200
Flags: W
HStem: -1.2002 21G<423.525 439.575> 243.6 75.6006<168.736 322.8> 638.8 20G<239.34 269.34>
VStem: 24 72<8.67827 140.794>
LayerCount: 2
Fore
SplineSet
96 20.400390625 m 1,0,1
 92.1593359311 1.2001953125 92.1593359311 1.2001953125 60 1.2001953125 c 0,2,3
 45.0482384753 1.2001953125 45.0482384753 1.2001953125 34.5241192376 8.44999186198 c 128,-1,4
 24 15.6997884115 24 15.6997884115 24 30 c 0,5,6
 24 68.7325153241 24 68.7325153241 45.2237913595 169.205388703 c 128,-1,7
 66.4475827191 269.678262082 66.4475827191 269.678262082 98.345086814 379.944483123 c 128,-1,8
 130.242590909 490.210704164 130.242590909 490.210704164 174.861425637 574.505254426 c 128,-1,9
 219.480260364 658.799804688 219.480260364 658.799804688 259.200195312 658.799804688 c 0,10,11
 279.4801128 658.799804688 279.4801128 658.799804688 330.486764291 529.873422374 c 128,-1,12
 381.493415782 400.94704006 381.493415782 400.94704006 419.742585475 246.078206747 c 128,-1,13
 457.991755169 91.2093734344 457.991755169 91.2093734344 468 34.7998046875 c 1,14,15
 468 17.3451835693 468 17.3451835693 457.800079346 8.0724941284 c 128,-1,16
 447.600158692 -1.2001953125 447.600158692 -1.2001953125 431.549943713 -1.2001953125 c 128,-1,17
 415.499728734 -1.2001953125 415.499728734 -1.2001953125 403.268135794 7.26794836996 c 128,-1,18
 391.036542854 15.7360920524 391.036542854 15.7360920524 387.599609375 31.2001953125 c 2,19,-1
 339.599609375 243.599609375 l 1,20,21
 211.760247391 243.599609375 211.760247391 243.599609375 145.200195312 262.799804688 c 1,22,23
 108.330781158 109.181412876 108.330781158 109.181412876 96 20.400390625 c 1,0,1
248.400390625 548.400390625 m 1,24,25
 197.849588576 454.038619211 197.849588576 454.038619211 166.799804688 340.799804688 c 1,26,27
 228.513691802 319.200195312 228.513691802 319.200195312 322.799804688 319.200195312 c 1,28,29
 281.623074536 467.896632175 281.623074536 467.896632175 248.400390625 548.400390625 c 1,24,25
EndSplineSet
Substitution2: "'c2sc' Capitals to Small Capitals in Latin lookup 1 subtable" A.smcp
EndChar

StartChar: B
Encoding: 66 66 12
Width: 507
VWidth: 1200
Flags: W
HStem: 3.59961 63.6006<141.613 340.918> 595.2 72<149.587 289.129>
VStem: 58.7998 75.1886<142.66 303.774 373.2 578.008> 328.8 68.4004<433.027 558.57> 394.8 68.4004<123.249 277.383>
LayerCount: 2
Fore
SplineSet
58.7998046875 382.799804688 m 1,0,-1
 57.599609375 453.599609375 l 1,1,2
 57.599609375 609.089095681 57.599609375 609.089095681 139.942461389 652.816359812 c 0,3,4
 167.028675482 667.200195312 167.028675482 667.200195312 200.040777362 667.200195312 c 128,-1,5
 233.052879241 667.200195312 233.052879241 667.200195312 261.683011272 660.2688295 c 0,6,7
 319.446689121 646.284221209 319.446689121 646.284221209 358.323442217 606.332935871 c 128,-1,8
 397.200195312 566.381650533 397.200195312 566.381650533 397.200195312 507.599609375 c 0,9,10
 397.200195312 414.800392429 397.200195312 414.800392429 339.599609375 368.400390625 c 1,11,12
 368.095030221 365.809833937 368.095030221 365.809833937 392.124007926 348.930470207 c 128,-1,13
 416.152985631 332.051106476 416.152985631 332.051106476 431.300750985 307.094844124 c 0,14,15
 463.200195312 254.539837965 463.200195312 254.539837965 463.200195312 200.926810592 c 128,-1,16
 463.200195312 147.31378322 463.200195312 147.31378322 447.789380446 111.741549074 c 128,-1,17
 432.378565579 76.1693149288 432.378565579 76.1693149288 408.367721116 55.7970290506 c 0,18,19
 346.84766722 3.599609375 346.84766722 3.599609375 198 3.599609375 c 0,20,21
 193.199218747 3.599609375 193.199218747 3.599609375 70.7998046875 7.2001953125 c 1,22,23
 58.7998046875 53.8677059373 58.7998046875 53.8677059373 58.7998046875 382.799804688 c 1,0,-1
140.400390625 70.7998046875 m 1,24,25
 178.799804688 67.2001953125 178.799804688 67.2001953125 268.799804688 67.2001953125 c 0,26,27
 329.679110149 67.2001953125 329.679110149 67.2001953125 362.239457419 107.841396239 c 128,-1,28
 394.799804688 148.482597165 394.799804688 148.482597165 394.799804688 192.48965467 c 128,-1,29
 394.799804688 236.496712176 394.799804688 236.496712176 382.602066111 261.824210596 c 0,30,31
 356.703801494 315.599609375 356.703801494 315.599609375 277.200195312 315.599609375 c 0,32,33
 243.593099132 315.599609375 243.593099132 315.599609375 133.200195312 301.200195312 c 1,34,35
 133.316613156 298.230805866 133.316613156 298.230805866 133.98842648 213.931899571 c 128,-1,36
 134.660239804 129.632993276 134.660239804 129.632993276 140.400390625 70.7998046875 c 1,24,25
134.400390625 507.599609375 m 1,37,-1
 135.599609375 475.200195312 l 1,38,-1
 134.400390625 405.599609375 l 2,39,40
 134.400390625 381.599609375 134.400390625 381.599609375 135.599609375 373.200195312 c 1,41,42
 142.436418558 374.159702954 142.436418558 374.159702954 163.111840522 376.593202594 c 128,-1,43
 183.787262487 379.026702233 183.787262487 379.026702233 195.071287835 380.634958264 c 128,-1,44
 206.355313183 382.243214296 206.355313183 382.243214296 226.360390938 386.774286273 c 128,-1,45
 246.365468692 391.30535825 246.365468692 391.30535825 258.277586663 396.609842298 c 0,46,47
 294.507091956 412.742895493 294.507091956 412.742895493 311.653448322 437.631658167 c 128,-1,48
 328.799804688 462.520420841 328.799804688 462.520420841 328.799804688 503.675817741 c 128,-1,49
 328.799804688 544.831214642 328.799804688 544.831214642 294.349375523 570.015704977 c 128,-1,50
 259.898946358 595.200195312 259.898946358 595.200195312 210.228127524 595.200195312 c 128,-1,51
 160.55730869 595.200195312 160.55730869 595.200195312 147.478849657 570.019317101 c 128,-1,52
 134.400390625 544.83843889 134.400390625 544.83843889 134.400390625 507.599609375 c 1,37,-1
EndSplineSet
Substitution2: "'c2sc' Capitals to Small Capitals in Latin lookup 1 subtable" B.smcp
EndChar

StartChar: C
Encoding: 67 67 13
Width: 548
VWidth: 1200
Flags: W
HStem: 1.2002 80.3994<210.199 358.038> 570 84<239.917 457.419>
VStem: 42 85.2002<190.001 448.419>
LayerCount: 2
Fore
SplineSet
483.599609375 627.599609375 m 1,0,1
 501.599609375 615.000488281 501.599609375 615.000488281 501.599609375 598.061293953 c 128,-1,2
 501.599609375 581.122099626 501.599609375 581.122099626 485.157458604 568.360854501 c 128,-1,3
 468.715307834 555.599609375 468.715307834 555.599609375 447.599609375 555.599609375 c 1,4,5
 396.172034392 570 396.172034392 570 346.799804688 570 c 0,6,7
 240.033460586 570 240.033460586 570 183.616827949 506.531242002 c 128,-1,8
 127.200195312 443.062484003 127.200195312 443.062484003 127.200195312 316.042467121 c 128,-1,9
 127.200195312 189.022450239 127.200195312 189.022450239 193.256614035 118.783285606 c 0,10,11
 228.22600041 81.599609375 228.22600041 81.599609375 275.113081585 81.599609375 c 128,-1,12
 322.00016276 81.599609375 322.00016276 81.599609375 424.49987793 131.99975586 c 0,13,14
 458.666449653 148.799804688 458.666449653 148.799804688 471.599609375 148.799804688 c 0,15,16
 498 148.799804688 498 148.799804688 498 121.799979076 c 128,-1,17
 498 94.8001534641 498 94.8001534641 472.799804688 76.7998046875 c 1,18,19
 431.481904238 54.8219697384 431.481904238 54.8219697384 405.914103711 42.4054436065 c 128,-1,20
 380.346303185 29.9889174746 380.346303185 29.9889174746 335.686156705 15.5945563935 c 128,-1,21
 291.026010226 1.2001953125 291.026010226 1.2001953125 255.333400776 1.2001953125 c 128,-1,22
 219.640791326 1.2001953125 219.640791326 1.2001953125 187.679599243 15.3583367 c 128,-1,23
 155.718407159 29.5164780875 155.718407159 29.5164780875 132.720384481 54.1919155788 c 0,24,25
 84.8429008645 105.561455942 84.8429008645 105.561455942 63.4315028262 179.613899086 c 128,-1,26
 42 253.735875693 42 253.735875693 42 331.021062303 c 128,-1,27
 42 408.306248913 42 408.306248913 65.6343731914 471.832027 c 128,-1,28
 89.2687463828 535.357805086 89.2687463828 535.357805086 130.246776101 574.473698098 c 0,29,30
 213.55897766 654 213.55897766 654 336 654 c 0,31,32
 404.403041148 654 404.403041148 654 483.599609375 627.599609375 c 1,0,1
EndSplineSet
Substitution2: "'c2sc' Capitals to Small Capitals in Latin lookup 1 subtable" C.smcp
EndChar

StartChar: D
Encoding: 68 68 14
Width: 475
VWidth: 1200
Flags: W
HStem: -2.40039 78<153.071 336.644> 642.4 20G<83.3796 96.5933>
VStem: 36 82.7998<165.943 576> 72 84<-46.3663 4.2181> 387.6 80.4004<116.966 329.148>
LayerCount: 2
Fore
SplineSet
152.400390625 4.7998046875 m 1,0,1
 156 -4.20141631185 156 -4.20141631185 156 -16.8194533876 c 128,-1,2
 156 -29.4374904634 156 -29.4374904634 140.145965757 -42.3188428879 c 128,-1,3
 124.291931513 -55.2001953125 124.291931513 -55.2001953125 101.392899215 -55.2001953125 c 128,-1,4
 78.4938669164 -55.2001953125 78.4938669164 -55.2001953125 72 -27.599609375 c 2,5,-1
 58.7998046875 32.400390625 l 1,6,7
 44.400390625 43.19921875 44.400390625 43.19921875 44.400390625 56.6997070312 c 128,-1,8
 44.400390625 70.2001953125 44.400390625 70.2001953125 55.2001953125 79.2001953125 c 1,9,10
 36 226.396918484 36 226.396918484 36 406.799804688 c 0,11,12
 36 478.770012179 36 478.770012179 40.7998046875 625.200195312 c 1,13,14
 46.1918910272 641.375723003 46.1918910272 641.375723003 61.4822932594 651.888056814 c 128,-1,15
 76.7726954917 662.400390625 76.7726954917 662.400390625 89.9864454018 662.400390625 c 128,-1,16
 103.200195312 662.400390625 103.200195312 662.400390625 108 661.200195312 c 0,17,18
 252.431261762 620.200504926 252.431261762 620.200504926 355.319900256 508.961715639 c 0,19,20
 405.29200814 454.934012866 405.29200814 454.934012866 435.555099744 382.97579962 c 128,-1,21
 465.818191347 311.017586374 465.818191347 311.017586374 468 231.599609375 c 1,22,23
 468 56.3961744259 468 56.3961744259 321.95141147 10.8420496803 c 0,24,25
 279.49554768 -2.400390625 279.49554768 -2.400390625 234.847627356 -2.400390625 c 128,-1,26
 190.199707032 -2.400390625 190.199707032 -2.400390625 152.400390625 4.7998046875 c 1,0,1
123.599609375 576 m 1,27,28
 118.799804688 470.378901115 118.799804688 470.378901115 118.799804688 415.200195312 c 0,29,30
 118.799804688 235.798584021 118.799804688 235.798584021 139.200195312 82.7998046875 c 1,31,32
 164.401611378 75.599609375 164.401611378 75.599609375 201.728523536 75.599609375 c 0,33,34
 271.247072155 75.599609375 271.247072155 75.599609375 326.498067048 93.1235283171 c 128,-1,35
 381.749061942 110.647447259 381.749061942 110.647447259 385.200195312 151.200195312 c 0,36,37
 387.599609375 179.987307066 387.599609375 179.987307066 387.599609375 194.400390625 c 0,38,39
 387.599609375 325.089466719 387.599609375 325.089466719 317.603371918 424.557744986 c 128,-1,40
 247.60713446 524.026023253 247.60713446 524.026023253 123.599609375 576 c 1,27,28
EndSplineSet
Substitution2: "'c2sc' Capitals to Small Capitals in Latin lookup 1 subtable" D.smcp
EndChar

StartChar: E
Encoding: 69 69 15
Width: 442
VWidth: 1200
Flags: W
HStem: 0 76.7998<133.2 382.574> 331.2 75.5996<132.265 364.48> 572.4 88.7998<129.717 414.366>
VStem: 51.5996 79.2002<408 579.6> 55.2002 78<76.7998 333.589>
LayerCount: 2
Fore
SplineSet
296.911834483 571.781180121 m 2,0,-1
 231.691589272 572.400390625 l 2,1,2
 208.194701933 572.400390625 208.194701933 572.400390625 127.200195312 579.599609375 c 1,3,4
 127.200195312 459.599609375 127.200195312 459.599609375 130.799804688 408 c 1,5,6
 211.200195312 406.799804688 211.200195312 406.799804688 334.799804688 406.799804688 c 1,7,8
 370.799804688 400.254713321 370.799804688 400.254713321 370.799804688 374.221501924 c 128,-1,9
 370.799804688 348.188290527 370.799804688 348.188290527 342.038202978 334.818769549 c 0,10,11
 336.781190657 332.375103957 336.781190657 332.375103957 331.200195312 331.200195312 c 1,12,-1
 158.400390625 333.599609375 l 2,13,14
 140.400390625 333.599609375 140.400390625 333.599609375 132 332.400390625 c 1,15,-1
 135.599609375 159.599609375 l 1,16,17
 135.599609375 102.000000001 135.599609375 102.000000001 133.200195312 76.7998046905 c 1,18,-1
 364.799804688 80.400390625 l 1,19,20
 397.200195312 75.5395410062 397.200195312 75.5395410062 397.200195312 52.7998046875 c 0,21,22
 397.200195312 37.58589764 397.200195312 37.58589764 383.45203952 22.8557878016 c 128,-1,23
 369.703883727 8.12567796311 369.703883727 8.12567796311 351.599609375 3.599609375 c 1,24,-1
 96 0 l 2,25,26
 73.034866944 0 73.034866944 0 64.1175311282 8.492799512 c 128,-1,27
 55.2001953125 16.985599024 55.2001953125 16.985599024 55.2001953125 37.2001953125 c 1,28,29
 58.7989305997 68.1928693052 58.7989305997 68.1928693052 58.7998046875 127.200195312 c 2,30,-1
 58.7998046875 196.799804688 l 1,31,-1
 55.2001953125 344.400390625 l 1,32,33
 40.7998046875 353.400085468 40.7998046875 353.400085468 40.7998046875 370.799804688 c 128,-1,34
 40.7998046875 388.199544226 40.7998046875 388.199544226 51.599609375 400.799804688 c 1,35,36
 48 514.216068328 48 514.216068328 48 612 c 1,37,38
 54.1762796282 635.821972274 54.1762796282 635.821972274 66.7270213981 646.670983102 c 128,-1,39
 79.277763168 657.519993929 79.277763168 657.519993929 103.200195312 661.200195312 c 1,40,41
 235.200195312 655.200195312 235.200195312 655.200195312 388.799804688 655.200195312 c 1,42,43
 427.200195312 646.852461526 427.200195312 646.852461526 427.200195312 621.599609375 c 128,-1,44
 427.200195312 596.316455399 427.200195312 596.316455399 398.961604936 585.517160802 c 128,-1,45
 370.72301456 574.717866206 370.72301456 574.717866206 345.444825919 573.450359623 c 0,46,47
 312.155977635 571.781180121 312.155977635 571.781180121 296.911834483 571.781180121 c 2,0,-1
EndSplineSet
Substitution2: "'c2sc' Capitals to Small Capitals in Latin lookup 1 subtable" E.smcp
EndChar

StartChar: F
Encoding: 70 70 16
Width: 375
VWidth: 1200
Flags: W
HStem: 313.2 69.5996<108.6 344.054> 572.4 69.5996<106.343 401.049> 576 75.5996<-12.9876 37.7998 106.2 208.359>
VStem: 40.0088 75.791<13.8864 295.315> 40.2002 68.3994<79.5484 313.2 382.8 574.8>
LayerCount: 2
Fore
SplineSet
322.755935489 643.776994572 m 1,0,1
 405.599609375 643.776994572 405.599609375 643.776994572 405.599609375 610.799804688 c 0,2,3
 405.599609375 601.1663954 405.599609375 601.1663954 400.210713489 592.091484918 c 0,4,5
 387.804972977 571.200195312 387.804972977 571.200195312 363.599609375 571.200195312 c 1,6,7
 315.619137457 573.599609375 315.619137457 573.599609375 315.599609375 573.599609375 c 2,8,-1
 278.400390625 572.400390625 l 1,9,10
 130.200195312 572.400390625 130.200195312 572.400390625 106.200195312 574.799804688 c 1,11,-1
 105 448.799804688 l 1,12,-1
 106.200195312 382.799804688 l 1,13,-1
 325.200195312 382.799804688 l 1,14,15
 351.599609375 377.850501994 351.599609375 377.850501994 351.599609375 356.400390625 c 0,16,17
 351.599609375 350.221607678 351.599609375 350.221607678 348.648735544 343.418438115 c 0,18,19
 338.668453989 320.409135921 338.668453989 320.409135921 315.599609375 313.200195312 c 1,20,-1
 108.599609375 313.200195312 l 1,21,22
 115.799804688 169.219723354 115.799804688 169.219723354 115.799804688 54 c 0,23,24
 115.799804688 26.9247792563 115.799804688 26.9247792563 108.106936086 13.4623896281 c 128,-1,25
 100.414067483 0 100.414067483 0 81.683059107 4.4408920985e-16 c 0,26,27
 49.9718685081 -1.06581410364e-14 49.9718685081 -1.06581410364e-14 43.8143451256 44.4797479721 c 0,28,29
 42.1660638086 56.3863430453 42.1660638086 56.3863430453 41.207971136 65.8318478032 c 128,-1,30
 40.2498784633 75.2773525611 40.2498784633 75.2773525611 40.0152839116 91.1037245238 c 128,-1,31
 39.7806893599 106.930096487 39.7806893599 106.930096487 39.7990044436 117.50268328 c 128,-1,32
 39.8173195272 128.075270073 39.8173195272 128.075270073 40.0087574199 146.379417896 c 128,-1,33
 40.2001953125 164.68356572 40.2001953125 164.68356572 40.2001953125 175.200195312 c 2,34,-1
 37.7998046875 576 l 1,35,36
 21.0024560748 574.413016791 21.0024560748 574.413016791 5.27383828915 579.272613152 c 0,37,38
 0.647774234557 580.7019062 0.647774234557 580.7019062 -3.53816790378 583.429375144 c 128,-1,39
 -7.72411004212 586.156844089 -7.72411004212 586.156844089 -10.953265406 589.732755547 c 128,-1,40
 -14.1824207698 593.308667006 -14.1824207698 593.308667006 -16.0912103849 598.738898648 c 128,-1,41
 -18 604.169130291 -18 604.169130291 -18 614.230655233 c 128,-1,42
 -18 624.292180176 -18 624.292180176 -8.29731663358 636.663140948 c 128,-1,43
 1.40536673285 649.034101721 1.40536673285 649.034101721 16.7998046875 651.599609375 c 1,44,45
 65.3996582031 651.599609375 65.3996582031 651.599609375 112.199951172 646.799804688 c 128,-1,46
 159.000244141 642 159.000244141 642 209.950236003 642 c 128,-1,47
 260.900227865 642 260.900227865 642 268.450113932 642.300048828 c 128,-1,48
 276 642.600097656 276 642.600097656 283.549886068 642.900146484 c 128,-1,49
 291.099772135 643.200195312 291.099772135 643.200195312 294.434489069 643.200195312 c 2,50,-1
 322.755935489 643.776994572 l 1,0,1
EndSplineSet
Substitution2: "'c2sc' Capitals to Small Capitals in Latin lookup 1 subtable" F.smcp
EndChar

StartChar: G
Encoding: 71 71 17
Width: 480
VWidth: 1200
Flags: W
HStem: -1.2002 81.6006<202.38 327.383> 280.8 87.6006<259.429 363.549> 576 87.5996<243.633 402.494>
VStem: 44.4004 82.7998<181.892 430.912> 373.2 82.7998<9.51454 49.2002 98.6958 278.563> 409.2 6<544.912 547.2>
LayerCount: 2
Fore
SplineSet
471.599609375 603.599609375 m 1,0,1
 471.87225993 601.691499184 471.87225993 601.691499184 473.536227621 593.705808186 c 128,-1,2
 475.200195312 585.720117188 475.200195312 585.720117188 475.200195312 575.11304061 c 128,-1,3
 475.200195312 564.505964033 475.200195312 564.505964033 462.702113769 552.252982017 c 128,-1,4
 450.204032226 540 450.204032226 540 436.302211425 540 c 128,-1,5
 422.400390624 540 422.400390624 540 415.200195312 547.200195312 c 1,6,-1
 415.200195312 544.799804688 l 1,7,8
 409.200195312 548.405095358 409.200195312 548.405095358 409.200195312 550.799804688 c 1,9,10
 368.880156253 576 368.880156253 576 327.625155909 576 c 128,-1,11
 286.370155564 576 286.370155564 576 254.251338782 560.016037178 c 0,12,13
 196.226174466 531.139753363 196.226174466 531.139753363 161.713184889 460.92046725 c 128,-1,14
 127.200195312 390.701181136 127.200195312 390.701181136 127.200195312 302.262519378 c 128,-1,15
 127.200195312 213.823857621 127.200195312 213.823857621 165.974992728 147.112124123 c 128,-1,16
 204.749790144 80.400390625 204.749790144 80.400390625 259.200195312 80.400390625 c 0,17,18
 291.181272666 80.400390625 291.181272666 80.400390625 317.295399547 95.3261796562 c 128,-1,19
 343.409526427 110.251968687 343.409526427 110.251968687 358.304860869 136.673820344 c 128,-1,20
 373.200195312 163.095672 373.200195312 163.095672 373.200195312 195.599609375 c 0,21,22
 373.200195312 280.799804688 373.200195312 280.799804688 343.200195312 280.799804688 c 2,23,-1
 313.200195312 280.799804688 l 2,24,25
 294.282640846 280.799804688 294.282640846 280.799804688 279.031974451 287.680063611 c 0,26,27
 250.799804688 300.416860344 250.799804688 300.416860344 250.799804688 317.004816337 c 128,-1,28
 250.799804688 333.592772331 250.799804688 333.592772331 260.953739877 349.307074044 c 128,-1,29
 271.107675066 365.021375758 271.107675066 365.021375758 288 368.400390625 c 1,30,31
 416.60879257 368.400390625 416.60879257 368.400390625 436.304396285 299.100301102 c 128,-1,32
 456 229.800211578 456 229.800211578 456 99.599609375 c 0,33,34
 456 41.4619244112 456 41.4619244112 449.53348263 20.7309622056 c 128,-1,35
 443.066965261 0 443.066965261 0 419.099504378 0 c 128,-1,36
 395.132043496 0 395.132043496 0 387.284336792 9.22111924172 c 128,-1,37
 379.436630088 18.4422384834 379.436630088 18.4422384834 376.799804688 49.2001953125 c 1,38,39
 352.669883609 27.7511341393 352.669883609 27.7511341393 316.23991556 13.2754694134 c 128,-1,40
 279.809947512 -1.2001953125 279.809947512 -1.2001953125 251.540864717 -1.2001953125 c 128,-1,41
 223.271781921 -1.2001953125 223.271781921 -1.2001953125 197.869100412 8.75329256306 c 128,-1,42
 172.466418902 18.7067804386 172.466418902 18.7067804386 152.089841257 36.2340377485 c 128,-1,43
 131.713263613 53.7612950584 131.713263613 53.7612950584 114.212155714 77.4716382718 c 0,44,45
 81.8839538538 121.269594722 81.8839538538 121.269594722 63.1421722394 183.910433052 c 128,-1,46
 44.400390625 246.551271381 44.400390625 246.551271381 44.400390625 317.244544911 c 128,-1,47
 44.400390625 387.937818442 44.400390625 387.937818442 67.2767223771 455.693804091 c 128,-1,48
 90.1530541293 523.44978974 90.1530541293 523.44978974 129.298930699 568.543546373 c 128,-1,49
 168.444807268 613.637303006 168.444807268 613.637303006 220.576588099 638.61845619 c 128,-1,50
 272.708368931 663.599609375 272.708368931 663.599609375 331.200195312 663.599609375 c 0,51,52
 411.600929042 663.599609375 411.600929042 663.599609375 471.599609375 603.599609375 c 1,0,1
EndSplineSet
Substitution2: "'c2sc' Capitals to Small Capitals in Latin lookup 1 subtable" G.smcp
EndChar

StartChar: H
Encoding: 72 72 18
Width: 468
VWidth: 1200
Flags: W
HStem: 292.8 76.7998<134.53 358.8> 630.4 20G<101.119 119.213 398.473 414.525>
VStem: 61.2002 74.3994<210.812 304.8 378.997 640.67> 358.8 74.4004<15.3263 295.2 370.8 658.339>
LayerCount: 2
Fore
SplineSet
430.799804688 639.599609375 m 1,0,-1
 433.200195312 272.400390625 l 2,1,2
 433.200195312 207.633308878 433.200195312 207.633308878 428.400390625 46.7998046875 c 1,3,4
 425.806288172 27.7799045975 425.806288172 27.7799045975 410.54744007 14.490049955 c 128,-1,5
 395.288591968 1.2001953125 395.288591968 1.2001953125 379.200195312 1.2001953125 c 0,6,7
 355.200195312 1.2001953125 355.200195312 1.2001953125 355.200195312 32.400390625 c 1,8,9
 358.799804688 144.014652023 358.799804688 144.014652023 358.799804688 225.599609375 c 2,10,-1
 358.799804688 295.200195312 l 1,11,12
 339.599609375 292.799804688 339.599609375 292.799804688 275.798719645 292.799804688 c 128,-1,13
 211.997829914 292.799804688 211.997829914 292.799804688 132 304.799804688 c 1,14,-1
 132 261.599609375 l 2,15,16
 132 146.704162759 132 146.704162759 144 43.2001953125 c 1,17,18
 140.376093311 25.0799245555 140.376093311 25.0799245555 125.789047356 10.7401575903 c 128,-1,19
 111.202001402 -3.599609375 111.202001402 -3.599609375 94.686395111 -3.599609375 c 128,-1,20
 78.1707888204 -3.599609375 78.1707888204 -3.599609375 68.400390625 19.2001953125 c 1,21,22
 54 131.195132021 54 131.195132021 54 208.39785898 c 128,-1,23
 54 285.600585939 54 285.600585939 56.400390625 367.200195309 c 2,24,-1
 61.2001953125 610.799804688 l 1,25,26
 65.6218272124 626.718111327 65.6218272124 626.718111327 79.9296451054 638.559250976 c 128,-1,27
 94.2374629984 650.400390625 94.2374629984 650.400390625 108 650.400390625 c 0,28,29
 130.425113685 650.400390625 130.425113685 650.400390625 135.599609375 622.799804688 c 1,30,-1
 132 382.799804688 l 1,31,32
 213.091956738 369.599609375 213.091956738 369.599609375 277.545978369 369.599609375 c 128,-1,33
 341.999999999 369.599609375 341.999999999 369.599609375 358.799804686 370.799804688 c 1,34,35
 356.400390625 459.599609375 356.400390625 459.599609375 356.400390625 625.200195312 c 1,36,37
 361.417886771 647.779438401 361.417886771 647.779438401 383.751561876 660.366816976 c 0,38,39
 393.746468973 666 393.746468973 666 403.200195312 666 c 0,40,41
 425.850318911 666 425.850318911 666 430.799804688 639.599609375 c 1,0,-1
EndSplineSet
Substitution2: "'c2sc' Capitals to Small Capitals in Latin lookup 1 subtable" H.smcp
EndChar

StartChar: I
Encoding: 73 73 19
Width: 235
VWidth: 1200
Flags: W
HStem: -1.2002 21G<90 112.937> 625.6 20G<124.831 144.753>
VStem: 86.4004 78<34.1946 640.25>
LayerCount: 2
Fore
SplineSet
86.400390625 276 m 1,0,-1
 80.400390625 612 l 1,1,2
 83.8813490437 625.924541906 83.8813490437 625.924541906 99.3756998507 635.762075641 c 128,-1,3
 114.870050658 645.599609375 114.870050658 645.599609375 134.792230467 645.599609375 c 128,-1,4
 154.714410277 645.599609375 154.714410277 645.599609375 159.599609375 622.799804688 c 1,5,6
 164.400390625 276 l 1,7,8
 164.400390625 128.201958508 164.400390625 128.201958508 156 37.2001953125 c 0,9,10
 154.27308101 21.6600321118 154.27308101 21.6600321118 137.873572437 10.2299183996 c 128,-1,11
 121.474063865 -1.2001953125 121.474063865 -1.2001953125 104.400390625 -1.2001953125 c 0,12,13
 75.599609375 -1.2001953125 75.599609375 -1.2001953125 75.599609375 27.599609375 c 1,14,15
 86.400390625 132.517358789 86.400390625 132.517358789 86.400390625 276 c 1,0,-1
EndSplineSet
Substitution2: "'c2sc' Capitals to Small Capitals in Latin lookup 1 subtable" I.smcp
EndChar

StartChar: J
Encoding: 74 74 20
Width: 370
VWidth: 1200
Flags: W
HStem: -3.59961 70.7998<151.738 240.44>
VStem: 34.7998 80.1557<103.086 215.615> 267.6 73.2002<99.0782 500.712>
LayerCount: 2
Fore
SplineSet
34.7998046875 183.599609375 m 1,0,1
 35.6841564227 198.631430162 35.6841564227 198.631430162 50.8420782113 211.515910394 c 128,-1,2
 66 224.400390625 66 224.400390625 83.6001654709 224.400390625 c 128,-1,3
 101.200330942 224.400390625 101.200330942 224.400390625 108 204 c 1,4,5
 109.206660599 195.151428376 109.206660599 195.151428376 110.477220049 182.977165842 c 128,-1,6
 111.7477795 170.802903308 111.7477795 170.802903308 112.555080538 163.791588144 c 128,-1,7
 113.362381576 156.780272979 113.362381576 156.780272979 114.955462351 147.474096646 c 0,8,9
 117.448696406 132.90956474 117.448696406 132.90956474 124.82052234 118.80180438 c 128,-1,10
 132.192348273 104.694044019 132.192348273 104.694044019 155.264902771 85.947119666 c 128,-1,11
 178.337457269 67.2001953125 178.337457269 67.2001953125 197.428289709 67.2001953125 c 128,-1,12
 216.519122149 67.2001953125 216.519122149 67.2001953125 228.643065282 76.1168619791 c 128,-1,13
 240.767008415 85.0335286458 240.767008415 85.0335286458 247.756837062 103.283528646 c 0,14,15
 262.723039804 142.359336342 262.723039804 142.359336342 265.161324589 182.329462337 c 128,-1,16
 267.599609375 222.299588332 267.599609375 222.299588332 267.599609375 262.406656707 c 128,-1,17
 267.599609375 302.513725082 267.599609375 302.513725082 264.388880451 352.949075732 c 128,-1,18
 261.178151527 403.384426381 261.178151527 403.384426381 257.479115765 442.107107129 c 128,-1,19
 253.780080003 480.829787878 253.780080003 480.829787878 247.626459797 541.461465868 c 128,-1,20
 241.47283959 602.093143859 241.47283959 602.093143859 238.799804688 631.200195312 c 1,21,22
 239.683995174 645.34508478 239.683995174 645.34508478 255.722575208 656.872737703 c 128,-1,23
 271.761155242 668.400390625 271.761155242 668.400390625 292.080840748 668.400390625 c 128,-1,24
 312.400526255 668.400390625 312.400526255 668.400390625 319.200195312 648 c 1,25,26
 340.799804688 359.092590063 340.799804688 359.092590063 340.799804688 284.742777017 c 128,-1,27
 340.799804688 210.392963972 340.799804688 210.392963972 339.082864923 181.309243543 c 128,-1,28
 337.365925158 152.225523115 337.365925158 152.225523115 329.124697578 113.987076769 c 128,-1,29
 320.883469998 75.7486304234 320.883469998 75.7486304234 305.962880547 52.6693685433 c 128,-1,30
 291.042291096 29.5901066633 291.042291096 29.5901066633 262.308853827 12.9952486441 c 128,-1,31
 233.575416558 -3.599609375 233.575416558 -3.599609375 201.021671094 -3.599609375 c 128,-1,32
 168.467925629 -3.599609375 168.467925629 -3.599609375 147.728695601 2.50578709901 c 128,-1,33
 126.989465573 8.61118357302 126.989465573 8.61118357302 112.136510302 18.4022622815 c 128,-1,34
 97.2835550321 28.1933409899 97.2835550321 28.1933409899 85.1537081284 43.459663739 c 0,35,36
 49.5743430952 88.2389650867 49.5743430952 88.2389650867 34.7998046875 183.599609375 c 1,0,1
EndSplineSet
Substitution2: "'c2sc' Capitals to Small Capitals in Latin lookup 1 subtable" J.smcp
EndChar

StartChar: K
Encoding: 75 75 21
Width: 523
VWidth: 1200
Flags: W
HStem: 642.4 20G<86.5103 108.033 423.72 446.876>
VStem: 72 82.2003<22.6672 256.539> 72 67.4776<3.95291 240.187> 433.2 70.7998<8.31713 56.534>
LayerCount: 2
Fore
SplineSet
72 36 m 2,0,-1
 73.2001953125 114 l 1,1,2
 73.2001953125 230.803602327 73.2001953125 230.803602327 61.2001953125 382.799804688 c 1,3,4
 54.6934932316 551.947587257 54.6934932316 551.947587257 46.7998046875 607.200195312 c 1,5,6
 46.7998046875 628.711591713 46.7998046875 628.711591713 61.9101536627 645.555991169 c 128,-1,7
 77.020502638 662.400390625 77.020502638 662.400390625 96 662.400390625 c 0,8,9
 120.066906585 662.400390625 120.066906585 662.400390625 128.400390625 632.400390625 c 1,10,11
 143.190020197 536.263284789 143.190020197 536.263284789 147.599609375 344.400390625 c 1,12,13
 235.735076409 425.033797959 235.735076409 425.033797959 285.794913336 484.140406103 c 128,-1,14
 335.854750263 543.247014247 335.854750263 543.247014247 392.400390625 637.200195312 c 0,15,16
 408.23975261 663.599609375 408.23975261 663.599609375 439.200195312 663.599609375 c 0,17,18
 454.551739477 663.599609375 454.551739477 663.599609375 465.476065051 655.287845201 c 128,-1,19
 476.21998 647.113346302 476.21998 647.113346302 476.21998 634.932405988 c 128,-1,20
 476.21998 622.751465674 476.21998 622.751465674 469.200195312 608.400390622 c 1,21,22
 412.883380762 514.539987841 412.883380762 514.539987841 374.538047168 464.382410172 c 128,-1,23
 336.192713574 414.224832502 336.192713574 414.224832502 300 372 c 1,24,25
 343.414900036 329.14901922 343.414900036 329.14901922 382.255784866 274.072944009 c 128,-1,26
 421.096669695 218.996868798 421.096669695 218.996868798 443.744540655 177.926730471 c 128,-1,27
 466.392411614 136.856592145 466.392411614 136.856592145 502.799804688 64.7998046875 c 0,28,29
 504 61.2001953125 504 61.2001953125 504 46.9471455374 c 128,-1,30
 504 32.6940957624 504 32.6940957624 492.029045875 17.5472431937 c 128,-1,31
 480.05809175 2.400390625 480.05809175 2.400390625 463.200195312 2.400390625 c 128,-1,32
 446.399414063 2.400390625 446.399414063 2.400390625 433.200195312 15.599609375 c 1,33,34
 363.78592059 154.42815882 363.78592059 154.42815882 337.322645561 192.923722724 c 0,35,36
 282.611470459 272.510906667 282.611470459 272.510906667 236.400390625 315.599609375 c 1,37,38
 180.428675799 261.962263505 180.428675799 261.962263505 152.400390625 241.200195312 c 1,39,40
 153.599609375 208.799804688 153.599609375 208.799804688 153.599609375 173.962936431 c 128,-1,41
 153.599609375 139.126068174 153.599609375 139.126068174 154.03820817 120.337108657 c 128,-1,42
 154.476806965 101.548149141 154.476806965 101.548149141 154.200255296 92.0176540061 c 128,-1,43
 153.923703626 82.487158871 153.923703626 82.487158871 152.778937944 65.8437936977 c 0,44,45
 151.196142414 42.8320591493 151.196142414 42.8320591493 139.477621175 22.0161272309 c 128,-1,46
 127.759099936 1.2001953125 127.759099936 1.2001953125 99.599609375 1.2001953125 c 0,47,48
 72 1.2001953125 72 1.2001953125 72 36 c 2,0,-1
EndSplineSet
Substitution2: "'c2sc' Capitals to Small Capitals in Latin lookup 1 subtable" K.smcp
EndChar

StartChar: L
Encoding: 76 76 22
Width: 372
VWidth: 1200
Flags: W
HStem: 1.2002 71.8292<106.117 296.839> 1.33263 86.267<127.649 331.916> 641.2 20G<72.4487 91.9252>
VStem: 27.5996 73.2002<75.6208 467.646> 37.2002 93.5996<397.478 651.263>
LayerCount: 2
Fore
SplineSet
152.723085177 1.2001953125 m 1,0,-1
 98.830208881 -0.314502951692 l 2,1,2
 85.6886155073 -0.314502951692 85.6886155073 -0.314502951692 63.931531527 1.80997489512 c 128,-1,3
 42.1744475468 3.93445274193 42.1744475468 3.93445274193 36 20.400390625 c 1,4,5
 27.599609375 111.124335925 27.599609375 111.124335925 27.599609375 217.200195312 c 1,6,-1
 37.2001953125 634.799804688 l 2,7,8
 37.2001953125 647.499880945 37.2001953125 647.499880945 49.955335618 654.350038129 c 128,-1,9
 62.7104759235 661.200195312 62.7104759235 661.200195312 82.1869477334 661.200195312 c 128,-1,10
 101.663419543 661.200195312 101.663419543 661.200195312 116.231612116 651.566276431 c 128,-1,11
 130.799804688 641.932357549 130.799804688 641.932357549 130.799804688 624 c 1,12,13
 128.074146458 592.109709985 128.074146458 592.109709985 114.436975573 455.025561204 c 128,-1,14
 100.799804688 317.941412423 100.799804688 317.941412423 100.799804688 231.570803868 c 128,-1,15
 100.799804688 145.200195312 100.799804688 145.200195312 108 73.2001953125 c 1,16,17
 111.415026006 73.0294162206 111.415026006 73.0294162206 127.14480206 73.0294162206 c 128,-1,18
 142.874578113 73.0294162206 142.874578113 73.0294162206 210.683804642 80.3145127978 c 128,-1,19
 278.493031171 87.599609375 278.493031171 87.599609375 297.442799726 87.599609375 c 0,20,21
 344.400390625 87.599609375 344.400390625 87.599609375 344.400390625 53.5450947259 c 0,22,23
 344.400390625 25.2162633735 344.400390625 25.2162633735 317.008184025 14.2002301155 c 0,24,25
 287.826220379 2.46442924526 287.826220379 2.46442924526 260.471194206 1.33262988128 c 0,26,27
 231.111345839 0.11788208691 231.111345839 0.11788208691 215.333197321 0.11788208691 c 2,28,29
 152.723085177 1.2001953125 l 1,0,-1
EndSplineSet
Substitution2: "'c2sc' Capitals to Small Capitals in Latin lookup 1 subtable" L.smcp
EndChar

StartChar: M
Encoding: 77 77 23
Width: 595
VWidth: 1200
Flags: W
HStem: -1.2002 21G<68.3999 90.1076 484.8 513.059> 309.6 85.2002<220.448 345.402> 646 20G<509.238 528.916>
VStem: 55.2002 81.5996<12.5895 367.2 511.837 608.333> 464.4 82.7998<549.653 653.649> 470.596 82.6044<10.6785 441.264> 471.6 68.3382<2.41745 255.503>
LayerCount: 2
Fore
SplineSet
553.200195312 214.66447007 m 2,0,-1
 554.610112991 110.59299045 l 2,1,2
 554.610112991 65.8128903044 554.610112991 65.8128903044 550.242048206 50.3535179189 c 128,-1,3
 545.873983421 34.8941455334 545.873983421 34.8941455334 539.937858757 22.8269601887 c 0,4,5
 528.118351033 -1.2001953125 528.118351033 -1.2001953125 498 -1.2001953125 c 0,6,7
 471.599609375 -1.2001953125 471.599609375 -1.2001953125 471.599609375 32.400390625 c 2,8,-1
 472.799804688 127.200195312 l 2,9,10
 472.799804688 187.673205436 472.799804688 187.673205436 470.595805966 298.195759176 c 128,-1,11
 468.391807244 408.718312916 468.391807244 408.718312916 468 442.799804688 c 1,12,13
 389.539855077 309.599609375 389.539855077 309.599609375 259.200195312 309.599609375 c 0,14,15
 218.457179617 309.599609375 218.457179617 309.599609375 189.991793941 323.289158754 c 128,-1,16
 161.526408265 336.978708132 161.526408265 336.978708132 136.799804688 367.200195312 c 1,17,-1
 136.799804688 158.400390625 l 2,18,19
 136.767829774 83.6666666657 136.767829774 83.6666666657 135.599609375 46.7998046875 c 1,20,21
 132.138949155 26.9004803464 132.138949155 26.9004803464 115.377318586 12.850142517 c 128,-1,22
 98.6156880158 -1.2001953125 98.6156880158 -1.2001953125 81.599609375 -1.2001953125 c 0,23,24
 55.2001953125 -1.2001953125 55.2001953125 -1.2001953125 55.2001953125 32.400390625 c 2,25,-1
 60 406.799804688 l 1,26,-1
 58.7998046875 567.599609375 l 2,27,28
 58.7998046875 584.466410472 58.7998046875 584.466410472 69.9923358621 600.63310758 c 128,-1,29
 81.1848670367 616.799804688 81.1848670367 616.799804688 99.9591824726 616.799804688 c 128,-1,30
 118.733497909 616.799804688 118.733497909 616.799804688 140.400390625 586.799804688 c 1,31,32
 161.172972579 469.084280584 161.172972579 469.084280584 208.611223459 426.050075757 c 0,33,34
 230.232369494 406.4361817 230.232369494 406.4361817 260.400390625 394.799804688 c 1,35,36
 393.050924185 394.799804688 393.050924185 394.799804688 445.63266433 554.607537391 c 0,37,38
 455.671748772 585.118572567 455.671748772 585.118572567 464.400390625 624 c 1,39,40
 469.902674433 640.508344176 469.902674433 640.508344176 485.589709152 653.254172088 c 128,-1,41
 501.276743871 666 501.276743871 666 517.200195312 666 c 0,42,43
 540.631944147 666 540.631944147 666 547.200195312 634.799804688 c 1,44,45
 547.676737451 571.90671151 547.676737451 571.90671151 550.438466382 417.730663534 c 128,-1,46
 553.200195312 263.554615558 553.200195312 263.554615558 553.200195312 214.66447007 c 2,0,-1
EndSplineSet
Substitution2: "'c2sc' Capitals to Small Capitals in Latin lookup 1 subtable" M.smcp
EndChar

StartChar: O
Encoding: 79 79 24
Width: 556
VWidth: 1200
Flags: W
HStem: 1.2002 90<224.944 357.852> 584.4 82.7998<205.994 372.233>
VStem: 42 80.4004<239.653 491.713> 436.8 84<204.506 501.046>
LayerCount: 2
Fore
SplineSet
185.133522808 643.441636147 m 128,-1,1
 236.827351449 667.200195312 236.827351449 667.200195312 305.853332211 667.200195312 c 128,-1,2
 374.879312973 667.200195312 374.879312973 667.200195312 425.119811967 622.347810651 c 0,3,4
 520.799804688 536.929155904 520.799804688 536.929155904 520.799804688 358.799804688 c 0,5,6
 520.799804688 270.877759898 520.799804688 270.877759898 494.940358209 192.159650278 c 128,-1,7
 469.080911731 113.441540659 469.080911731 113.441540659 414.659576687 59.0408705551 c 128,-1,8
 360.238241642 4.64020045128 360.238241642 4.64020045128 288 1.2001953125 c 1,9,10
 241.123087334 1.2001953125 241.123087334 1.2001953125 202.063545713 19.808571675 c 128,-1,11
 163.004004091 38.4169480375 163.004004091 38.4169480375 137.086763532 69.9918840542 c 0,12,13
 82.6051018889 136.366812225 82.6051018889 136.366812225 62.3025509445 219.333945311 c 128,-1,14
 42 302.301078396 42 302.301078396 42 366.450011238 c 128,-1,15
 42 430.598944079 42 430.598944079 57.1087120172 483.241715492 c 128,-1,16
 72.2174240345 535.884486906 72.2174240345 535.884486906 102.828559101 577.783781943 c 128,-1,0
 133.439694168 619.683076981 133.439694168 619.683076981 185.133522808 643.441636147 c 128,-1,1
421.200195312 220.799804688 m 0,17,18
 436.799804688 294.347038703 436.799804688 294.347038703 436.799804688 353.57524486 c 0,19,20
 436.799804688 456.724266345 436.799804688 456.724266345 409.034753809 516.524701523 c 0,21,22
 377.520401853 584.400390625 377.520401853 584.400390625 298.799804688 584.400390625 c 0,23,24
 165.334347301 584.400390625 165.334347301 584.400390625 131.845211827 457.131609809 c 0,25,26
 122.400390625 421.238450361 122.400390625 421.238450361 122.400390625 387.133734472 c 128,-1,27
 122.400390625 353.029018583 122.400390625 353.029018583 126.291774072 321.117583378 c 128,-1,28
 130.18315752 289.206148172 130.18315752 289.206148172 142.009718115 247.308424435 c 128,-1,29
 153.83627871 205.410700698 153.83627871 205.410700698 171.910867822 171.780052128 c 128,-1,30
 189.985456934 138.149403557 189.985456934 138.149403557 222.188811865 114.674799435 c 128,-1,31
 254.392166796 91.2001953125 254.392166796 91.2001953125 298.598707658 91.2001953125 c 128,-1,32
 342.80524852 91.2001953125 342.80524852 91.2001953125 376.663320997 131.972695864 c 128,-1,33
 410.521393473 172.745196415 410.521393473 172.745196415 421.200195312 220.799804688 c 0,17,18
EndSplineSet
Substitution2: "'c2sc' Capitals to Small Capitals in Latin lookup 1 subtable" O.smcp
EndChar

StartChar: P
Encoding: 80 80 25
Width: 481
VWidth: 1200
Flags: W
HStem: 302.4 72<135.6 320.024> 578.4 82.7998<131.071 346.176>
VStem: 53.6782 81.9214<55.3066 303.6 376.88 575.516> 62.6778 77.204<3.73148 285.022> 391.2 85.2002<432.84 545.149>
LayerCount: 2
Fore
SplineSet
51.599609375 361.200195312 m 1,0,-1
 49.2001953125 424.799804688 l 1,1,2
 49.2001953125 488.416664018 49.2001953125 488.416664018 56.400390625 608.400390625 c 1,3,4
 64.9753116111 642.70007457 64.9753116111 642.70007457 107.746208277 651.950134941 c 128,-1,5
 150.517104942 661.200195312 150.517104942 661.200195312 201.827643366 661.200195312 c 128,-1,6
 253.138181789 661.200195312 253.138181789 661.200195312 297.064625758 654.777161176 c 128,-1,7
 340.991069726 648.354127041 340.991069726 648.354127041 383.71036814 633.085555498 c 128,-1,8
 426.429666553 617.816983955 426.429666553 617.816983955 451.415028589 586.902130659 c 128,-1,9
 476.400390625 555.987277364 476.400390625 555.987277364 476.400390625 510.660706449 c 128,-1,10
 476.400390625 465.334135535 476.400390625 465.334135535 457.47986232 428.09344077 c 0,11,12
 423.667078261 361.540776386 423.667078261 361.540776386 343.613154949 331.970583506 c 128,-1,13
 263.559231636 302.400390625 263.559231636 302.400390625 170.400390625 302.400390625 c 0,14,15
 146.400390625 302.400390625 146.400390625 302.400390625 135.599609375 303.599609375 c 1,16,17
 139.200195312 112.800781356 139.200195312 112.800781356 139.200195312 106.18310091 c 128,-1,18
 139.200195312 99.5654204632 139.200195312 99.5654204632 139.685899855 87.4968980048 c 128,-1,19
 140.171604398 75.4283755463 140.171604398 75.4283755463 140.257308621 67.1312850765 c 128,-1,20
 140.343012845 58.8341946067 140.343012845 58.8341946067 139.88178178 47.6276833546 c 0,21,22
 137.912823327 -0.212015081184 137.912823327 -0.212015081184 103.888234816 -0.212015081184 c 0,23,24
 93.7434032207 -0.212015081184 93.7434032207 -0.212015081184 80.400390625 3.599609375 c 128,-1,25
 66.9572189288 7.58296644732 66.9572189288 7.58296644732 62.677787438 41.8477563059 c 128,-1,26
 58.3983559472 76.1125461644 58.3983559472 76.1125461644 56.7150294203 101.369045231 c 128,-1,27
 55.0317028935 126.625544298 55.0317028935 126.625544298 54.4443495656 157.880157575 c 128,-1,28
 53.8569962378 189.134770852 53.8569962378 189.134770852 53.6781990632 215.197568828 c 128,-1,29
 53.4994018886 241.260366804 53.4994018886 241.260366804 53.3596647989 270.449018043 c 128,-1,30
 53.2199277092 299.637669282 53.2199277092 299.637669282 52.7998046875 315.599609375 c 1,31,32
 39.599609375 326.915158735 39.599609375 326.915158735 39.599609375 337.056591837 c 128,-1,33
 39.599609375 347.198024939 39.599609375 347.198024939 51.599609375 361.200195312 c 1,0,-1
132 577.200195312 m 1,34,35
 128.400390625 523.214841366 128.400390625 523.214841366 128.400390625 481.195313288 c 128,-1,36
 128.400390625 439.17578521 128.400390625 439.17578521 130.799804688 379.200195312 c 1,37,38
 178.790040667 374.400390625 178.790040667 374.400390625 209.000464817 374.400390625 c 128,-1,39
 239.210888967 374.400390625 239.210888967 374.400390625 263.217313269 377.459969552 c 0,40,41
 391.200195312 393.771175421 391.200195312 393.771175421 391.200195312 512.400390625 c 0,42,43
 391.200195312 552.988480902 391.200195312 552.988480902 295.942533893 569.618937635 c 0,44,45
 245.643213252 578.400390625 245.643213252 578.400390625 196.621411313 578.400390625 c 128,-1,46
 147.599609375 578.400390625 147.599609375 578.400390625 132 577.200195312 c 1,34,35
EndSplineSet
Substitution2: "'c2sc' Capitals to Small Capitals in Latin lookup 1 subtable" P.smcp
EndChar

StartChar: Q
Encoding: 81 81 26
Width: 655
VWidth: 1200
Flags: W
HStem: 586.8 78<225.82 396.969>
VStem: 49.2002 82.7998<204.141 449.279> 531.6 73.2002<199.534 430.433>
LayerCount: 2
Fore
SplineSet
307.200195312 -3.599609375 m 1,0,1
 229.093845673 2.18604615382 229.093845673 2.18604615382 169.173607902 49.4531961624 c 128,-1,2
 109.253370132 96.720346171 109.253370132 96.720346171 79.2267827221 166.546803838 c 128,-1,3
 49.2001953125 236.373261504 49.2001953125 236.373261504 49.2001953125 306.752231555 c 128,-1,4
 49.2001953125 377.131201605 49.2001953125 377.131201605 67.153434178 438.205186026 c 128,-1,5
 85.1066730435 499.279170447 85.1066730435 499.279170447 117.759300807 550.294783457 c 128,-1,6
 150.411928571 601.310396466 150.411928571 601.310396466 202.528220555 633.055100577 c 128,-1,7
 254.644512539 664.799804688 254.644512539 664.799804688 319.391801471 664.799804688 c 128,-1,8
 384.139090402 664.799804688 384.139090402 664.799804688 439.866768974 635.248710269 c 128,-1,9
 495.594447545 605.697615851 495.594447545 605.697615851 530.951590402 556.651054746 c 0,10,11
 604.799804688 454.21062371 604.799804688 454.21062371 604.799804688 319.200195312 c 0,12,13
 604.799804688 270.536417527 604.799804688 270.536417527 592.496109816 225.206627058 c 128,-1,14
 580.192414945 179.87683659 580.192414945 179.87683659 544.799804688 127.200195312 c 1,15,16
 547.130578333 124.432453473 547.130578333 124.432453473 575.965191511 93.730694654 c 128,-1,17
 604.799804688 63.0289358348 604.799804688 63.0289358348 604.799804688 47.8523813876 c 128,-1,18
 604.799804688 32.6758269404 604.799804688 32.6758269404 598.498467724 22.0691032195 c 0,19,20
 584.674435457 -1.2001953125 584.674435457 -1.2001953125 564.41837561 -1.2001953125 c 128,-1,21
 544.162315764 -1.2001953125 544.162315764 -1.2001953125 529.817890078 12.8010161625 c 128,-1,22
 515.473464393 26.8022276375 515.473464393 26.8022276375 510.054910475 32.5660036375 c 128,-1,23
 504.636356556 38.3297796374 504.636356556 38.3297796374 493.529503588 52.0391682375 c 128,-1,24
 482.422650619 65.7485568376 482.422650619 65.7485568376 481.200195312 67.2001953125 c 1,25,26
 410.120402449 6.52256423127 410.120402449 6.52256423127 307.200195312 -3.599609375 c 1,0,1
319.200195312 72 m 1,27,28
 361.449476302 75.9300355059 361.449476302 75.9300355059 388.753437244 84.2039426601 c 128,-1,29
 416.057398186 92.4778498144 416.057398186 92.4778498144 444 112.799804688 c 1,30,-1
 364.799804688 204 l 2,31,32
 333.979039557 240.26076518 333.979039557 240.26076518 333.979039557 258.369825226 c 128,-1,33
 333.979039557 276.627692008 333.979039557 276.627692008 347.519198574 288.91394366 c 128,-1,34
 361.059357592 301.200195312 361.059357592 301.200195312 375.219041833 301.200195312 c 128,-1,35
 389.378726075 301.200195312 389.378726075 301.200195312 402.701645507 292.161553058 c 128,-1,36
 416.02456494 283.122910803 416.02456494 283.122910803 430.665159179 266.952423504 c 128,-1,37
 445.305753418 250.781936205 445.305753418 250.781936205 456.711286133 236.711912433 c 128,-1,38
 468.116818847 222.64188866 468.116818847 222.64188866 482.082846679 204.014736004 c 128,-1,39
 496.048874512 185.387583348 496.048874512 185.387583348 500.400390625 180 c 1,40,41
 531.599609375 236.89462587 531.599609375 236.89462587 531.599609375 306.759967171 c 128,-1,42
 531.599609375 376.625308473 531.599609375 376.625308473 506.465327265 439.656245738 c 128,-1,43
 481.331045155 502.687183004 481.331045155 502.687183004 428.334477423 544.743493846 c 128,-1,44
 375.337909691 586.799804688 375.337909691 586.799804688 304.799804688 586.799804688 c 0,45,46
 258.499569186 586.799804688 258.499569186 586.799804688 223.508269669 563.789358937 c 128,-1,47
 188.516970152 540.778913187 188.516970152 540.778913187 169.416779159 502.766427196 c 0,48,49
 132 428.300952263 132 428.300952263 132 331.993107311 c 128,-1,50
 132 235.685262358 132 235.685262358 173.504888357 160.76652037 c 0,51,52
 194.63179708 122.631219053 194.63179708 122.631219053 232.076624094 98.8276416171 c 128,-1,53
 269.521451108 75.0240641817 269.521451108 75.0240641817 319.200195312 72 c 1,27,28
EndSplineSet
Substitution2: "'c2sc' Capitals to Small Capitals in Latin lookup 1 subtable" Q.smcp
EndChar

StartChar: R
Encoding: 82 82 27
Width: 454
VWidth: 1200
Flags: W
HStem: 583.2 80.3994<117.623 304.497>
VStem: 39.5996 75.6006<4.42188 235.2 343.2 575.011> 349.2 76.7998<451.37 546.147>
LayerCount: 2
Fore
SplineSet
118.799804688 43.2001953125 m 1,0,1
 115.224879794 24.4309304354 115.224879794 24.4309304354 100.71776178 10.4156605302 c 128,-1,2
 86.2106437651 -3.599609375 86.2106437651 -3.599609375 68.7054195388 -3.599609375 c 128,-1,3
 51.2001953125 -3.599609375 51.2001953125 -3.599609375 43.2001953125 20.400390625 c 1,4,5
 39.599609375 151.799804688 39.599609375 151.799804688 39.599609375 283.200195312 c 2,6,-1
 39.599609375 499.200195312 l 1,7,8
 37.2001953125 523.209967299 37.2001953125 523.209967299 37.2001953125 535.200195312 c 0,9,10
 37.2001953125 572.774579228 37.2001953125 572.774579228 55.1273311947 599.474860698 c 128,-1,11
 73.0544670769 626.175142168 73.0544670769 626.175142168 103.535174909 639.337334126 c 0,12,13
 159.721205744 663.599609375 159.721205744 663.599609375 231.599609375 663.599609375 c 0,14,15
 266.582917234 663.599609375 266.582917234 663.599609375 310.545794413 646.170060349 c 128,-1,16
 354.508671591 628.740511323 354.508671591 628.740511323 390.254335796 592.629418818 c 128,-1,17
 426 556.518326312 426 556.518326312 426 513.786068985 c 128,-1,18
 426 471.053811658 426 471.053811658 386.699777957 423.344492568 c 128,-1,19
 347.399555913 375.635173477 347.399555913 375.635173477 292.900156939 340.254791287 c 128,-1,20
 238.400757965 304.874409096 238.400757965 304.874409096 184.799804688 286.799804688 c 1,21,22
 261.055096077 234.312940591 261.055096077 234.312940591 325.895173573 169.239777663 c 128,-1,23
 390.735251069 104.166614735 390.735251069 104.166614735 415.200195312 46.7998046875 c 0,24,25
 416.400390625 43.2001953125 416.400390625 43.2001953125 416.400390625 31.454080254 c 128,-1,26
 416.400390625 19.7079651954 416.400390625 19.7079651954 403.775289748 8.05417791022 c 128,-1,27
 391.15018887 -3.599609375 391.15018887 -3.599609375 372.308607404 -3.599609375 c 128,-1,28
 353.467025937 -3.599609375 353.467025937 -3.599609375 339.599609375 12 c 1,29,30
 317.16190102 66.8488587066 317.16190102 66.8488587066 254.031117394 125.847520314 c 128,-1,31
 190.900333769 184.846181922 190.900333769 184.846181922 112.799804688 235.200195312 c 1,32,-1
 118.799804688 43.2001953125 l 1,0,1
116.400390625 568.799804688 m 1,33,34
 115.200195312 492 115.200195312 492 115.200195312 343.200195312 c 1,35,36
 120.175358823 343.785382576 120.175358823 343.785382576 129.034019726 344.395084718 c 0,37,38
 174.327473422 347.512431242 174.327473422 347.512431242 227.611599786 377.61868413 c 128,-1,39
 280.89572615 407.724937018 280.89572615 407.724937018 315.047960731 439.036142687 c 128,-1,40
 349.200195312 470.347348357 349.200195312 470.347348357 349.200195312 495.599609375 c 0,41,42
 349.200195312 539.048588774 349.200195312 539.048588774 305.283665461 561.124392043 c 128,-1,43
 261.367135611 583.200195312 261.367135611 583.200195312 205.082920876 583.200195312 c 128,-1,44
 148.798706141 583.200195312 148.798706141 583.200195312 116.400390625 568.799804688 c 1,33,34
EndSplineSet
Substitution2: "'c2sc' Capitals to Small Capitals in Latin lookup 1 subtable" R.smcp
EndChar

StartChar: S
Encoding: 83 83 28
Width: 459
VWidth: 1200
Flags: W
HStem: 0 84<162.992 317.069> 48.0775 92.3229<48.3533 96> 591.6 70.8008<165.98 334.211>
VStem: 33.5996 85.2002<452.196 552.21> 360 80.4004<127.074 281.405>
LayerCount: 2
Fore
SplineSet
86.400390625 140.400390625 m 1,0,-1
 96 139.200195312 l 1,1,2
 191.998301667 84 191.998301667 84 254.400390625 84 c 0,3,4
 294.758902959 84 294.758902959 84 327.37945148 114.476600838 c 128,-1,5
 360 144.953201676 360 144.953201676 360 212.432885402 c 128,-1,6
 360 279.912569128 360 279.912569128 309.742656862 302.15059622 c 128,-1,7
 259.485313724 324.388623313 259.485313724 324.388623313 212.842540895 332.333910658 c 0,8,9
 133.282736417 345.886396272 133.282736417 345.886396272 83.4411728962 381.532793169 c 128,-1,10
 33.599609375 417.179190067 33.599609375 417.179190067 33.599609375 504 c 0,11,12
 33.599609375 555.66384653 33.599609375 555.66384653 70.1075216129 592.916124393 c 0,13,14
 138.203370755 662.400390625 138.203370755 662.400390625 266.400390625 662.400390625 c 0,15,16
 315.045176887 662.400390625 315.045176887 662.400390625 353.724161451 650.050784992 c 128,-1,17
 392.403146016 637.701179358 392.403146016 637.701179358 407.40176832 617.221025689 c 128,-1,18
 422.400390625 596.740872019 422.400390625 596.740872019 422.400390625 583.994560032 c 128,-1,19
 422.400390625 571.248248046 422.400390625 571.248248046 417.950294282 563.611948079 c 0,20,21
 408.386253938 547.200195312 408.386253938 547.200195312 391.609983523 547.200195312 c 128,-1,22
 374.833713108 547.200195312 374.833713108 547.200195312 355.750203451 558.300048828 c 0,23,24
 298.499674479 591.599609375 298.499674479 591.599609375 252.00595677 591.599609375 c 128,-1,25
 205.51223906 591.599609375 205.51223906 591.599609375 162.156021874 567.729675486 c 128,-1,26
 118.799804688 543.859741596 118.799804688 543.859741596 118.799804688 506.400390625 c 0,27,28
 118.799804688 453.963529401 118.799804688 453.963529401 168.625193362 434.689042261 c 128,-1,29
 218.450582036 415.414555121 218.450582036 415.414555121 264.100367312 406.557137694 c 0,30,31
 342.281187627 391.387730955 342.281187627 391.387730955 391.340789126 352.275567011 c 128,-1,32
 440.400390625 313.163403067 440.400390625 313.163403067 440.400390625 223.200195312 c 0,33,34
 440.400390625 165.099944765 440.400390625 165.099944765 412.808429558 114.074953639 c 128,-1,35
 385.216468491 63.0499625135 385.216468491 63.0499625135 334.792156379 31.5249812567 c 128,-1,36
 284.367844267 0 284.367844267 0 223.200195312 0 c 0,37,38
 185.828364441 0 185.828364441 0 159.357295336 11.280818505 c 128,-1,39
 132.886226231 22.56163701 132.886226231 22.56163701 121.574905727 28.15669231 c 128,-1,40
 110.263585222 33.7517476099 110.263585222 33.7517476099 84.7291177105 48.077510815 c 128,-1,41
 59.1946501989 62.4032740201 59.1946501989 62.4032740201 48 68.400390625 c 1,42,43
 34.7998046875 79.9502258115 34.7998046875 79.9502258115 34.7998046875 93.8204032871 c 128,-1,44
 34.7998046875 107.690580763 34.7998046875 107.690580763 42.1589541545 118.022742847 c 0,45,46
 58.0975789435 140.400390625 58.0975789435 140.400390625 86.400390625 140.400390625 c 1,0,-1
EndSplineSet
Substitution2: "'c2sc' Capitals to Small Capitals in Latin lookup 1 subtable" S.smcp
EndChar

StartChar: T
Encoding: 84 84 29
Width: 468
VWidth: 1200
Flags: W
HStem: 592.8 72<275.321 473.543>
VStem: 199.2 72<5.54437 580.751>
LayerCount: 2
Fore
SplineSet
266.400390625 387.599609375 m 1,0,-1
 271.200195312 39.599609375 l 1,1,2
 268.611650427 21.4833055455 268.611650427 21.4833055455 254.102760333 8.94184808524 c 128,-1,3
 239.593870239 -3.599609375 239.593870239 -3.599609375 224.400390625 -3.599609375 c 0,4,5
 199.200195312 -3.599609375 199.200195312 -3.599609375 199.200195312 28.7998046875 c 2,6,-1
 193.200195312 352.799804688 l 1,7,8
 193.200195312 467.607530217 193.200195312 467.607530217 202.799804688 584.400390625 c 1,9,10
 116.412107382 577.200195312 116.412107382 577.200195312 34.7998046875 577.200195312 c 0,11,12
 1.2001953125 577.200195312 1.2001953125 577.200195312 1.2001953125 603.599609375 c 0,13,14
 1.2001953125 618.670282595 1.2001953125 618.670282595 13.6941605183 632.634161242 c 128,-1,15
 26.1881257242 646.598039889 26.1881257242 646.598039889 44.400390625 649.200195312 c 1,16,17
 116.700317383 649.200195312 116.700317383 649.200195312 249.300170899 657 c 128,-1,18
 381.900024414 664.799804688 381.900024414 664.799804688 452.400390625 664.799804688 c 1,19,20
 481.200195312 656.329030597 481.200195312 656.329030597 481.200195312 636 c 0,21,22
 481.200195312 622.267310292 481.200195312 622.267310292 469.216662966 609.305367939 c 128,-1,23
 457.233130621 596.343425585 457.233130621 596.343425585 440.400390625 592.799804688 c 1,24,25
 366.012210019 592.799804688 366.012210019 592.799804688 272.400390625 589.200195312 c 1,26,27
 266.400390625 493.216061871 266.400390625 493.216061871 266.400390625 387.599609375 c 1,0,-1
EndSplineSet
Substitution2: "'c2sc' Capitals to Small Capitals in Latin lookup 1 subtable" T.smcp
EndChar

StartChar: U
Encoding: 85 85 30
Width: 550
VWidth: 1200
Flags: W
HStem: 0 78<241.804 355.228> 632.8 20G<92.4778 110.9 455.703 472.861>
VStem: 34.7998 78<256.437 612.163> 44.2472 76.4542<237.23 386.762 390.144 402.3 405.566 636.621> 430.8 79.646<185.55 610.895>
LayerCount: 2
Fore
SplineSet
510 453.599609375 m 2,0,-1
 510.445796208 377.686789254 l 2,1,2
 510.445796208 289.549048991 510.445796208 289.549048991 505.262577318 263.153265979 c 128,-1,3
 500.079358427 236.757482967 500.079358427 236.757482967 492.37506487 199.65486018 c 128,-1,4
 484.670771312 162.552237393 484.670771312 162.552237393 457.200195312 120 c 1,5,6
 425.943076769 62.5552652253 425.943076769 62.5552652253 376.894298647 31.2776326127 c 128,-1,7
 327.845520524 0 327.845520524 0 277.300772159 0 c 128,-1,8
 226.756023793 0 226.756023793 0 173.465373477 44.5681358095 c 128,-1,9
 120.174723161 89.136271619 120.174723161 89.136271619 86.9346916269 153.431864191 c 128,-1,10
 53.6946600928 217.727456763 53.6946600928 217.727456763 44.2472323901 276.265095569 c 128,-1,11
 34.7998046875 334.802734375 34.7998046875 334.802734375 34.7998046875 388.439296881 c 128,-1,12
 34.7998046875 442.075859387 34.7998046875 442.075859387 49.2001953125 612 c 1,13,14
 55.5726884895 628.387257771 55.5726884895 628.387257771 70.4643818425 640.59353123 c 128,-1,15
 85.3560751955 652.799804688 85.3560751955 652.799804688 99.599609375 652.799804688 c 0,16,17
 122.199517163 652.799804688 122.199517163 652.799804688 127.200195312 622.799804688 c 1,18,19
 112.799804688 455.756210973 112.799804688 455.756210973 112.799804688 403.918378913 c 128,-1,20
 112.799804688 352.080546853 112.799804688 352.080546853 120.701392968 307.138230163 c 128,-1,21
 128.602981248 262.195913473 128.602981248 262.195913473 155.222176212 208.448880712 c 128,-1,22
 181.841371175 154.701847951 181.841371175 154.701847951 221.577953997 116.350923975 c 128,-1,23
 261.314536819 78 261.314536819 78 300 78 c 0,24,25
 362.969266756 78 362.969266756 78 408 176.400390625 c 1,26,27
 426.874161846 211.317129245 426.874161846 211.317129245 429.410853494 284.923023457 c 0,28,29
 430.016308856 302.491214443 430.016308856 302.491214443 430.799804688 313.200195312 c 2,30,-1
 433.200195312 445.200195312 l 1,31,32
 433.200195312 539.596607279 433.200195312 539.596607279 418.799804688 613.200195312 c 1,33,34
 418.799804688 633.700043974 418.799804688 633.700043974 432.962173979 649.850021987 c 128,-1,35
 447.124543269 666 447.124543269 666 464.282164216 666 c 128,-1,36
 481.439785163 666 481.439785163 666 493.200195312 649.200195312 c 1,37,38
 510 565.20241474 510 565.20241474 510 453.599609375 c 2,0,-1
EndSplineSet
Substitution2: "'c2sc' Capitals to Small Capitals in Latin lookup 1 subtable" U.smcp
EndChar

StartChar: V
Encoding: 86 86 31
Width: 562
VWidth: 1200
Flags: W
HStem: 642.4 20G<513.789 538.9>
VStem: 61.2002 81.5996<563.215 622.879> 459.938 101.662<582 624.999>
LayerCount: 2
Fore
SplineSet
123.253860338 434.569357563 m 128,-1,1
 78.3479655089 533.668444035 78.3479655089 533.668444035 69.7740804107 552.434563914 c 128,-1,2
 61.2001953125 571.200683793 61.2001953125 571.200683793 61.2001953125 586.200439553 c 128,-1,3
 61.2001953125 601.200195313 61.2001953125 601.200195313 76.0573160255 616.800292969 c 128,-1,4
 90.9144367385 632.400390625 90.9144367385 632.400390625 109.875618903 632.400390625 c 128,-1,5
 128.836801067 632.400390625 128.836801067 632.400390625 142.799804688 613.200195312 c 1,6,7
 160.662120898 571.852116496 160.662120898 571.852116496 190.889941829 502.876873255 c 0,8,9
 292.403485767 271.23856227 292.403485767 271.23856227 334.799804688 164.400390625 c 1,10,11
 340.560086325 185.713307675 340.560086325 185.713307675 352.08720568 233.251744925 c 128,-1,12
 363.614325036 280.790182175 363.614325036 280.790182175 374.073292225 322.054571128 c 128,-1,13
 384.532259414 363.318960082 384.532259414 363.318960082 398.897650059 415.651662928 c 0,14,15
 425.097058431 511.095350259 425.097058431 511.095350259 459.938036996 586.747870442 c 128,-1,16
 494.779015561 662.400390625 494.779015561 662.400390625 532.799804688 662.400390625 c 0,17,18
 545.000018994 662.400390625 545.000018994 662.400390625 553.299814184 655.285922057 c 128,-1,19
 561.599609375 648.171453489 561.599609375 648.171453489 561.599609375 635.845258004 c 128,-1,20
 561.599609375 623.519062519 561.599609375 623.519062519 549.82594254 602.18909432 c 128,-1,21
 538.052275704 580.859126121 538.052275704 580.859126121 518.097834591 519.124764688 c 128,-1,22
 498.143393477 457.390403255 498.143393477 457.390403255 492 442.799804688 c 1,23,24
 480.320470501 402.098012515 480.320470501 402.098012515 443.365583726 266.500562655 c 128,-1,25
 406.410696952 130.903112794 406.410696952 130.903112794 372 31.2001953125 c 0,26,27
 366.720345262 15.3612310984 366.720345262 15.3612310984 352.884160645 4.6806155492 c 128,-1,28
 339.047976028 -6 339.047976028 -6 321.324118222 -6 c 128,-1,29
 303.600260416 -6 303.600260416 -6 295.200195312 19.2001953125 c 0,30,31
 253.823560224 140.206220853 253.823560224 140.206220853 210.991657695 237.838245972 c 128,-1,0
 168.159755166 335.470271092 168.159755166 335.470271092 123.253860338 434.569357563 c 128,-1,1
EndSplineSet
Substitution2: "'c2sc' Capitals to Small Capitals in Latin lookup 1 subtable" V.smcp
EndChar

StartChar: W
Encoding: 87 87 32
Width: 616
VWidth: 1200
Flags: W
HStem: 631.6 20G<68.056 88.4118 567.179 585.866>
VStem: 28.7998 78<386.308 641.277> 526.8 76.7998<435.622 657.173>
LayerCount: 2
Fore
SplineSet
28.7998046875 598.799804688 m 1,0,1
 28.7998046875 619.086984005 28.7998046875 619.086984005 44.0559606131 635.34329669 c 128,-1,2
 59.3121165387 651.599609375 59.3121165387 651.599609375 76.7998046875 651.599609375 c 0,3,4
 100.023785537 651.599609375 100.023785537 651.599609375 106.799804688 622.799804688 c 1,5,6
 133.76323019 296.793099804 133.76323019 296.793099804 160.799804688 142.799804688 c 1,7,8
 174.280510764 166.016593192 174.280510764 166.016593192 204.437542885 239.404132022 c 128,-1,9
 234.594575006 312.791670852 234.594575006 312.791670852 261.96252222 359.79573777 c 128,-1,10
 289.330469434 406.799804688 289.330469434 406.799804688 314.400390625 406.799804688 c 0,11,12
 330.600097656 406.799804688 330.600097656 406.799804688 343.200195312 388.799804688 c 1,13,14
 406.162820897 209.985538112 406.162820897 209.985538112 451.200195312 136.799804688 c 1,15,16
 453.457393444 148.420391615 453.457393444 148.420391615 463.038543058 197.433997981 c 128,-1,17
 472.619692671 246.447604346 472.619692671 246.447604346 475.431702303 261.206956991 c 128,-1,18
 478.243711935 275.966309637 478.243711935 275.966309637 486.24151547 318.985637537 c 128,-1,19
 494.239319005 362.004965438 494.239319005 362.004965438 497.369141268 381.900850424 c 0,20,21
 520.68907977 530.142755311 520.68907977 530.142755311 526.799804688 625.200195312 c 1,22,23
 531.317495536 642.367273474 531.317495536 642.367273474 545.438250393 654.783734393 c 128,-1,24
 559.559005251 667.200195312 559.559005251 667.200195312 574.799804688 667.200195312 c 0,25,26
 596.933093416 667.200195312 596.933093416 667.200195312 603.599609375 637.200195312 c 1,27,28
 598.083946675 542.330617326 598.083946675 542.330617326 587.969245815 475.575912816 c 128,-1,29
 577.854544955 408.821208307 577.854544955 408.821208307 573.677326894 379.956753012 c 128,-1,30
 569.500108832 351.092297717 569.500108832 351.092297717 557.16329412 288.516859871 c 128,-1,31
 544.826479407 225.941422026 544.826479407 225.941422026 541.595933399 209.311863024 c 128,-1,32
 538.365387391 192.682304023 538.365387391 192.682304023 522.62588295 117.787905789 c 128,-1,33
 506.886378509 42.8935075558 506.886378509 42.8935075558 505.200195312 34.7998046875 c 1,34,35
 490.869786011 0 490.869786011 0 463.200195312 0 c 0,36,37
 447.599609375 0 447.599609375 0 435.599609375 12 c 1,38,39
 388.506711838 75.3948804248 388.506711838 75.3948804248 348.816764914 168.272873105 c 128,-1,40
 309.126817989 261.150865785 309.126817989 261.150865785 298.799804688 283.200195312 c 1,41,42
 274.422471825 239.320797776 274.422471825 239.320797776 236.915088718 152.00299259 c 128,-1,43
 199.40770561 64.6851874039 199.40770561 64.6851874039 176.400390625 22.7998046875 c 1,44,45
 157.744931585 0 157.744931585 0 135.599609375 0 c 0,46,47
 90.2571225286 0 90.2571225286 0 65.5009750944 245.073661195 c 0,48,49
 65.0240144499 249.795336557 65.0240144499 249.795336557 54.8492048614 339.631412814 c 128,-1,50
 44.6743952729 429.46748907 44.6743952729 429.46748907 28.7998046875 598.799804688 c 1,0,1
EndSplineSet
Substitution2: "'c2sc' Capitals to Small Capitals in Latin lookup 1 subtable" W.smcp
EndChar

StartChar: X
Encoding: 88 88 33
Width: 601
VWidth: 1200
Flags: W
HStem: 642.4 20G<529.624 550.987>
LayerCount: 2
Fore
SplineSet
62.552873727 -4.7998046875 m 0,0,1
 28.7998046875 -4.7998046875 28.7998046875 -4.7998046875 28.7998046875 24.0857448188 c 0,2,3
 28.7998046875 41.2785936991 28.7998046875 41.2785936991 37.2001953125 56.400390625 c 1,4,5
 54.073537766 75.5024050647 54.073537766 75.5024050647 121.448160861 150.326775652 c 128,-1,6
 188.822783957 225.151146239 188.822783957 225.151146239 240 288 c 1,7,8
 111.710977855 487.306325863 111.710977855 487.306325863 67.2001953125 565.200195312 c 0,9,10
 62.400390625 574.798502869 62.400390625 574.798502869 62.400390625 590.109920505 c 128,-1,11
 62.400390625 605.42133814 62.400390625 605.42133814 76.2098758315 620.71066907 c 128,-1,12
 90.019361038 636 90.019361038 636 109.264216294 636 c 128,-1,13
 128.509071549 636 128.509071549 636 139.200195312 619.200195312 c 0,14,15
 227.309871174 474.447243556 227.309871174 474.447243556 300 360 c 1,16,17
 404.051749946 482.148240028 404.051749946 482.148240028 496.799804688 632.400390625 c 0,18,19
 514.447370392 662.400390625 514.447370392 662.400390625 544.799804688 662.400390625 c 0,20,21
 557.17504311 662.400390625 557.17504311 662.400390625 565.387326243 654.891575557 c 128,-1,22
 573.599609375 647.38276049 573.599609375 647.38276049 573.599609375 635.889948219 c 128,-1,23
 573.599609375 624.397135949 573.599609375 624.397135949 567.599609375 608.400390625 c 1,24,25
 521.223653278 530.292715678 521.223653278 530.292715678 473.095471236 464.066515443 c 128,-1,26
 424.967289194 397.840315207 424.967289194 397.840315207 344.400390625 295.200195312 c 1,27,28
 430.878992117 155.858420034 430.878992117 155.858420034 502.799804689 72 c 1,29,30
 511.200195312 57.2980345564 511.200195312 57.2980345564 511.200195312 42.4963292898 c 128,-1,31
 511.200195312 27.6946240233 511.200195312 27.6946240233 496.399407928 12.6471166991 c 128,-1,32
 481.598620543 -2.400390625 481.598620543 -2.400390625 463.570744808 -2.400390625 c 128,-1,33
 445.542869074 -2.400390625 445.542869074 -2.400390625 433.200195312 8.400390625 c 1,34,35
 387.755477824 64.9531593569 387.755477824 64.9531593569 283.200195312 224.400390625 c 1,36,37
 223.378887 153.292146994 223.378887 153.292146994 92.400390625 7.2001953125 c 1,38,39
 75.258330639 -4.7998046875 75.258330639 -4.7998046875 62.552873727 -4.7998046875 c 0,0,1
EndSplineSet
Substitution2: "'c2sc' Capitals to Small Capitals in Latin lookup 1 subtable" X.smcp
EndChar

StartChar: Y
Encoding: 89 89 34
Width: 442
VWidth: 1200
Flags: W
HStem: 644.8 20G<52.0001 65.5885 392.941 407.526>
VStem: 174.869 68.7307<7.38741 355.483>
LayerCount: 2
Fore
SplineSet
175.200195312 111.599609375 m 2,0,-1
 177.599609375 242.400390625 l 2,1,2
 177.599609375 291.209633826 177.599609375 291.209633826 172.799804688 336 c 1,3,4
 130.124017923 398.652190058 130.124017923 398.652190058 100.110976055 457.37863552 c 128,-1,5
 70.0979341869 516.105080983 70.0979341869 516.105080983 63.4711456385 529.218090639 c 128,-1,6
 56.84435709 542.331100295 56.84435709 542.331100295 42.8429345137 570.524233523 c 128,-1,7
 28.8415119373 598.71736675 28.8415119373 598.71736675 24.6209512812 607.157755839 c 128,-1,8
 20.400390625 615.598144928 20.400390625 615.598144928 20.400390625 627.547950053 c 128,-1,9
 20.400390625 639.497755177 20.400390625 639.497755177 32.8031146183 652.148779933 c 128,-1,10
 45.2058386117 664.799804688 45.2058386117 664.799804688 58.7942849915 664.799804688 c 128,-1,11
 72.3827313712 664.799804688 72.3827313712 664.799804688 91.0612151473 638.24405334 c 128,-1,12
 109.739698923 611.688301993 109.739698923 611.688301993 136.538719749 561.355556035 c 128,-1,13
 163.337740574 511.022810077 163.337740574 511.022810077 166.69532025 505.400540969 c 128,-1,14
 170.052899927 499.778271861 170.052899927 499.778271861 189.819992604 461.47971831 c 128,-1,15
 209.587085282 423.181164759 209.587085282 423.181164759 217.200195312 412.799804688 c 1,16,-1
 262.799804688 493.200195312 l 2,17,18
 314.991852847 586.710874528 314.991852847 586.710874528 370.799804688 652.799804688 c 1,19,20
 385.648849542 666 385.648849542 666 400.23346053 666 c 128,-1,21
 414.818071518 666 414.818071518 666 422.808938103 658.244198281 c 128,-1,22
 430.799804688 650.488396562 430.799804688 650.488396562 430.799804688 639.344295937 c 128,-1,23
 430.799804688 628.200195312 430.799804688 628.200195312 427.200195312 619.200195312 c 1,24,25
 381.326844588 562.864823165 381.326844588 562.864823165 347.032655623 502.848292991 c 128,-1,26
 312.738466657 442.831762818 312.738466657 442.831762818 303.656715052 426.274051341 c 128,-1,27
 294.574963446 409.716339863 294.574963446 409.716339863 274.593732539 372.576168385 c 128,-1,28
 254.612501632 335.435996908 254.612501632 335.435996908 248.400390625 324 c 1,29,-1
 243.599609375 121.200195312 l 2,30,31
 243.692764418 85.1685425147 243.692764418 85.1685425147 247.200195314 44.400390625 c 1,32,33
 243.541230969 27.9339344087 243.541230969 27.9339344087 231.019816385 15.1671625168 c 128,-1,34
 218.498401801 2.400390625 218.498401801 2.400390625 208.138657388 2.400390625 c 128,-1,35
 197.778912976 2.400390625 197.778912976 2.400390625 192.221696808 6.34322802782 c 128,-1,36
 186.66448064 10.2860654306 186.66448064 10.2860654306 183.490647168 18.5145867499 c 128,-1,37
 180.316813696 26.7431080691 180.316813696 26.7431080691 178.297498558 34.4573520256 c 128,-1,38
 176.278183419 42.1715959821 176.278183419 42.1715959821 175.653912475 54.8572206784 c 128,-1,39
 175.02964153 67.5428453748 175.02964153 67.5428453748 174.868927129 74.9142238369 c 128,-1,40
 174.708212728 82.285602299 174.708212728 82.285602299 174.95420402 95.3140583242 c 128,-1,41
 175.200195312 108.342514349 175.200195312 108.342514349 175.200195312 111.599609375 c 2,0,-1
EndSplineSet
Substitution2: "'c2sc' Capitals to Small Capitals in Latin lookup 1 subtable" Y.smcp
EndChar

StartChar: Z
Encoding: 90 90 35
Width: 507
VWidth: 1200
Flags: W
HStem: -2.40039 75.6006<128.4 445.748> 311.495 76.1049<367.2 408.747> 355.2 70.7998<107.523 151.2> 589.2 75.5996<48.0994 310.324>
LayerCount: 2
Fore
SplineSet
342.969285723 -3.41700015153 m 2,0,-1
 279.599609375 -2.400390625 l 1,1,-1
 163.200195312 -2.400390625 l 1,2,-1
 76.7998046875 -3.599609375 l 2,3,4
 58.7998046875 -3.599609375 58.7998046875 -3.599609375 51.6000976562 3.60009765625 c 128,-1,5
 44.400390625 10.7998046875 44.400390625 10.7998046875 44.400390625 28.7998046875 c 1,6,7
 59.6942306847 113.613208258 59.6942306847 113.613208258 89.3697081445 160.315952506 c 128,-1,8
 119.045185604 207.018696754 119.045185604 207.018696754 158.55812122 252.057308498 c 128,-1,9
 198.071056836 297.095920241 198.071056836 297.095920241 216 319.200195312 c 1,10,11
 152.781501236 329.396673836 152.781501236 329.396673836 104.400390625 355.200195312 c 1,12,13
 92.400390625 367.198800288 92.400390625 367.198800288 92.400390625 378.600167042 c 0,14,15
 92.400390625 398.855969167 92.400390625 398.855969167 107.059969528 412.374825748 c 128,-1,16
 121.834837197 426 121.834837197 426 141.599609375 426 c 1,17,-1
 151.200195312 424.799804688 l 1,18,19
 183.21366698 407.244626317 183.21366698 407.244626317 214.509743467 403.311933876 c 128,-1,20
 245.805819955 399.379241435 245.805819955 399.379241435 279.599609375 396 c 1,21,22
 283.984380449 401.602757533 283.984380449 401.602757533 297.529686641 418.798311982 c 128,-1,23
 311.074992833 435.99386643 311.074992833 435.99386643 316.351910138 442.8404026 c 128,-1,24
 321.628827444 449.686938769 321.628827444 449.686938769 333.018964384 464.629323962 c 0,25,26
 371.572099449 515.206046401 371.572099449 515.206046401 397.200195312 562.799804688 c 1,27,28
 279.8683087 589.200195312 279.8683087 589.200195312 70.7998046875 589.200195312 c 0,29,30
 45.9648040052 589.200195312 45.9648040052 589.200195312 39.1265424383 604.86534856 c 0,31,32
 37.2001953125 609.278242487 37.2001953125 609.278242487 37.2001953125 619.821921799 c 128,-1,33
 37.2001953125 630.365601112 37.2001953125 630.365601112 50.8759668057 646.279421119 c 128,-1,34
 64.5517382988 662.193241126 64.5517382988 662.193241126 82.7998046875 664.799804688 c 1,35,36
 174.400611523 664.799804688 174.400611523 664.799804688 293.081783805 654.770533015 c 128,-1,37
 411.762956088 644.741261342 411.762956088 644.741261342 469.200195312 624 c 1,38,39
 487.200195312 612 487.200195312 612 487.200195312 594 c 2,40,-1
 487.200195312 586.799804688 l 1,41,42
 441.630526223 485.535094257 441.630526223 485.535094257 367.200195312 387.599609375 c 1,43,44
 394.799804688 387.599609375 394.799804688 387.599609375 409.200195312 388.799804688 c 1,45,46
 438 383.717891714 438 383.717891714 438 359.654589003 c 128,-1,47
 438 335.591286292 438 335.591286292 419.035637771 324.928247187 c 128,-1,48
 400.071275541 314.265208082 400.071275541 314.265208082 382.105442891 313.014111069 c 128,-1,49
 364.139610241 311.763014056 364.139610241 311.763014056 355.638847121 311.494736352 c 128,-1,50
 347.138084 311.226458647 347.138084 311.226458647 329.847933696 311.613229324 c 128,-1,51
 312.557783392 312 312.557783392 312 307.200195312 312 c 1,52,53
 283.218694094 284.592570037 283.218694094 284.592570037 250.660996154 253.399492327 c 128,-1,54
 218.103298215 222.206414617 218.103298215 222.206414617 200.501921935 204.550352034 c 0,55,56
 155.179106319 159.086721448 155.179106319 159.086721448 128.400390625 75.599609375 c 1,57,-1
 301.200195312 73.2001953125 l 1,58,59
 388.558945338 73.2001953125 388.558945338 73.2001953125 447.599609375 80.400390625 c 1,60,61
 476.400390625 75.3171699228 476.400390625 75.3171699228 476.400390625 49.4279099561 c 128,-1,62
 476.400390625 23.5386499894 476.400390625 23.5386499894 447.67759059 11.4220589085 c 128,-1,63
 418.954790556 -0.694532172423 418.954790556 -0.694532172423 391.183990459 -1.97162236597 c 0,64,65
 359.753714235 -3.41700015153 359.753714235 -3.41700015153 342.969285723 -3.41700015153 c 2,0,-1
EndSplineSet
Substitution2: "'c2sc' Capitals to Small Capitals in Latin lookup 1 subtable" Z.smcp
EndChar

StartChar: a
Encoding: 97 97 36
Width: 459
VWidth: 1200
Flags: W
HStem: 0 74.4004<163.024 261.482> 375.6 87.6006<172.165 292.291>
VStem: 56.4004 76.7998<107.224 326.426> 312 79.2002<130.156 356.144>
LayerCount: 2
Fore
SplineSet
391.67564864 375.006692603 m 2,0,-1
 391.200195312 304.714708573 l 2,1,2
 391.200195312 265.203857561 391.200195312 265.203857561 384 204 c 1,3,4
 389.432798038 97.1436720088 389.432798038 97.1436720088 406.799804688 13.2001953125 c 1,5,6
 404.230875342 2.0665419494 404.230875342 2.0665419494 390.887717263 -4.36663136905 c 128,-1,7
 377.544559185 -10.7998046875 377.544559185 -10.7998046875 362.738233313 -10.7998046875 c 128,-1,8
 347.931907441 -10.7998046875 347.931907441 -10.7998046875 339.205842754 -6.69417705422 c 128,-1,9
 330.479778067 -2.58854942094 330.479778067 -2.58854942094 326.775282245 5.54256767922 c 128,-1,10
 323.070786424 13.6736847794 323.070786424 13.6736847794 321.656827129 19.8978229458 c 128,-1,11
 320.242867835 26.1219611122 320.242867835 26.1219611122 319.88236037 36.4545676792 c 128,-1,12
 319.521852905 46.7871742462 319.521852905 46.7871742462 319.200195312 49.2001953125 c 1,13,14
 271.82250407 0 271.82250407 0 196.318194416 0 c 128,-1,15
 120.813884762 0 120.813884762 0 88.6071376935 57.3062283141 c 128,-1,16
 56.400390625 114.612456628 56.400390625 114.612456628 56.400390625 218.400390625 c 0,17,18
 56.400390625 397.809117818 56.400390625 397.809117818 158.879715462 447.584615284 c 0,19,20
 191.029551822 463.200195312 191.029551822 463.200195312 231.972464824 463.200195312 c 128,-1,21
 272.915377825 463.200195312 272.915377825 463.200195312 312 448.799804688 c 1,22,23
 324.600585938 466.799804688 324.600585938 466.799804688 348.180213304 466.799804688 c 0,24,25
 389.915621992 466.799804688 389.915621992 466.799804688 391.335969227 402.603347264 c 0,26,27
 391.67564864 387.250612077 391.67564864 387.250612077 391.67564864 375.006692603 c 2,0,-1
292.799804688 135.599609375 m 1,28,29
 312 191.068190627 312 191.068190627 312 253.862290695 c 128,-1,30
 312 316.656390763 312 316.656390763 296.936500089 346.128000069 c 128,-1,31
 281.873000177 375.599609375 281.873000177 375.599609375 243.599609375 375.599609375 c 0,32,33
 227.990235959 375.599609375 227.990235959 375.599609375 202.492999823 372.763332412 c 128,-1,34
 176.995763687 369.927055448 176.995763687 369.927055448 155.097979499 327.934708216 c 128,-1,35
 133.200195312 285.942360983 133.200195312 285.942360983 133.200195312 256.799804688 c 2,36,-1
 133.200195312 217.200195312 l 2,37,38
 133.200195312 112.350685084 133.200195312 112.350685084 176.279863259 83.2882716226 c 0,39,40
 189.454507638 74.400390625 189.454507638 74.400390625 210.785329209 74.400390625 c 128,-1,41
 232.116150781 74.400390625 232.116150781 74.400390625 257.428002545 92.654103215 c 128,-1,42
 282.73985431 110.907815805 282.73985431 110.907815805 292.799804688 135.599609375 c 1,28,29
EndSplineSet
Substitution2: "'smcp' Lowercase to Small Capitals in Latin lookup 0 subtable" A.smcp
EndChar

StartChar: b
Encoding: 98 98 37
Width: 412
VWidth: 1200
Flags: W
HStem: -1.2002 84<152.953 259.1> 378 91.2002<139.2 255.605>
VStem: 56.4004 72<463.2 706.247> 314.4 73.1992<143.404 317.442>
LayerCount: 2
Fore
SplineSet
56.400390625 675.599609375 m 1,0,1
 60.8484086757 692.502657137 60.8484086757 692.502657137 75.4792812335 704.451523881 c 128,-1,2
 90.1101537912 716.400390625 90.1101537912 716.400390625 105.599609375 716.400390625 c 0,3,4
 128.116974611 716.400390625 128.116974611 716.400390625 133.200195312 687.599609375 c 1,5,6
 133.200195312 631.199951172 133.200195312 631.199951172 130.800292969 595.800048828 c 128,-1,7
 128.400390625 560.400146484 128.400390625 560.400146484 128.400390625 543.291627367 c 128,-1,8
 128.400390625 526.183108249 128.400390625 526.183108249 132 463.200195312 c 1,9,10
 152.002170369 469.200195312 152.002170369 469.200195312 184.799804688 469.200195312 c 0,11,12
 245.455303081 469.200195312 245.455303081 469.200195312 291.86382577 438.699766412 c 128,-1,13
 338.27234846 408.199337513 338.27234846 408.199337513 362.935978917 354.900168483 c 128,-1,14
 387.599609375 301.600999453 387.599609375 301.600999453 387.599609375 238.926020112 c 128,-1,15
 387.599609375 176.251040771 387.599609375 176.251040771 363.428043045 123.562841573 c 128,-1,16
 339.256476715 70.874642375 339.256476715 70.874642375 288.571305914 34.8372235313 c 128,-1,17
 237.886135113 -1.2001953125 237.886135113 -1.2001953125 171.599609375 -1.2001953125 c 0,18,19
 67.2001953125 -1.2001953125 67.2001953125 -1.2001953125 67.2001953125 55.2001953125 c 0,20,21
 67.2001953125 143.399902344 67.2001953125 143.399902344 61.8002929688 302.399902344 c 128,-1,22
 56.400390625 461.399902343 56.400390625 461.399902343 56.400390625 675.599609375 c 1,0,1
214.799804688 373.200195312 m 1,23,24
 188.39404158 378 188.39404158 378 171.79766104 378 c 128,-1,25
 155.201280501 378 155.201280501 378 139.200195312 372 c 1,26,27
 144.385327714 310.515096662 144.385327714 310.515096662 152.400390625 88.7998046875 c 1,28,29
 170.400390626 82.7998046875 170.400390626 82.7998046875 190.799804688 82.7998046875 c 0,30,31
 246.108955882 82.7998046875 246.108955882 82.7998046875 280.254673253 125.244790843 c 128,-1,32
 314.400390625 167.689776998 314.400390625 167.689776998 314.400390625 225.826191025 c 128,-1,33
 314.400390625 283.962605053 314.400390625 283.962605053 289.615223501 322.645660242 c 128,-1,34
 264.830056377 361.328715431 264.830056377 361.328715431 214.799804688 373.200195312 c 1,23,24
EndSplineSet
Substitution2: "'smcp' Lowercase to Small Capitals in Latin lookup 0 subtable" B.smcp
EndChar

StartChar: c
Encoding: 99 99 38
Width: 388
VWidth: 1200
Flags: W
HStem: 0 88.7998<144.899 283.054> 382.8 84<178.132 342.024>
VStem: 25.2002 86.3994<124.971 316.02>
LayerCount: 2
Fore
SplineSet
360.000302499 448.924704336 m 0,0,1
 373.200195312 440.509743348 373.200195312 440.509743348 373.200195312 430.143269327 c 0,2,3
 373.200195312 409.612518786 373.200195312 409.612518786 362.030467695 384.806259393 c 128,-1,4
 350.860740077 360 350.860740077 360 331.200195312 360 c 0,5,6
 322.050048828 360 322.050048828 360 292.949951172 371.399902344 c 128,-1,7
 263.849853516 382.799804688 263.849853516 382.799804688 252 382.799804688 c 0,8,9
 195.552545164 382.799804688 195.552545164 382.799804688 153.576077269 341.547380409 c 128,-1,10
 111.599609375 300.29495613 111.599609375 300.29495613 111.599609375 230.679497987 c 128,-1,11
 111.599609375 161.064039844 111.599609375 161.064039844 133.106934736 124.931922266 c 128,-1,12
 154.614260096 88.7998046875 154.614260096 88.7998046875 212.400390625 88.7998046875 c 0,13,14
 242.849975586 88.7998046875 242.849975586 88.7998046875 290.549926758 114.600097656 c 128,-1,15
 338.24987793 140.400390625 338.24987793 140.400390625 352.86640331 140.400390625 c 128,-1,16
 367.48292869 140.400390625 367.48292869 140.400390625 375.141366689 132.023651481 c 128,-1,17
 382.799804688 123.646912336 382.799804688 123.646912336 382.799804688 111.599609375 c 0,18,19
 382.799804688 86.8293948215 382.799804688 86.8293948215 352.146436302 60.3072836012 c 128,-1,20
 321.493067915 33.7851723809 321.493067915 33.7851723809 277.453498595 16.8925861905 c 128,-1,21
 233.413929274 0 233.413929274 0 195.599609375 0 c 0,22,23
 115.415097879 0 115.415097879 0 70.3076465957 63.4763825468 c 128,-1,24
 25.2001953125 126.952765094 25.2001953125 126.952765094 25.2001953125 235.200195312 c 0,25,26
 25.2001953125 304.439696835 25.2001953125 304.439696835 61.7959615333 358.810038141 c 128,-1,27
 98.3917277541 413.180379447 98.3917277541 413.180379447 152.204363987 439.990092068 c 128,-1,28
 206.01700022 466.799804688 206.01700022 466.799804688 268.989013656 466.799804688 c 128,-1,29
 331.961027092 466.799804688 331.961027092 466.799804688 360.000302499 448.924704336 c 0,0,1
EndSplineSet
Substitution2: "'smcp' Lowercase to Small Capitals in Latin lookup 0 subtable" C.smcp
EndChar

StartChar: d
Encoding: 100 100 39
Width: 428
VWidth: 1200
Flags: W
HStem: 1.2002 81.5996<160.694 285.572> 379.2 90<166.315 279.564>
VStem: 34.7998 81.6006<130.765 311.239> 285.6 71.5321<621.773 709.5> 300 68.1865<138.529 360.71> 308.4 72<-1.38509 34.7998>
LayerCount: 2
Fore
SplineSet
285.599609375 661.200195312 m 1,0,1
 285.599609375 715.200195312 285.599609375 715.200195312 319.778044557 715.200195312 c 0,2,3
 337.799085434 715.200195312 337.799085434 715.200195312 345.431190142 709.675016978 c 128,-1,4
 353.06329485 704.149838644 353.06329485 704.149838644 357.131745081 687.710637732 c 128,-1,5
 361.200195312 671.27143682 361.200195312 671.27143682 361.200195312 620.185047025 c 128,-1,6
 361.200195312 569.098657231 361.200195312 569.098657231 364.32378818 492.570886162 c 128,-1,7
 367.447381049 416.043115094 367.447381049 416.043115094 368.186490968 371.987899155 c 128,-1,8
 368.925600888 327.932683216 368.925600888 327.932683216 375.262605132 233.779888733 c 128,-1,9
 381.599609375 139.627094251 381.599609375 139.627094251 381.599609375 79.2001953125 c 1,10,-1
 380.400390625 22.7998046875 l 1,11,12
 377.142698438 4.07138797057 377.142698438 4.07138797057 365.871285021 -1.56440367096 c 128,-1,13
 354.599871603 -7.2001953125 354.599871603 -7.2001953125 334.139883714 -7.2001953125 c 128,-1,14
 313.679895825 -7.2001953125 313.679895825 -7.2001953125 308.400390625 19.2001953125 c 2,15,-1
 304.799804688 34.7998046875 l 1,16,17
 262.358117101 1.2001953125 262.358117101 1.2001953125 202.799804688 1.2001953125 c 0,18,19
 124.556188775 1.2001953125 124.556188775 1.2001953125 79.6779967314 58.7301075261 c 128,-1,20
 34.7998046875 116.26001974 34.7998046875 116.26001974 34.7998046875 192.137768686 c 128,-1,21
 34.7998046875 268.015517632 34.7998046875 268.015517632 69.5933049478 343.184155399 c 128,-1,22
 104.386805208 418.352793166 104.386805208 418.352793166 172.977010137 450.758362043 c 0,23,24
 212.011323282 469.200195312 212.011323282 469.200195312 259.200195312 469.200195312 c 0,25,26
 277.200195312 469.200195312 277.200195312 469.200195312 286.799804688 468 c 1,27,-1
 285.599609375 548.400390625 l 1,28,-1
 286.799804688 612 l 1,29,-1
 285.599609375 661.200195312 l 1,0,1
299.180582905 171.123540611 m 128,-1,31
 299.625379797 210.756231609 299.625379797 210.756231609 300 216 c 2,32,-1
 300 235.200195312 l 2,33,34
 300 289.092448242 300 289.092448242 287.888754271 334.146321777 c 128,-1,35
 275.777508543 379.200195312 275.777508543 379.200195312 255.599609375 379.200195312 c 0,36,37
 228.254435679 379.200195312 228.254435679 379.200195312 194.348664307 373.161961175 c 128,-1,38
 160.442892936 367.123727039 160.442892936 367.123727039 148.799804688 351.599609375 c 0,39,40
 116.400390625 309.338905958 116.400390625 309.338905958 116.400390625 212.400390625 c 0,41,42
 116.400390625 142.870600285 116.400390625 142.870600285 159.955570973 104.742837032 c 0,43,44
 185.022153684 82.7998046875 185.022153684 82.7998046875 214.472096472 82.7998046875 c 128,-1,45
 243.922039261 82.7998046875 243.922039261 82.7998046875 266.668033144 92.720986242 c 128,-1,46
 289.414027027 102.642167796 289.414027027 102.642167796 294.07490652 117.066508704 c 128,-1,30
 298.735786012 131.490849612 298.735786012 131.490849612 299.180582905 171.123540611 c 128,-1,31
EndSplineSet
Substitution2: "'smcp' Lowercase to Small Capitals in Latin lookup 0 subtable" D.smcp
EndChar

StartChar: e
Encoding: 101 101 40
Width: 399
VWidth: 1200
Flags: W
HStem: -3.59961 87.5996<168.251 279.708> 212.4 70.7998<133.2 245.527> 393.6 69.6006<167.87 267.423>
VStem: 272.4 87.5996<308.622 387.427>
LayerCount: 2
Fore
SplineSet
310.409119095 433.249114927 m 128,-1,1
 360 403.298034542 360 403.298034542 360 358.777183109 c 128,-1,2
 360 314.256331676 360 314.256331676 314.220241748 269.586340586 c 128,-1,3
 268.440483495 224.916349497 268.440483495 224.916349497 202.815933518 215.576691462 c 0,4,5
 197.085948617 214.761202449 197.085948617 214.761202449 193.393666091 214.2134101 c 128,-1,6
 189.701383564 213.665617751 189.701383564 213.665617751 183.603863206 213.301546931 c 128,-1,7
 177.506342848 212.937476112 177.506342848 212.937476112 174.433666091 212.744667912 c 128,-1,8
 171.360989333 212.551859713 171.360989333 212.551859713 164.535933518 212.4664024 c 128,-1,9
 157.710877704 212.380945087 157.710877704 212.380945087 154.897806715 212.37031635 c 128,-1,10
 152.084735727 212.359687613 152.084735727 212.359687613 144.172144456 212.380039119 c 128,-1,11
 136.259553184 212.400390625 136.259553184 212.400390625 133.200195312 212.400390625 c 1,12,13
 144.440178756 133.717076214 144.440178756 133.717076214 163.459741761 109.348993561 c 1,14,15
 191.719832689 87.080773878 191.719832689 87.080773878 211.99123789 84 c 1,16,17
 262.095747206 84 262.095747206 84 304.462473552 126 c 128,-1,18
 346.829199897 168 346.829199897 168 367.200195312 168 c 0,19,20
 374.121955415 168 374.121955415 168 390.460880052 153.508352556 c 128,-1,21
 406.799804688 139.016705113 406.799804688 139.016705113 406.799804688 124.949997184 c 128,-1,22
 406.799804688 110.883289255 406.799804688 110.883289255 389.110683915 90.9744294348 c 128,-1,23
 371.421563142 71.0655696142 371.421563142 71.0655696142 344.107959274 49.7447325525 c 128,-1,24
 316.794355406 28.4238954908 316.794355406 28.4238954908 277.248531815 12.4121430579 c 128,-1,25
 237.702708223 -3.599609375 237.702708223 -3.599609375 203.77996398 -3.599609375 c 128,-1,26
 169.857219736 -3.599609375 169.857219736 -3.599609375 144.25987024 12.123585654 c 0,27,28
 98.0334481255 40.5182071567 98.0334481255 40.5182071567 73.616821719 109.693222195 c 128,-1,29
 49.2001953125 178.868237232 49.2001953125 178.868237232 49.2001953125 255.457514213 c 128,-1,30
 49.2001953125 332.046791194 49.2001953125 332.046791194 82.6201629069 393.83614648 c 0,31,32
 120.137049973 463.200195312 120.137049973 463.200195312 210.67393555 463.200195312 c 0,33,0
 260.81823819 463.200195312 260.81823819 463.200195312 310.409119095 433.249114927 c 128,-1,1
272.400390625 351.599609375 m 0,34,35
 272.400390625 393.599609375 272.400390625 393.599609375 215.95007914 393.599609375 c 0,36,37
 178.226639347 393.599609375 178.226639347 393.599609375 150.758999323 351.48735893 c 0,38,39
 142.143741151 338.278801171 142.143741151 338.278801171 138.669697132 320.059900325 c 128,-1,40
 135.195653114 301.840999479 135.195653114 301.840999479 132 283.200195312 c 1,41,42
 272.400390625 283.200195312 272.400390625 283.200195312 272.400390625 351.599609375 c 0,34,35
EndSplineSet
Substitution2: "'smcp' Lowercase to Small Capitals in Latin lookup 0 subtable" E.smcp
EndChar

StartChar: f
Encoding: 102 102 41
Width: 356
VWidth: 1200
Flags: W
HStem: -1.2002 21G<146.4 167.125> 385.018 75.4381<17.5017 116.4 193.2 287.584> 639.6 75.6006<206.495 304.616>
VStem: 116.4 74.3994<145.706 385.2 463.2 627.529> 133.2 75.5996<9.62894 272.921>
LayerCount: 2
Fore
SplineSet
88.4214022243 386.189081639 m 2,0,-1
 74.3354063768 385.946218883 l 2,1,2
 29.4182848946 385.946218883 29.4182848946 385.946218883 17.109044791 398.870758214 c 128,-1,3
 4.7998046875 411.795297545 4.7998046875 411.795297545 4.7998046875 421.200195312 c 0,4,5
 4.7998046875 465.599609375 4.7998046875 465.599609375 88.7998046875 465.599609375 c 1,6,-1
 116.400390625 463.200195312 l 1,7,8
 119.316678012 625.557335413 119.316678012 625.557335413 134.263424809 664.265684133 c 128,-1,9
 149.210171605 702.974032853 149.210171605 702.974032853 177.717275673 710.994877985 c 0,10,11
 192.663508483 715.200195312 192.663508483 715.200195312 223.511092278 715.200195312 c 0,12,13
 294.054857843 715.200195312 294.054857843 715.200195312 313.827233609 698.441299314 c 128,-1,14
 333.599609375 681.682403315 333.599609375 681.682403315 333.599609375 658.421748539 c 128,-1,15
 333.599609375 635.161093762 333.599609375 635.161093762 324.441959831 627.180644537 c 128,-1,16
 315.284310286 619.200195312 315.284310286 619.200195312 304.942081901 619.200195312 c 128,-1,17
 294.599853516 619.200195312 294.599853516 619.200195312 273.599853516 629.399902344 c 128,-1,18
 252.599853516 639.599609375 252.599853516 639.599609375 234.630792811 639.599609375 c 128,-1,19
 216.661732106 639.599609375 216.661732106 639.599609375 206.165270266 627.89599855 c 128,-1,20
 195.668808426 616.192387725 195.668808426 616.192387725 192.634208901 597.703610825 c 128,-1,21
 189.599609375 579.214833926 189.599609375 579.214833926 189.599609375 546 c 2,22,-1
 190.799804688 459.599609375 l 1,23,24
 200.264365102 459.599609375 200.264365102 459.599609375 216.075165058 460.013486762 c 128,-1,25
 231.885965014 460.427364149 231.885965014 460.427364149 240.473862366 460.455841203 c 128,-1,26
 249.061759717 460.484318257 249.061759717 460.484318257 261.052445033 459.894704874 c 0,27,28
 304.799804688 457.74353269 304.799804688 457.74353269 304.799804688 429.496646206 c 0,29,30
 304.799804688 404.234922708 304.799804688 404.234922708 288.232732033 395.932946511 c 0,31,32
 267.485018932 385.535996858 267.485018932 385.535996858 245.01406449 385.017756905 c 128,-1,33
 222.543110048 384.499516951 222.543110048 384.499516951 209.641715268 384.849856132 c 128,-1,34
 196.740320489 385.200195312 196.740320489 385.200195312 193.200195312 385.200195312 c 1,35,36
 194.801596269 346.446240034 194.801596269 346.446240034 201.800700478 239.12320644 c 128,-1,37
 208.799804688 131.800172847 208.799804688 131.800172847 208.799804688 43.2001953125 c 1,38,39
 206.195989206 25.8395416889 206.195989206 25.8395416889 190.422877205 12.3196731882 c 128,-1,40
 174.649765203 -1.2001953125 174.649765203 -1.2001953125 159.599609375 -1.2001953125 c 0,41,42
 133.200195312 -1.2001953125 133.200195312 -1.2001953125 133.200195312 31.2001953125 c 0,43,44
 133.200195312 114.299845375 133.200195312 114.299845375 125.894008335 209.28077156 c 128,-1,45
 118.587821359 304.261697745 118.587821359 304.261697745 116.400390625 385.200195312 c 1,46,47
 97.4893564248 386.189081639 97.4893564248 386.189081639 88.4214022243 386.189081639 c 2,0,-1
EndSplineSet
Substitution2: "'smcp' Lowercase to Small Capitals in Latin lookup 0 subtable" F.smcp
EndChar

StartChar: g
Encoding: 103 103 42
Width: 445
VWidth: 1200
Flags: W
HStem: -312 72<179.818 305.135> 0 94.7998<173.932 304.256> 384 80.4004<177.856 283.067>
VStem: 55.2002 78<140.61 330.361> 324 74.4004<-180.33 40.7998 109.486 332.73> 328.8 79.5101<-216.259 40.3282>
LayerCount: 2
Fore
SplineSet
406.799804688 -61.5057028123 m 2,0,-1
 408.309892946 -141.371426986 l 2,1,2
 408.309892946 -192.043882768 408.309892946 -192.043882768 399.528527764 -214.610203419 c 0,3,4
 378.886984389 -267.654767319 378.886984389 -267.654767319 348.158777327 -286.120606279 c 0,5,6
 305.093993178 -312 305.093993178 -312 236.208026949 -312 c 128,-1,7
 167.32206072 -312 167.32206072 -312 106.799804688 -277.200195312 c 1,8,9
 75.599609375 -261.600097656 75.599609375 -261.600097656 75.599609375 -239.296257786 c 128,-1,10
 75.599609375 -216.992417917 75.599609375 -216.992417917 87.9597526032 -206.296013646 c 128,-1,11
 100.319895831 -195.599609375 100.319895831 -195.599609375 116.834996744 -195.599609375 c 128,-1,12
 133.350097656 -195.599609375 133.350097656 -195.599609375 178.649902344 -217.799804688 c 128,-1,13
 223.949707031 -240 223.949707031 -240 256.799804688 -240 c 0,14,15
 328.799804688 -240 328.799804688 -240 328.799804688 -124.803223453 c 128,-1,16
 328.799804688 -9.60644690584 328.799804688 -9.60644690584 325.200195312 40.7998046875 c 1,17,18
 289.49725331 0 289.49725331 0 235.428402912 0 c 128,-1,19
 181.359552514 0 181.359552514 0 138.939904405 32.5866757261 c 0,20,21
 55.2001953125 96.9153268867 55.2001953125 96.9153268867 55.2001953125 231.520896198 c 128,-1,22
 55.2001953125 366.12646551 55.2001953125 366.12646551 148.351976378 431.232634239 c 0,23,24
 195.807319576 464.400390625 195.807319576 464.400390625 259.200195312 464.400390625 c 0,25,26
 342.239802087 464.400390625 342.239802087 464.400390625 371.863787548 384.411669722 c 0,27,28
 396.070357863 319.050693916 396.070357863 319.050693916 397.991091848 217.271787366 c 0,29,30
 398.400390625 195.583212929 398.400390625 195.583212929 398.400390625 149.591750236 c 128,-1,31
 398.400390625 103.600287543 398.400390625 103.600287543 400.500244141 60.0501708984 c 128,-1,32
 402.600097656 16.5000542535 402.600097656 16.5000542535 404.699951172 -14.4499104818 c 128,-1,33
 406.799804688 -45.399875217 406.799804688 -45.399875217 406.799804688 -61.5057028123 c 2,0,-1
324 195.599609375 m 0,34,35
 324 384 324 384 231.599609375 384 c 0,36,37
 188.731051654 384 188.731051654 384 160.965623483 342.10806142 c 128,-1,38
 133.200195312 300.21612284 133.200195312 300.21612284 133.200195312 237.142503928 c 128,-1,39
 133.200195312 174.068885016 133.200195312 174.068885016 158.361306835 134.434344852 c 128,-1,40
 183.522418357 94.7998046875 183.522418357 94.7998046875 240.974245545 94.7998046875 c 128,-1,41
 298.426072733 94.7998046875 298.426072733 94.7998046875 311.213036366 120.908267952 c 128,-1,42
 324 147.016731216 324 147.016731216 324 195.599609375 c 0,34,35
EndSplineSet
Substitution2: "'smcp' Lowercase to Small Capitals in Latin lookup 0 subtable" G.smcp
EndChar

StartChar: h
Encoding: 104 104 43
Width: 420
VWidth: 1200
Flags: W
HStem: -1.2002 21G<86.68 107.811> 387.6 81.6006<159.627 286.716>
VStem: 39.5996 88.4325<445.036 707.299> 68.4004 84<41.8133 275.789> 68.4004 80.3994<25.2002 37.2002 40.7998 108.448 110.724 270.418> 313.2 84<20.9411 359.152>
LayerCount: 2
Fore
SplineSet
391.807784484 122.07873233 m 128,-1,1
 386.415373657 63.0804919486 386.415373657 63.0804919486 384.902708814 44.2484779794 c 128,-1,2
 383.390043971 25.4164640101 383.390043971 25.4164640101 366.695090601 12.7082320051 c 128,-1,3
 350.00013723 0 350.00013723 0 335.350136805 0 c 0,4,5
 307.200195312 0 307.200195312 0 307.200195312 26.400390625 c 2,6,-1
 307.200195312 32.400390625 l 1,7,-1
 313.200195312 208.799804688 l 1,8,-1
 313.200195312 260.400390625 l 2,9,10
 313.200195312 354.250444645 313.200195312 354.250444645 272.980516889 377.176963455 c 0,11,12
 254.696211684 387.599609375 254.696211684 387.599609375 226.799804688 387.599609375 c 0,13,14
 145.200195312 387.599609375 145.200195312 387.599609375 145.200195312 324 c 0,15,16
 145.200195312 249.000406901 145.200195312 249.000406901 148.800292969 197.483683268 c 128,-1,17
 152.400390625 145.966959635 152.400390625 145.966959635 152.400390625 109.583577474 c 128,-1,18
 152.400390625 73.2001953125 152.400390625 73.2001953125 151.200195312 40.7998046875 c 1,19,-1
 148.799804688 37.2001953125 l 1,20,21
 144.440999405 21.5080706297 144.440999405 21.5080706297 129.631313148 10.1539376586 c 128,-1,22
 114.821626891 -1.2001953125 114.821626891 -1.2001953125 100.799804688 -1.2001953125 c 0,23,24
 72.5601171917 -1.2001953125 72.5601171917 -1.2001953125 70.7998046875 25.2001953125 c 1,25,-1
 68.400390625 25.2001953125 l 1,26,27
 68.400390625 173.83755567 68.400390625 173.83755567 55.141541219 352.527943098 c 128,-1,28
 41.882691813 531.218330526 41.882691813 531.218330526 39.599609375 675.599609375 c 1,29,30
 44.8165422948 699.072623869 44.8165422948 699.072623869 68.2443311469 712.079089649 c 0,31,32
 76.0280387703 716.400390625 76.0280387703 716.400390625 87.8848607869 716.400390625 c 128,-1,33
 99.7416828035 716.400390625 99.7416828035 716.400390625 109.231574278 703.783331365 c 128,-1,34
 118.721465753 691.166272106 118.721465753 691.166272106 122.175964784 663.238207697 c 128,-1,35
 125.630463815 635.310143289 125.630463815 635.310143289 126.319699278 606.55440949 c 128,-1,36
 127.008934742 577.798675692 127.008934742 577.798675692 128.032136659 529.145145197 c 128,-1,37
 129.055338576 480.491614703 129.055338576 480.491614703 132 442.799804688 c 1,38,39
 181.03017381 469.200195312 181.03017381 469.200195312 229.43274416 469.200195312 c 128,-1,40
 277.83531451 469.200195312 277.83531451 469.200195312 306.765819587 455.131514613 c 0,41,42
 359.740003909 429.370578795 359.740003909 429.370578795 378.470099611 366.951692657 c 128,-1,43
 397.200195312 304.532806519 397.200195312 304.532806519 397.200195312 242.804889615 c 128,-1,0
 397.200195312 181.076972711 397.200195312 181.076972711 391.807784484 122.07873233 c 128,-1,1
EndSplineSet
Substitution2: "'smcp' Lowercase to Small Capitals in Latin lookup 0 subtable" H.smcp
EndChar

StartChar: i
Encoding: 105 105 44
Width: 241
VWidth: 1200
Flags: W
HStem: 540 127.2<83.8433 155.073>
VStem: 68.4004 104.399<560.254 655.871> 75.5996 86.4004<20.0246 461.813> 87.5996 73.2002<2.42262 332.542>
LayerCount: 2
Fore
SplineSet
82.7998046875 651.599609375 m 1,0,1
 96.2048497078 664.047763429 96.2048497078 664.047763429 105.29319655 665.371597797 c 128,-1,2
 114.381543392 666.695432165 114.381543392 666.695432165 116.400390625 667.200195312 c 0,3,4
 161.720435982 658.807442541 161.720435982 658.807442541 169.098901169 636.779700805 c 0,5,6
 172.799804688 625.730987443 172.799804688 625.730987443 172.799804688 605.610922138 c 128,-1,7
 172.799804688 585.490856833 172.799804688 585.490856833 156.119782715 562.745428416 c 128,-1,8
 139.439760743 540 139.439760743 540 118.799804688 540 c 128,-1,9
 98.3476202389 540 98.3476202389 540 83.374005432 559.637737205 c 128,-1,10
 68.400390625 579.275474411 68.400390625 579.275474411 68.400390625 610.037639549 c 128,-1,11
 68.400390625 640.799804688 68.400390625 640.799804688 82.7998046875 651.599609375 c 1,0,1
163.906439848 395.533901836 m 1,12,-1
 162 332.400390625 l 1,13,-1
 159.599609375 108 l 2,14,15
 159.599609375 61.2001953125 159.599609375 61.2001953125 160.799804688 39.599609375 c 1,16,17
 158.080390623 21.468214899 158.080390623 21.468214899 144.83667296 7.7341074495 c 128,-1,18
 131.592955298 -6 131.592955298 -6 114.636458119 -6 c 128,-1,19
 97.6799609396 -6 97.6799609396 -6 87.599609375 19.2001953125 c 1,20,21
 86.5783645639 45.4148237141 86.5783645639 45.4148237141 84.2607922873 92.9371891353 c 128,-1,22
 81.9432200108 140.459554556 81.9432200108 140.459554556 78.7714146929 206.73240386 c 128,-1,23
 75.599609375 273.005253164 75.599609375 273.005253164 75.599609375 338.702821894 c 128,-1,24
 75.599609375 404.400390624 75.599609375 404.400390624 79.2001953125 454.799804688 c 0,25,26
 80.8368010683 472.799804688 80.8368010683 472.799804688 103.200195312 472.799804688 c 0,27,28
 163.906439848 472.799804688 163.906439848 472.799804688 163.906439848 395.533901836 c 1,12,-1
EndSplineSet
Substitution2: "'smcp' Lowercase to Small Capitals in Latin lookup 0 subtable" I.smcp
EndChar

StartChar: j
Encoding: 106 106 45
Width: 235
VWidth: 1200
Flags: W
HStem: -260.4 80.4004<-22.1683 41.7369> 448 20G<104.965 126.188> 543.6 120<59.5618 139.606>
VStem: -112.8 87.2916<-177.152 -132.856> 43.2002 114<562.168 652.808> 72 74.9008<-142.644 137.428 246.222 457.302> 79.2002 82.722<-48.4119 440.002>
LayerCount: 2
Fore
SplineSet
43.2001953125 604.799804688 m 1,0,1
 50.3267685354 647.565044274 50.3267685354 647.565044274 72.8560675504 658.080255013 c 0,2,3
 84.6815257261 663.599609375 84.6815257261 663.599609375 102.863168918 663.599609375 c 0,4,5
 140.462016694 663.599609375 140.462016694 663.599609375 150.050962304 637.304991619 c 0,6,7
 157.200195312 617.700505702 157.200195312 617.700505702 157.200195312 594.784521425 c 128,-1,8
 157.200195312 571.868537149 157.200195312 571.868537149 140.141304878 557.734073262 c 128,-1,9
 123.082414443 543.599609375 123.082414443 543.599609375 98.5495993233 543.599609375 c 128,-1,10
 74.0167842033 543.599609375 74.0167842033 543.599609375 59.093046114 561.603213116 c 128,-1,11
 44.1693080247 579.606816858 44.1693080247 579.606816858 43.2001953125 604.799804688 c 1,0,1
68.400390625 430.799804688 m 1,12,13
 69.2658589898 447.2542753 69.2658589898 447.2542753 81.8097216374 457.62713765 c 128,-1,14
 94.3535842851 468 94.3535842851 468 115.576310827 468 c 128,-1,15
 136.799037368 468 136.799037368 468 151.200195312 442.799804688 c 1,16,17
 161.922244271 353.451820419 161.922244271 353.451820419 161.922244271 242.768057837 c 128,-1,18
 161.922244271 132.084295255 161.922244271 132.084295255 157.231215269 29.4354186851 c 128,-1,19
 152.540186266 -73.2134578849 152.540186266 -73.2134578849 146.900848804 -101.803264265 c 128,-1,20
 141.261511343 -130.393070644 141.261511343 -130.393070644 137.656681152 -145.013760775 c 128,-1,21
 134.051850961 -159.634450905 134.051850961 -159.634450905 123.555012493 -184.678317929 c 128,-1,22
 113.058174024 -209.722184954 113.058174024 -209.722184954 99.8192516544 -223.778070299 c 128,-1,23
 86.5803292843 -237.833955645 86.5803292843 -237.833955645 62.8111534739 -249.117173135 c 128,-1,24
 39.0419776634 -260.400390625 39.0419776634 -260.400390625 -1.98979210351 -260.400390625 c 128,-1,25
 -43.0215618705 -260.400390625 -43.0215618705 -260.400390625 -69.9901695233 -243.884574731 c 128,-1,26
 -96.9587771761 -227.368758836 -96.9587771761 -227.368758836 -111.599609375 -180 c 0,27,28
 -112.799804688 -177.599609375 -112.799804688 -177.599609375 -112.799804688 -165.246762406 c 128,-1,29
 -112.799804688 -152.893915438 -112.799804688 -152.893915438 -96.5532845939 -137.647153031 c 128,-1,30
 -80.3067644998 -122.400390625 -80.3067644998 -122.400390625 -63.3659117502 -122.400390625 c 128,-1,31
 -46.4250590007 -122.400390625 -46.4250590007 -122.400390625 -37.6041412354 -131.40032959 c 128,-1,32
 -28.7832234701 -140.400268555 -28.7832234701 -140.400268555 -25.5082092285 -151.200195312 c 128,-1,33
 -22.233194987 -162.00012207 -22.233194987 -162.00012207 -12.9290618896 -171.000061035 c 128,-1,34
 -3.62492879232 -180 -3.62492879232 -180 12 -180 c 0,35,36
 34.4270837569 -180 34.4270837569 -180 51.1554702886 -140.239722611 c 128,-1,37
 67.8838568202 -100.479445221 67.8838568202 -100.479445221 72 -55.2001953125 c 1,38,39
 79.2001953125 52.7851586338 79.2001953125 52.7851586338 79.2001953125 200.904905792 c 128,-1,40
 79.2001953125 349.024652951 79.2001953125 349.024652951 68.400390625 430.799804688 c 1,12,13
EndSplineSet
Substitution2: "'smcp' Lowercase to Small Capitals in Latin lookup 0 subtable" J.smcp
EndChar

StartChar: k
Encoding: 107 107 46
Width: 415
VWidth: 1200
Flags: W
HStem: -1.2002 21G<72.5329 92.8158> 446.8 20G<347.529 358.905>
VStem: 43.2002 77.2358<298.998 701.447> 51 79.7998<82.6485 163.858 260.4 505.468> 58.7998 74.4004<9.43124 163.793>
LayerCount: 2
Fore
SplineSet
132 144 m 1,0,-1
 133.200195312 44.400390625 l 1,1,2
 131.485970424 26.4038189166 131.485970424 26.4038189166 115.425731532 12.601811802 c 128,-1,3
 99.3654926397 -1.2001953125 99.3654926397 -1.2001953125 86.2660468743 -1.2001953125 c 0,4,5
 58.7998046875 -1.2001953125 58.7998046875 -1.2001953125 58.7998046875 32.400390625 c 0,6,7
 58.7998046875 138.00012207 58.7998046875 138.00012207 51 328.200073242 c 128,-1,8
 43.2001953125 518.400024414 43.2001953125 518.400024414 43.2001953125 541.200195312 c 2,9,-1
 43.2001953125 670.799804688 l 1,10,11
 46.7454770452 686.754654463 46.7454770452 686.754654463 61.652692623 699.177131919 c 128,-1,12
 76.5599082009 711.599609375 76.5599082009 711.599609375 91.2001953125 711.599609375 c 0,13,14
 113.718134984 711.599609375 113.718134984 711.599609375 118.799804688 682.799804688 c 1,15,16
 118.799804688 535.33788858 118.799804688 535.33788858 120.435946245 482.238516359 c 128,-1,17
 122.072087802 429.139144138 122.072087802 429.139144138 130.799804688 260.400390625 c 1,18,19
 135.633140755 264.794267491 135.633140755 264.794267491 146.194451617 273.453001567 c 0,20,21
 196.575727254 314.75829727 196.575727254 314.75829727 280.799804688 418.799804688 c 0,22,23
 296.674238437 437.849641932 296.674238437 437.849641932 319.257493921 452.32472331 c 128,-1,24
 341.840749405 466.799804688 341.840749405 466.799804688 353.216903959 466.799804688 c 128,-1,25
 364.593058513 466.799804688 364.593058513 466.799804688 375.496724569 459.925938858 c 128,-1,26
 386.400390625 453.052073028 386.400390625 453.052073028 386.400390625 441.599609375 c 0,27,28
 386.400390625 440.022567977 386.400390625 440.022567977 372.642469486 416.41249746 c 0,29,30
 328.935796651 341.407152013 328.935796651 341.407152013 276 284.400390625 c 1,31,32
 321.844707725 233.461672953 321.844707725 233.461672953 365.478065686 129.968426499 c 0,33,34
 383.290213006 87.7200862718 383.290213006 87.7200862718 391.44491119 74.0610521179 c 128,-1,35
 399.599609375 60.402017964 399.599609375 60.402017964 399.599609375 44.7724161999 c 128,-1,36
 399.599609375 29.1428144358 399.599609375 29.1428144358 387.699666341 14.5714072179 c 128,-1,37
 375.799723308 0 375.799723308 0 357.967259259 0 c 128,-1,38
 340.13479521 0 340.13479521 0 309.28679042 87.4080386094 c 0,39,40
 296.943773856 122.382062885 296.943773856 122.382062885 273.950758408 164.516903407 c 128,-1,41
 250.957742961 206.651743928 250.957742961 206.651743928 224.400390625 231.599609375 c 1,42,43
 212.655375827 218.549946927 212.655375827 218.549946927 179.078249393 188.025534943 c 128,-1,44
 145.501122959 157.501122959 145.501122959 157.501122959 132 144 c 1,0,-1
EndSplineSet
Substitution2: "'smcp' Lowercase to Small Capitals in Latin lookup 0 subtable" K.smcp
EndChar

StartChar: l
Encoding: 108 108 47
Width: 284
VWidth: 1200
Flags: W
HStem: 688 20G<98.3489 127.486>
VStem: 65.3999 85.8003<424.528 695.402> 66.2988 75.3008<119.321 559.312>
LayerCount: 2
Fore
SplineSet
66.2988435178 338.73909388 m 128,-1,1
 65.6351593123 376.9845862 65.6351593123 376.9845862 64.6173843436 400.292097787 c 128,-1,2
 63.599609375 423.599609375 63.599609375 423.599609375 63.599609375 528.599609376 c 128,-1,3
 63.599609375 633.599609376 63.599609375 633.599609376 65.3999023438 658.586494021 c 128,-1,4
 67.2001953125 683.573378665 67.2001953125 683.573378665 76.748764936 695.786689333 c 128,-1,5
 86.2973345595 708 86.2973345595 708 110.400390625 708 c 0,6,7
 144.571982174 708 144.571982174 708 151.200195312 673.200195312 c 1,8,9
 141.599609375 579.94102763 141.599609375 579.94102763 141.599609375 318 c 0,10,11
 141.599609375 117.638488961 141.599609375 117.638488961 184.799804688 82.7998046875 c 1,12,13
 197.461832264 85.7218720236 197.461832264 85.7218720236 209.091926089 102.430386626 c 128,-1,14
 220.722019914 119.138901228 220.722019914 119.138901228 232.908399432 133.969352958 c 128,-1,15
 245.094778949 148.799804688 245.094778949 148.799804688 259.98507258 148.799804688 c 128,-1,16
 274.875366211 148.799804688 274.875366211 148.799804688 285.037780761 134.619584014 c 128,-1,17
 295.200195312 120.439363339 295.200195312 120.439363339 295.200195312 89.5374684423 c 128,-1,18
 295.200195312 58.6355735456 295.200195312 58.6355735456 261.484208655 26.9178844291 c 128,-1,19
 227.768221997 -4.7998046875 227.768221997 -4.7998046875 184.799804688 -4.7998046875 c 0,20,21
 100.200603148 -4.7998046875 100.200603148 -4.7998046875 77.5156096072 141.249448677 c 0,22,23
 68.9069299585 196.673367264 68.9069299585 196.673367264 67.9347288409 248.583484412 c 128,-1,0
 66.9625277233 300.493601559 66.9625277233 300.493601559 66.2988435178 338.73909388 c 128,-1,1
EndSplineSet
Substitution2: "'smcp' Lowercase to Small Capitals in Latin lookup 0 subtable" L.smcp
EndChar

StartChar: m
Encoding: 109 109 48
Width: 680
VWidth: 1200
Flags: W
HStem: -1.2002 21G<81.9002 118.2 312.247 331.45 576 599.553> 385.2 82.7998<156.638 269.944 407.68 499.435>
VStem: 63.5996 78<8.10219 268.952> 296.4 79.1992<37.2002 356.471> 562.8 78.3979<21.2372 318.753> 562.8 66.4344<1.17055 253.368>
LayerCount: 2
Fore
SplineSet
297.599609375 180 m 1,0,-1
 298.626608336 235.465917828 l 1,1,2
 298.626608336 298.994429956 298.626608336 298.994429956 291.458915469 319.003498569 c 128,-1,3
 284.291222602 339.012567182 284.291222602 339.012567182 276.045371472 354.587979595 c 0,4,5
 259.838816751 385.200195312 259.838816751 385.200195312 214.305181638 385.200195312 c 128,-1,6
 168.771546525 385.200195312 168.771546525 385.200195312 152.18557795 357.277109996 c 128,-1,7
 135.599609375 329.354024679 135.599609375 329.354024679 135.599609375 271.200195312 c 1,8,-1
 141.599609375 85.2001953125 l 1,9,10
 141.599609375 -1.2001953125 141.599609375 -1.2001953125 94.7998046875 -1.2001953125 c 0,11,12
 69.000671424 -1.2001953125 69.000671424 -1.2001953125 63.599609375 27.599609375 c 1,13,14
 63.599609375 230.897646713 63.599609375 230.897646713 39.599609375 387.599609375 c 1,15,16
 39.599609375 408.100016276 39.599609375 408.100016276 54.1687379718 423.883436529 c 128,-1,17
 68.7378665685 439.666856782 68.7378665685 439.666856782 87.2016892468 439.666856782 c 128,-1,18
 105.665511925 439.666856782 105.665511925 439.666856782 115.200195312 418.799804686 c 1,19,20
 151.644345051 468 151.644345051 468 213.599609375 468 c 0,21,22
 292.046405996 468 292.046405996 468 336 392.400390625 c 1,23,24
 385.17094085 464.400390625 385.17094085 464.400390625 470.389034549 464.400390625 c 0,25,26
 510.410769251 464.400390625 510.410769251 464.400390625 542.047061977 445.885632941 c 128,-1,27
 573.683354702 427.370875257 573.683354702 427.370875257 592.212367711 398.012406121 c 0,28,29
 640.799804688 321.027584091 640.799804688 321.027584091 640.799804688 142.799804688 c 1,30,-1
 641.197668237 99.5414184832 l 2,31,32
 641.197668237 37.9755453888 641.197668237 37.9755453888 629.23424681 20.6860555475 c 0,33,34
 625.29884511 14.9986284082 625.29884511 14.9986284082 617.601876542 6.89921654783 c 128,-1,35
 609.904907973 -1.2001953125 609.904907973 -1.2001953125 589.200195312 -1.2001953125 c 0,36,37
 562.799804688 -1.2001953125 562.799804688 -1.2001953125 562.799804688 32.400390625 c 2,38,-1
 566.400390625 157.200195312 l 1,39,40
 566.400390625 280.87133366 566.400390625 280.87133366 540 322.799804688 c 0,41,42
 523.828547119 347.532296219 523.828547119 347.532296219 498.041539843 364.565952797 c 128,-1,43
 472.254532567 381.599609375 472.254532567 381.599609375 448.774536967 381.599609375 c 128,-1,44
 425.294541367 381.599609375 425.294541367 381.599609375 412.226499082 373.220535278 c 128,-1,45
 399.158456797 364.841461182 399.158456797 364.841461182 390.293032168 342.166595459 c 0,46,47
 374.400390625 301.51840002 374.400390625 301.51840002 374.400390625 182.400390625 c 2,48,-1
 375.599609375 37.2001953125 l 1,49,-1
 373.200195312 37.2001953125 l 1,50,51
 367.955185591 20.5915906784 367.955185591 20.5915906784 353.427590988 9.69569768294 c 128,-1,52
 338.899996385 -1.2001953125 338.899996385 -1.2001953125 324 -1.2001953125 c 0,53,54
 300.494235247 -1.2001953125 300.494235247 -1.2001953125 298.799804688 27.599609375 c 1,55,-1
 296.400390625 27.599609375 l 1,56,-1
 297.599609375 180 l 1,0,-1
EndSplineSet
Substitution2: "'smcp' Lowercase to Small Capitals in Latin lookup 0 subtable" M.smcp
EndChar

StartChar: n
Encoding: 110 110 49
Width: 451
VWidth: 1200
Flags: W
HStem: -1.2002 21G<88.1997 110.825> 368.4 99.5996<198.755 291.815>
VStem: 75.5996 76.8008<10.8796 306.695> 331.2 70.3466<5.76657 313.115>
LayerCount: 2
Fore
SplineSet
331.200195312 32.400390625 m 2,0,-1
 331.728483073 83.6322461999 l 2,1,2
 331.728483073 96.3820478458 331.728483073 96.3820478458 331.381517426 115.747090514 c 128,-1,3
 331.034551779 135.112133182 331.034551779 135.112133182 330.682303562 160.7741592 c 128,-1,4
 330.330055344 186.436185217 330.330055344 186.436185217 327.951125759 211.795582848 c 128,-1,5
 325.572196174 237.154980479 325.572196174 237.154980479 322.302066876 260.224561748 c 0,6,7
 315.767969126 306.320261743 315.767969126 306.320261743 298.304862698 337.382057456 c 128,-1,8
 280.866191144 368.400390625 280.866191144 368.400390625 254.713969261 368.400390625 c 128,-1,9
 228.561747379 368.400390625 228.561747379 368.400390625 211.691743315 359.055210044 c 128,-1,10
 194.82173925 349.710029463 194.82173925 349.710029463 184.758329928 331.245449136 c 0,11,12
 163.470513715 292.186062809 163.470513715 292.186062809 159.135159202 247.085880098 c 128,-1,13
 154.799804688 201.985697388 154.799804688 201.985697388 154.799804688 151.200195312 c 1,14,-1
 152.400390625 43.2001953125 l 2,15,16
 152.400390625 22.222925948 152.400390625 22.222925948 136.625611674 10.5113653177 c 128,-1,17
 120.850832722 -1.2001953125 120.850832722 -1.2001953125 100.799804688 -1.2001953125 c 0,18,19
 75.599609375 -1.2001953125 75.599609375 -1.2001953125 75.599609375 31.2001953125 c 0,20,21
 75.599609375 113.699829102 75.599609375 113.699829102 70.1997070312 234.899780274 c 128,-1,22
 64.7998046875 356.099731446 64.7998046875 356.099731446 64.7998046875 436.799804688 c 1,23,24
 69.7325844737 453.571577105 69.7325844737 453.571577105 81.5052064771 466.785788552 c 128,-1,25
 93.2778284805 480 93.2778284805 480 104.114662778 480 c 128,-1,26
 114.951497075 480 114.951497075 480 120.73920078 478.62004824 c 128,-1,27
 126.526904486 477.24009648 126.526904486 477.24009648 130.393207429 472.931066123 c 128,-1,28
 134.259510372 468.622035767 134.259510372 468.622035767 136.496859535 465.101798194 c 128,-1,29
 138.734208699 461.581560621 138.734208699 461.581560621 140.189285235 452.653642654 c 128,-1,30
 141.64436177 443.725724687 141.64436177 443.725724687 142.17857988 438.065167135 c 128,-1,31
 142.71279799 432.404609584 142.71279799 432.404609584 143.603871605 418.85776984 c 128,-1,32
 144.49494522 405.310930097 144.49494522 405.310930097 145.200195312 397.200195312 c 1,33,34
 198.634338357 468 198.634338357 468 279.599609375 468 c 0,35,36
 335.946491468 468 335.946491468 468 363.135236587 417.441602691 c 0,37,38
 404.400390625 340.707643708 404.400390625 340.707643708 404.400390625 184.64869341 c 1,39,-1
 405.536793951 91.1721162055 l 2,40,41
 405.51479748 52.7865387656 405.51479748 52.7865387656 401.546761365 40.5728349725 c 128,-1,42
 397.578725251 28.3591311793 397.578725251 28.3591311793 392.267795635 18.7137065831 c 0,43,44
 381.963720628 0 381.963720628 0 355.200195312 0 c 0,45,46
 331.200195312 0 331.200195312 0 331.200195312 32.400390625 c 2,0,-1
EndSplineSet
Substitution2: "'smcp' Lowercase to Small Capitals in Latin lookup 0 subtable" N.smcp
EndChar

StartChar: o
Encoding: 111 111 50
Width: 403
VWidth: 1200
Flags: W
HStem: 0 70.7998<182.279 267.155> 446.8 20G<201.231 247.825>
VStem: 25.2002 75.5996<170.089 321.386> 300 80.4004<118.291 317.884>
LayerCount: 2
Fore
SplineSet
140.880767975 445.13454002 m 128,-1,1
 177.93432709 466.799804688 177.93432709 466.799804688 224.52811478 466.799804688 c 128,-1,2
 271.12190247 466.799804688 271.12190247 466.799804688 309.080443066 427.870186843 c 0,3,4
 380.400390625 354.725691305 380.400390625 354.725691305 380.400390625 224.400390625 c 0,5,6
 380.400390625 155.536576051 380.400390625 155.536576051 341.759925574 81.8775676144 c 0,7,8
 323.264189601 46.6197732189 323.264189601 46.6197732189 291.952781946 23.3098866095 c 128,-1,9
 260.641374291 0 260.641374291 0 219.985753304 0 c 128,-1,10
 179.330132317 0 179.330132317 0 140.532057575 23.5773298566 c 128,-1,11
 101.733982833 47.1546597132 101.733982833 47.1546597132 77.4366161306 82.228975075 c 0,12,13
 25.2001953125 157.634541431 25.2001953125 157.634541431 25.2001953125 224.400390625 c 0,14,15
 25.2001953125 313.886382412 25.2001953125 313.886382412 78.9444578547 388.790051045 c 0,16,0
 103.82720886 423.469275353 103.82720886 423.469275353 140.880767975 445.13454002 c 128,-1,1
241.200195312 70.7998046875 m 1,17,18
 269.915989746 86.4635446894 269.915989746 86.4635446894 284.957994873 121.407317342 c 128,-1,19
 300 156.351089994 300 156.351089994 300 193.39993907 c 128,-1,20
 300 230.448788146 300 230.448788146 295.054465591 259.038350597 c 128,-1,21
 290.108931181 287.627913047 290.108931181 287.627913047 279.520607651 314.899134145 c 128,-1,22
 268.932284122 342.170355243 268.932284122 342.170355243 249.154441177 361.113271251 c 128,-1,23
 229.376598231 380.056187258 229.376598231 380.056187258 202.799804688 385.200195312 c 1,24,25
 159.329829041 378.244574697 159.329829041 378.244574697 130.064816865 334.590971227 c 128,-1,26
 100.799804688 290.937367757 100.799804688 290.937367757 100.799804688 247.280107367 c 128,-1,27
 100.799804688 203.622846977 100.799804688 203.622846977 138.245195517 140.905997448 c 0,28,29
 155.406258142 112.163133278 155.406258142 112.163133278 183.167127481 91.4814689826 c 128,-1,30
 210.92799682 70.7998046875 210.92799682 70.7998046875 241.200195312 70.7998046875 c 1,17,18
EndSplineSet
Substitution2: "'smcp' Lowercase to Small Capitals in Latin lookup 0 subtable" O.smcp
EndChar

StartChar: p
Encoding: 112 112 51
Width: 428
VWidth: 1200
Flags: W
HStem: -312 21G<54 75.4313> 1.2002 78<138.587 283.178> 387.6 79.2002<157.246 286.501>
VStem: 43.2002 76.7998<-299.078 34.7998 98.758 349.686 412.8 455.559> 334.8 80.4004<131.554 334.35>
LayerCount: 2
Fore
SplineSet
120 34.7998046875 m 2,0,-1
 118.799804688 -265.200195312 l 1,1,2
 114.366246818 -284.707416976 114.366246818 -284.707416976 99.0142928103 -298.353708488 c 128,-1,3
 83.6623388026 -312 83.6623388026 -312 67.2001953125 -312 c 0,4,5
 40.7998046875 -312 40.7998046875 -312 40.7998046875 -277.200195312 c 2,6,-1
 43.2001953125 67.2001953125 l 1,7,-1
 43.2001953125 420 l 1,8,9
 47.3528445165 443.878366593 47.3528445165 443.878366593 55.1818198777 455.939183296 c 128,-1,10
 63.0107952388 468 63.0107952388 468 82.1996786617 468 c 128,-1,11
 101.388562084 468 101.388562084 468 107.436665861 459.013980629 c 128,-1,12
 113.484769637 450.027961259 113.484769637 450.027961259 120 412.799804688 c 1,13,14
 124.070057739 430.439298007 124.070057739 430.439298007 150.042012921 448.619551347 c 128,-1,15
 176.013968104 466.799804688 176.013968104 466.799804688 226.953042319 466.799804688 c 128,-1,16
 277.892116534 466.799804688 277.892116534 466.799804688 316.121438978 446.011065015 c 128,-1,17
 354.350761422 425.222325342 354.350761422 425.222325342 375.209569933 388.757550708 c 0,18,19
 415.200195312 318.847079017 415.200195312 318.847079017 415.200195312 218.642746887 c 128,-1,20
 415.200195312 118.438414756 415.200195312 118.438414756 357.278668462 59.8193050344 c 128,-1,21
 299.357141612 1.2001953125 299.357141612 1.2001953125 195.599609375 1.2001953125 c 0,22,23
 161.476020957 1.2001953125 161.476020957 1.2001953125 133.071570062 24.3166189365 c 0,24,25
 120.599629688 34.4666710585 120.599629688 34.4666710585 120 34.7998046875 c 2,0,-1
208.799804688 387.599609375 m 1,26,27
 170.137638074 382.664497913 170.137638074 382.664497913 145.068819037 354.120839067 c 128,-1,28
 120 325.577180221 120 325.577180221 120 301.200195312 c 2,29,-1
 120 115.200195312 l 1,30,31
 123.3985331 114.180469438 123.3985331 114.180469438 134.150624366 104.745068531 c 0,32,33
 163.260230936 79.2001953125 163.260230936 79.2001953125 196.799804688 79.2001953125 c 0,34,35
 334.799804688 79.2001953125 334.799804688 79.2001953125 334.799804688 220.799804688 c 0,36,37
 334.799804688 343.376888601 334.799804688 343.376888601 273.27809875 374.455084777 c 0,38,39
 247.257490203 387.599609375 247.257490203 387.599609375 208.799804688 387.599609375 c 1,26,27
EndSplineSet
Substitution2: "'smcp' Lowercase to Small Capitals in Latin lookup 0 subtable" P.smcp
EndChar

StartChar: q
Encoding: 113 113 52
Width: 463
VWidth: 1200
Flags: W
HStem: -312 21G<381.294 393.658> 0 74.4004<165.05 284.909> 385.2 79.2002<140.497 283.437>
VStem: 30 80.4004<136.479 351.746> 346.8 81.0123<151.394 312.252> 355.2 80.3994<-300.15 64.2561>
LayerCount: 2
Fore
SplineSet
436.799804688 -141.599609375 m 2,0,-1
 435.599609375 -265.200195312 l 1,1,2
 432.142100837 -285.081397005 432.142100837 -285.081397005 415.991098359 -298.540698503 c 128,-1,3
 399.840095882 -312 399.840095882 -312 387.476039649 -312 c 128,-1,4
 375.111983416 -312 375.111983416 -312 368.920411429 -308.711559097 c 0,5,6
 354.074939904 -300.826896544 354.074939904 -300.826896544 355.200195312 -277.200195312 c 2,7,-1
 358.799804688 -118.799804688 l 2,8,9
 358.799804688 -75.0812290647 358.799804688 -75.0812290647 354.501485775 -13.6669227166 c 128,-1,10
 350.203166861 47.7473836315 350.203166861 47.7473836315 349.200195312 64.7998046875 c 1,11,12
 333.484072582 34.2415061025 333.484072582 34.2415061025 296.662677302 17.1207530513 c 128,-1,13
 259.841282022 0 259.841282022 0 208.636333349 0 c 128,-1,14
 157.431384675 0 157.431384675 0 114.05771596 33.4131257875 c 0,15,16
 30 98.1674138158 30 98.1674138158 30 226.799804688 c 0,17,18
 30 336.92776617 30 336.92776617 79.8300602805 400.664078397 c 128,-1,19
 129.660120561 464.400390625 129.660120561 464.400390625 224.135395287 464.400390625 c 128,-1,20
 318.610670013 464.400390625 318.610670013 464.400390625 363.906863767 414.28968784 c 0,21,22
 379.769698699 396.740800379 379.769698699 396.740800379 389.95929327 381.576737279 c 128,-1,23
 400.148887842 366.412674179 400.148887842 366.412674179 407.546699284 341.668770792 c 0,24,25
 426.456814933 278.418973429 426.456814933 278.418973429 427.812055419 188.330751909 c 0,26,27
 428.280356068 157.200946494 428.280356068 157.200946494 428.400390625 151.200195312 c 2,28,-1
 435.599609375 -56.400390625 l 2,29,30
 436.799804688 -103.200195312 436.799804688 -103.200195312 436.799804688 -141.599609375 c 2,0,-1
195.135466201 385.200195312 m 0,31,32
 152.611000283 385.200195312 152.611000283 385.200195312 131.505695454 352.135478559 c 128,-1,33
 110.400390625 319.070761805 110.400390625 319.070761805 110.400390625 240.141728299 c 128,-1,34
 110.400390625 161.212694794 110.400390625 161.212694794 144.028168672 117.806542709 c 128,-1,35
 177.655946719 74.400390625 177.655946719 74.400390625 220.06318717 74.400390625 c 128,-1,36
 262.470427621 74.400390625 262.470427621 74.400390625 295.589047694 104.508278458 c 128,-1,37
 328.707667767 134.61616629 328.707667767 134.61616629 346.799804688 193.200195312 c 1,38,39
 342.249278212 300.90792247 342.249278212 300.90792247 306.771665104 343.054058891 c 128,-1,40
 271.294051997 385.200195312 271.294051997 385.200195312 195.135466201 385.200195312 c 0,31,32
EndSplineSet
Substitution2: "'smcp' Lowercase to Small Capitals in Latin lookup 0 subtable" Q.smcp
EndChar

StartChar: r
Encoding: 114 114 53
Width: 385
VWidth: 1200
Flags: W
HStem: 382.8 85.2002<229.728 363.145>
VStem: 83.4524 83.3474<43.2002 295.229>
LayerCount: 2
Fore
SplineSet
83.4523938818 124.124875392 m 2,0,-1
 83.605076833 154.360281459 l 2,1,2
 83.605076833 215.559625872 83.605076833 215.559625872 74.4637477449 288.735245719 c 128,-1,3
 65.3224186569 361.910865565 65.3224186569 361.910865565 54.2613069847 398.155628095 c 128,-1,4
 43.2001953125 434.400390625 43.2001953125 434.400390625 43.2001953125 443.838832336 c 128,-1,5
 43.2001953125 453.277274046 43.2001953125 453.277274046 55.8899792475 463.038539367 c 128,-1,6
 68.5797631826 472.799804688 68.5797631826 472.799804688 85.6698172598 472.799804688 c 128,-1,7
 102.759871337 472.799804688 102.759871337 472.799804688 113.073162507 460.083379694 c 128,-1,8
 123.386453677 447.366954699 123.386453677 447.366954699 125.895511199 433.71006208 c 128,-1,9
 128.40456872 420.053169461 128.40456872 420.053169461 130.210827302 397.42111773 c 128,-1,10
 132.017085884 374.789066 132.017085884 374.789066 133.200195312 368.400390625 c 1,11,12
 158.833540647 429.920002219 158.833540647 429.920002219 218.752968386 454.91552002 c 0,13,14
 250.119174076 468 250.119174076 468 288 468 c 0,15,16
 369.599609375 468 369.599609375 468 369.599609375 426 c 0,17,18
 369.599609375 399.590082216 369.599609375 399.590082216 342.531031927 385.653383819 c 0,19,20
 331.799508019 380.656501233 331.799508019 380.656501233 321.599609375 380.400390622 c 1,21,-1
 292.799804688 382.799804688 l 1,22,23
 166.799804688 382.799804688 166.799804688 382.799804688 166.799804688 134.400390625 c 1,24,-1
 168 43.2001953125 l 1,25,-1
 166.799804688 40.7998046875 l 1,26,27
 163.148881463 23.4573622607 163.148881463 23.4573622607 148.524473283 9.32877878661 c 128,-1,28
 133.900065104 -4.7998046875 133.900065104 -4.7998046875 118.799804688 -4.7998046875 c 0,29,30
 97.3205276555 -4.7998046875 97.3205276555 -4.7998046875 90.3864607687 31.0037823396 c 128,-1,31
 83.4523938818 66.8073693666 83.4523938818 66.8073693666 83.4523938818 124.124875392 c 2,0,-1
EndSplineSet
Substitution2: "'smcp' Lowercase to Small Capitals in Latin lookup 0 subtable" R.smcp
EndChar

StartChar: s
Encoding: 115 115 54
Width: 385
VWidth: 1200
Flags: W
HStem: 4.7998 72<143.849 250.909> 358.8 98.0433<252.194 326.136> 396 73.2002<140.734 266.49>
VStem: 55.2002 73.2002<296.479 381.719> 277.2 75.5996<104.168 184.854>
LayerCount: 2
Fore
SplineSet
204 469.200195312 m 0,0,1
 241.489671337 469.200195312 241.489671337 469.200195312 279.370151965 456.843078739 c 0,2,3
 351.599609375 433.280869114 351.599609375 433.280869114 351.599609375 396 c 0,4,5
 351.599609375 378.899983724 351.599609375 378.899983724 337.24244991 368.849894206 c 128,-1,6
 322.885290445 358.799804688 322.885290445 358.799804688 303.599609375 358.799804688 c 0,7,8
 299.849731446 358.799804688 299.849731446 358.799804688 259.349975586 377.399902344 c 128,-1,9
 218.850219726 396 218.850219726 396 194.327809529 396 c 128,-1,10
 169.805399332 396 169.805399332 396 149.102894979 381.609066902 c 128,-1,11
 128.400390625 367.218133803 128.400390625 367.218133803 128.400390625 344.642702671 c 128,-1,12
 128.400390625 322.067271538 128.400390625 322.067271538 140.776160059 306.186914719 c 128,-1,13
 153.151929494 290.3065579 153.151929494 290.3065579 172.942256827 283.013229345 c 128,-1,14
 192.732584161 275.71990079 192.732584161 275.71990079 216.666340909 270.970766987 c 0,15,16
 281.764651305 258.053422265 281.764651305 258.053422265 308.257938486 245.746237332 c 0,17,18
 352.799804688 225.05477006 352.799804688 225.05477006 352.799804688 162.582631344 c 128,-1,19
 352.799804688 100.110492628 352.799804688 100.110492628 305.638578549 52.4551486579 c 128,-1,20
 258.47735241 4.7998046875 258.47735241 4.7998046875 204.989690547 4.7998046875 c 128,-1,21
 151.502028685 4.7998046875 151.502028685 4.7998046875 117.430758139 17.1440918005 c 0,22,23
 55.2001953125 39.6907101813 55.2001953125 39.6907101813 55.2001953125 76.7998046875 c 0,24,25
 55.2001953125 111.599609375 55.2001953125 111.599609375 97.2001953125 111.599609375 c 0,26,27
 116.850219726 111.599609375 116.850219726 111.599609375 153.150268554 94.1997070312 c 128,-1,28
 189.450317383 76.7998046875 189.450317383 76.7998046875 213.114547772 76.7998046875 c 128,-1,29
 236.778778161 76.7998046875 236.778778161 76.7998046875 256.989486736 106.338516386 c 128,-1,30
 277.200195312 135.877228084 277.200195312 135.877228084 277.200195312 163.200195312 c 0,31,32
 277.200195312 169.200195312 277.200195312 169.200195312 274.799804688 178.799804688 c 1,33,34
 248.092319357 205.021620341 248.092319357 205.021620341 168.556951312 218.276949795 c 0,35,36
 140.504765067 222.952114815 140.504765067 222.952114815 113.923048689 232.730745517 c 0,37,38
 55.2001953125 254.33315406 55.2001953125 254.33315406 55.2001953125 339.599609375 c 0,39,40
 55.2001953125 400.206361978 55.2001953125 400.206361978 97.9664808867 434.703278645 c 128,-1,41
 140.732766461 469.200195312 140.732766461 469.200195312 204 469.200195312 c 0,0,1
EndSplineSet
Substitution2: "'smcp' Lowercase to Small Capitals in Latin lookup 0 subtable" S.smcp
EndChar

StartChar: t
Encoding: 116 116 55
Width: 344
VWidth: 1200
Flags: W
HStem: -1.2002 21G<180.555 198.121> 381.6 85.2002<14.0064 132 211.2 334.389> 397.351 74.2489<211.439 352.556>
VStem: 132 75.5996<468 702.647> 142.389 71.6086<92.7648 382.704>
LayerCount: 2
Fore
SplineSet
208.799804688 684 m 1,0,-1
 204 562.799804688 l 2,1,2
 204 550.811526202 204 550.811526202 207.599609375 468 c 1,3,4
 267.591794901 468 267.591794901 468 325.200195312 471.599609375 c 1,5,6
 355.200195312 464.933093416 355.200195312 464.933093416 355.200195312 437.198830543 c 128,-1,7
 355.200195312 409.464567669 355.200195312 409.464567669 335.020018013 397.35071735 c 128,-1,8
 314.839840714 385.236867032 314.839840714 385.236867032 294.680234579 384.04462918 c 128,-1,9
 274.520628445 382.852391329 274.520628445 382.852391329 263.713712599 382.799936446 c 128,-1,10
 252.906796753 382.747481563 252.906796753 382.747481563 235.829535168 383.373740782 c 128,-1,11
 218.752273582 384 218.752273582 384 211.200195312 384 c 1,12,13
 211.680133769 374.78516601 211.680133769 374.78516601 213.998004944 328.552420564 c 128,-1,14
 216.315876119 282.319675117 216.315876119 282.319675117 217.15226361 268.047473642 c 0,15,16
 225.095779864 132.498501926 225.095779864 132.498501926 240 46.7998046875 c 1,17,18
 236.377878767 27.7827470271 236.377878767 27.7827470271 221.640748788 13.2912758573 c 128,-1,19
 206.903618808 -1.2001953125 206.903618808 -1.2001953125 189.337671171 -1.2001953125 c 128,-1,20
 171.771723534 -1.2001953125 171.771723534 -1.2001953125 163.200195312 22.7998046875 c 1,21,22
 147.683406924 112.248258883 147.683406924 112.248258883 142.38944724 235.058718422 c 128,-1,23
 137.095487556 357.869177962 137.095487556 357.869177962 135.599609375 382.799804688 c 1,24,25
 122.400390625 381.599609375 122.400390625 381.599609375 87.300598158 381.599609375 c 128,-1,26
 52.2008056911 381.599609375 52.2008056911 381.599609375 31.2001953125 387.599609375 c 1,27,28
 7.2001953125 392.743363371 7.2001953125 392.743363371 7.2001953125 417.059033389 c 0,29,30
 7.2001953125 466.799804688 7.2001953125 466.799804688 64.7998046875 466.799804688 c 1,31,-1
 112.799804688 465.599609375 l 2,32,33
 124.799804688 465.599609375 124.799804688 465.599609375 132 466.799804688 c 1,34,35
 128.400390625 567.572758276 128.400390625 567.572758276 128.400390625 570.469378861 c 0,36,37
 128.400390625 577.382187611 128.400390625 577.382187611 129.448995751 601.032280611 c 128,-1,38
 130.497600878 624.682373612 130.497600878 624.682373612 132 672 c 1,39,40
 136.448062722 688.902493552 136.448062722 688.902493552 151.079118139 700.85114912 c 128,-1,41
 165.710173557 712.799804688 165.710173557 712.799804688 181.200195312 712.799804688 c 0,42,43
 203.718134984 712.799804688 203.718134984 712.799804688 208.799804688 684 c 1,0,-1
EndSplineSet
Substitution2: "'smcp' Lowercase to Small Capitals in Latin lookup 0 subtable" T.smcp
EndChar

StartChar: u
Encoding: 117 117 56
Width: 400
VWidth: 1200
Flags: W
HStem: -1.2002 21G<136.69 188.722> 448 20G<72.5355 93.1155 307.304 326.221>
VStem: 27.5996 79.2002<129.984 438.276> 271.2 76.7998<196.998 459.349> 304.8 75.6006<-2.15039 55.7518>
LayerCount: 2
Fore
SplineSet
295.200195312 72 m 1,0,1
 223.925083306 -1.2001953125 223.925083306 -1.2001953125 153.517979483 -1.2001953125 c 0,2,3
 119.861248251 -1.2001953125 119.861248251 -1.2001953125 93.739392002 24.5707384355 c 128,-1,4
 67.6175357529 50.3416721836 67.6175357529 50.3416721836 53.9730561184 91.997849821 c 0,5,6
 27.599609375 172.515173449 27.599609375 172.515173449 27.599609375 250.052874587 c 128,-1,7
 27.599609375 327.590575726 27.599609375 327.590575726 36 428.400390625 c 1,8,9
 40.3069438568 446.488994024 40.3069438568 446.488994024 53.2137030489 457.244497012 c 128,-1,10
 66.120462241 468 66.120462241 468 78.9506141397 468 c 0,11,12
 107.280481761 468 107.280481761 468 112.799804688 440.400390625 c 1,13,14
 106.799804688 372.391709146 106.799804688 372.391709146 106.799804688 308.129177056 c 128,-1,15
 106.799804688 243.866644965 106.799804688 243.866644965 108.633547965 216.210332202 c 0,16,17
 113.439035224 143.734506223 113.439035224 143.734506223 157.200195312 70.7998046875 c 1,18,19
 196.620302599 80.4359734918 196.620302599 80.4359734918 230.624568459 107.639424348 c 128,-1,20
 264.628834318 134.842875205 264.628834318 134.842875205 283.200195312 169.200195312 c 1,21,22
 271.200195312 313.195312643 271.200195312 313.195312643 271.200195312 416.400390625 c 0,23,24
 271.200195312 436.700205861 271.200195312 436.700205861 284.5230706 451.750005274 c 128,-1,25
 297.845945888 466.799804688 297.845945888 466.799804688 316.762823211 466.799804688 c 128,-1,26
 335.679700533 466.799804688 335.679700533 466.799804688 348 440.400390625 c 1,27,28
 348 391.579105029 348 391.579105029 356.400390625 212.400390625 c 0,29,30
 357.675523733 186.891500713 357.675523733 186.891500713 369.037957179 119.016442933 c 128,-1,31
 380.400390625 51.1413851538 380.400390625 51.1413851538 380.400390625 35.3281074332 c 128,-1,32
 380.400390625 19.5148297127 380.400390625 19.5148297127 365.393047768 3.75741485636 c 128,-1,33
 350.38570491 -12 350.38570491 -12 331.87851891 -12 c 128,-1,34
 313.37133291 -12 313.37133291 -12 304.799804688 12 c 1,35,-1
 295.200195312 72 l 1,0,1
EndSplineSet
Substitution2: "'smcp' Lowercase to Small Capitals in Latin lookup 0 subtable" U.smcp
EndChar

StartChar: v
Encoding: 118 118 57
Width: 400
VWidth: 1200
Flags: W
HStem: 451.6 15.2002G<54.7599 71.4532 347.485 369.243>
VStem: 19.2002 73.2002<405.484 459.413>
LayerCount: 2
Fore
SplineSet
388.799804688 441.599609375 m 1,0,-1
 387.599609375 432 l 1,1,2
 340.112361109 311.215170844 340.112361109 311.215170844 315.851424516 222.114842307 c 128,-1,3
 291.590487923 133.01451377 291.590487923 133.01451377 265.200195312 32.400390625 c 1,4,5
 258.789334434 17.7475266706 258.789334434 17.7475266706 245.837297077 7.6735680228 c 128,-1,6
 232.88525972 -2.400390625 232.88525972 -2.400390625 215.699600328 -2.400390625 c 128,-1,7
 198.513940936 -2.400390625 198.513940936 -2.400390625 192 20.400390625 c 0,8,9
 159.86741628 121.026837697 159.86741628 121.026837697 101.499110412 239.139387395 c 128,-1,10
 43.1308045436 357.251937093 43.1308045436 357.251937093 31.165499928 383.826408099 c 128,-1,11
 19.2001953125 410.400879105 19.2001953125 410.400879105 19.2001953125 424.004044602 c 128,-1,12
 19.2001953125 437.607210099 19.2001953125 437.607210099 32.8067493348 452.203507393 c 128,-1,13
 46.4133033571 466.799804688 46.4133033571 466.799804688 63.1065540223 466.799804688 c 128,-1,14
 79.7998046875 466.799804688 79.7998046875 466.799804688 92.400390625 448.799804688 c 1,15,16
 105.358801925 420.556995526 105.358801925 420.556995526 154.941270528 324.30862758 c 128,-1,17
 204.523739131 228.060259634 204.523739131 228.060259634 226.799804688 166.799804688 c 1,18,19
 232.131438144 184.927358437 232.131438144 184.927358437 243.257492543 223.55530357 c 0,20,21
 283.159197682 362.087870592 283.159197682 362.087870592 316.799804688 445.200195312 c 1,22,23
 333.770746971 471.599609375 333.770746971 471.599609375 361.200195312 471.599609375 c 0,24,25
 377.285569155 471.599609375 377.285569155 471.599609375 383.042686922 461.490156801 c 128,-1,26
 388.799804688 451.380704227 388.799804688 451.380704227 388.799804688 441.599609375 c 1,0,-1
EndSplineSet
Substitution2: "'smcp' Lowercase to Small Capitals in Latin lookup 0 subtable" V.smcp
EndChar

StartChar: w
Encoding: 119 119 58
Width: 463
VWidth: 1200
Flags: W
HStem: 448 18.7998G<63.9163 77.3248 398.08 418.8>
VStem: 24 68.4004<244.876 459.349> 367.2 66<142.967 463.981>
LayerCount: 2
Fore
SplineSet
367.200195312 279.599609375 m 1,0,-1
 361.200195312 432 l 1,1,2
 365.685890634 446.354371048 365.685890634 446.354371048 378.72243077 457.177185524 c 128,-1,3
 391.758970907 468 391.758970907 468 404.400390625 468 c 0,4,5
 433.200195312 468 433.200195312 468 433.200195312 355.200195312 c 2,6,-1
 433.200195312 300 l 2,7,8
 433.200195312 164.553139792 433.200195312 164.553139792 392.370844629 60.5306973765 c 0,9,10
 369.083313413 1.2001953125 369.083313413 1.2001953125 337.200195312 1.2001953125 c 0,11,12
 318.499154639 1.2001953125 318.499154639 1.2001953125 301.497853666 26.8855035227 c 128,-1,13
 284.496552692 52.570811733 284.496552692 52.570811733 265.302276542 96.3150173104 c 128,-1,14
 246.108000392 140.059222888 246.108000392 140.059222888 235.200195312 157.200195312 c 1,15,16
 223.63139701 136.166327806 223.63139701 136.166327806 204.415647192 97.4830462361 c 128,-1,17
 185.199897373 58.799764666 185.199897373 58.799764666 181.200195312 52.7998046875 c 0,18,19
 147.547799869 1.2001953125 147.547799869 1.2001953125 121.200195312 1.2001953125 c 0,20,21
 111 1.2001953125 111 1.2001953125 84 55.2001953125 c 1,22,23
 24 233.531908584 24 233.531908584 24 430.799804688 c 1,24,25
 30.0079892679 453.330681226 30.0079892679 453.330681226 53.5569044522 463.687907145 c 0,26,27
 60.6323329381 466.799804688 60.6323329381 466.799804688 67.2001953125 466.799804688 c 0,28,29
 87.4494933895 466.799804688 87.4494933895 466.799804688 92.400390625 440.400390625 c 1,30,31
 92.400390625 283.153060472 92.400390625 283.153060472 145.200195312 140.400390625 c 1,32,33
 156.36678304 158.334674037 156.36678304 158.334674037 169.529644678 184.808016962 c 128,-1,34
 182.692506315 211.281359887 182.692506315 211.281359887 189.889056494 224.636074835 c 0,35,36
 208.514869802 259.200195312 208.514869802 259.200195312 236.557423277 259.200195312 c 128,-1,37
 264.599976752 259.200195312 264.599976752 259.200195312 293.508528202 210.97895187 c 0,38,39
 314.402606259 176.126343421 314.402606259 176.126343421 326.32395207 151.259687624 c 128,-1,40
 338.245297881 126.393031827 338.245297881 126.393031827 339.599609375 123.599609375 c 1,41,42
 367.200195312 208.369858172 367.200195312 208.369858172 367.200195312 279.599609375 c 1,0,-1
EndSplineSet
Substitution2: "'smcp' Lowercase to Small Capitals in Latin lookup 0 subtable" W.smcp
EndChar

StartChar: x
Encoding: 120 120 59
Width: 448
VWidth: 1200
Flags: W
HStem: -1.2002 21G<338.454 359.64> 445.6 20G<109.745 129.915 359.926 377.057>
LayerCount: 2
Fore
SplineSet
339.032278584 448.286986793 m 128,-1,1
 351.360019525 465.599609375 351.360019525 465.599609375 368.491347572 465.599609375 c 128,-1,2
 385.62267562 465.599609375 385.62267562 465.599609375 396.81133781 454.897686156 c 128,-1,3
 408 444.195762937 408 444.195762937 408 430.094791251 c 128,-1,4
 408 415.993819565 408 415.993819565 366.083532335 351.841071712 c 128,-1,5
 324.16706467 287.68832386 324.16706467 287.68832386 276 229.200195312 c 1,6,7
 288.901552575 209.468191041 288.901552575 209.468191041 319.173697057 159.930542215 c 128,-1,8
 349.445841539 110.392893388 349.445841539 110.392893388 384 67.2001953125 c 1,9,10
 391.200195312 54.5987548105 391.200195312 54.5987548105 391.200195312 39.6837744352 c 128,-1,11
 391.200195312 24.7687940598 391.200195312 24.7687940598 379.44064167 11.7842993737 c 128,-1,12
 367.681088027 -1.2001953125 367.681088027 -1.2001953125 351.599609375 -1.2001953125 c 0,13,14
 325.308333638 -1.2001953125 325.308333638 -1.2001953125 284.202657339 58.6558229851 c 128,-1,15
 243.096981039 118.511841283 243.096981039 118.511841283 216 176.400390625 c 1,16,17
 181.541635696 128.838013359 181.541635696 128.838013359 155.657726587 87.8142709992 c 128,-1,18
 129.773817478 46.790528639 129.773817478 46.790528639 113.538913843 25.195069007 c 128,-1,19
 97.3040102077 3.599609375 97.3040102077 3.599609375 78.9104760319 3.599609375 c 128,-1,20
 60.5169418562 3.599609375 60.5169418562 3.599609375 50.0582756156 15.0311241663 c 128,-1,21
 39.599609375 26.4626389576 39.599609375 26.4626389576 39.599609375 42 c 0,22,23
 39.599609375 80.6487576 39.599609375 80.6487576 180 238.799804688 c 1,24,25
 164.560854811 267.80712196 164.560854811 267.80712196 118.880525062 340.386013583 c 128,-1,26
 73.2001953125 412.964905206 73.2001953125 412.964905206 73.2001953125 428.232490279 c 128,-1,27
 73.2001953125 443.500075352 73.2001953125 443.500075352 86.4301147461 455.750037676 c 128,-1,28
 99.6600341797 468 99.6600341797 468 119.829949275 468 c 128,-1,29
 139.99986437 468 139.99986437 468 151.200195312 448.799804688 c 2,30,-1
 232.799804688 304.799804688 l 1,31,32
 267.340521147 341.931496521 267.340521147 341.931496521 297.022529396 386.452930366 c 128,-1,0
 326.704537644 430.974364211 326.704537644 430.974364211 339.032278584 448.286986793 c 128,-1,1
EndSplineSet
Substitution2: "'smcp' Lowercase to Small Capitals in Latin lookup 0 subtable" X.smcp
EndChar

StartChar: y
Encoding: 121 121 60
Width: 423
VWidth: 1200
Flags: W
HStem: 445.6 20G<42.4644 60.2883 328.522 354.258>
LayerCount: 2
Fore
SplineSet
10.7998046875 418.799804688 m 1,0,1
 10.7998046875 438.006374622 10.7998046875 438.006374622 22.1761391197 451.802991999 c 128,-1,2
 33.5524735519 465.599609375 33.5524735519 465.599609375 51.3763344323 465.599609375 c 128,-1,3
 69.2001953126 465.599609375 69.2001953126 465.599609375 82.7998046875 445.200195312 c 1,4,5
 107.4962853 367.127471063 107.4962853 367.127471063 133.915662156 304.077070522 c 128,-1,6
 160.335039012 241.026669982 160.335039012 241.026669982 182.945624002 188.008457952 c 128,-1,7
 205.556208993 134.990245922 205.556208993 134.990245922 217.200195312 106.799804688 c 1,8,9
 234.889911944 169.39401625 234.889911944 169.39401625 263.055239288 283.005913793 c 128,-1,10
 291.220566632 396.617811336 291.220566632 396.617811336 303.599609375 444 c 0,11,12
 309.491283545 465.599609375 309.491283545 465.599609375 347.553461762 465.599609375 c 0,13,14
 360.963196985 465.599609375 360.963196985 465.599609375 373.681793805 456.64967026 c 128,-1,15
 386.400390625 447.699731146 386.400390625 447.699731146 386.400390625 436.849865575 c 128,-1,16
 386.400390625 426.000000004 386.400390625 426.000000004 384.000000003 416.400390636 c 0,17,18
 241.414690802 -89.333889307 241.414690802 -89.333889307 175.200195312 -277.200195312 c 0,19,20
 166.400390624 -303.599609375 166.400390624 -303.599609375 142.799804688 -303.599609375 c 0,21,22
 128.224289533 -303.599609375 128.224289533 -303.599609375 116.911949454 -290.843307475 c 128,-1,23
 105.599609375 -278.087005574 105.599609375 -278.087005574 105.599609375 -256.608421163 c 128,-1,24
 105.599609375 -235.129836751 105.599609375 -235.129836751 120.062669477 -186.744073313 c 128,-1,25
 134.525729578 -138.358309875 134.525729578 -138.358309875 154.337070106 -80.855536062 c 128,-1,26
 174.148410634 -23.3527622492 174.148410634 -23.3527622492 180 -1.2001953125 c 1,27,28
 156.448824554 38.6552431311 156.448824554 38.6552431311 100.171004296 178.193629391 c 128,-1,29
 43.8931840382 317.73201565 43.8931840382 317.73201565 10.7998046875 418.799804688 c 1,0,1
EndSplineSet
Substitution2: "'smcp' Lowercase to Small Capitals in Latin lookup 0 subtable" Y.smcp
EndChar

StartChar: z
Encoding: 122 122 61
Width: 428
VWidth: 1200
Flags: W
HStem: -1.2002 79.2002<144.67 363.371> 372 88.1393<41.703 217.518> 386.4 73.1992<73.2752 287.273>
LayerCount: 2
Fore
SplineSet
123.883402564 460.139331422 m 2,0,-1
 174 459.599609375 l 1,1,2
 388.799804688 459.599609375 388.799804688 459.599609375 388.799804688 375.599609375 c 0,3,4
 388.799804688 310.768207597 388.799804688 310.768207597 318.140336263 249.781943661 c 0,5,6
 287.025602864 222.926783473 287.025602864 222.926783473 254.40360905 198.202314151 c 0,7,8
 168.584909999 133.159637607 168.584909999 133.159637607 144 88.7998046875 c 1,9,10
 167.398356175 78 167.398356175 78 194.924031603 78 c 128,-1,11
 222.449707031 78 222.449707031 78 282.75 87.6000976562 c 128,-1,12
 343.050292969 97.2001953125 343.050292969 97.2001953125 361.989654237 97.2001953125 c 0,13,14
 388.792768084 97.2001953125 388.792768084 97.2001953125 396.596579354 87.5661528513 c 128,-1,15
 404.400390625 77.9321103901 404.400390625 77.9321103901 404.400390625 67.2001953125 c 0,16,17
 404.400390625 -1.2001953125 404.400390625 -1.2001953125 200.400390625 -1.2001953125 c 0,18,19
 89.1309484086 -1.2001953125 89.1309484086 -1.2001953125 63.7733727742 34.3851386276 c 0,20,21
 52.7998046875 49.7848002714 52.7998046875 49.7848002714 52.7998046875 71.7277962434 c 128,-1,22
 52.7998046875 93.6707922153 52.7998046875 93.6707922153 62.1045947357 114.940524554 c 128,-1,23
 71.4093847839 136.210256893 71.4093847839 136.210256893 86.7723297791 154.73163464 c 128,-1,24
 102.135274774 173.253012388 102.135274774 173.253012388 122.240508585 192.584144091 c 128,-1,25
 142.345742395 211.915275795 142.345742395 211.915275795 163.628576727 228.606497311 c 0,26,27
 205.196498803 261.206450141 205.196498803 261.206450141 245.401251203 295.063628584 c 128,-1,28
 285.606003604 328.920807026 285.606003604 328.920807026 295.200195312 355.200195312 c 1,29,30
 282.719355464 386.400390625 282.719355464 386.400390625 218.400390625 386.400390625 c 0,31,32
 190.350097656 386.400390625 190.350097656 386.400390625 139.649902344 379.200195312 c 128,-1,33
 88.9497070313 372 88.9497070313 372 78 372 c 2,34,-1
 73.2001953125 372 l 2,35,36
 71.6937456788 372.860753307 71.6937456788 372.860753307 63.3677299927 375.239587884 c 128,-1,37
 55.0417143066 377.618422461 55.0417143066 377.618422461 48.776099353 380.516332527 c 0,38,39
 31.2001953125 388.64536529 31.2001953125 388.64536529 31.2001953125 413.009005756 c 128,-1,40
 31.2001953125 437.372646222 31.2001953125 437.372646222 41.1929790781 444.716722507 c 0,41,42
 57.468840528 456.678471195 57.468840528 456.678471195 79.6344725141 458.408901308 c 128,-1,43
 101.8001045 460.139331422 101.8001045 460.139331422 123.883402564 460.139331422 c 2,0,-1
EndSplineSet
Substitution2: "'smcp' Lowercase to Small Capitals in Latin lookup 0 subtable" Z.smcp
EndChar

StartChar: zero.onum
Encoding: 65537 -1 62
Width: 380
VWidth: 1200
Flags: W
HStem: 0 75.5996<153.811 228.328> 399.6 72<158.889 237.271>
VStem: 39.5996 80.4004<114.912 349.737> 264 74.4004<122.689 363.633>
LayerCount: 2
Fore
SplineSet
39.599609375 204.935286083 m 0,0,1
 39.599609375 382.008580182 39.599609375 382.008580182 112.967672768 441.616968896 c 0,2,3
 149.871342113 471.599609375 149.871342113 471.599609375 197.3060421 471.599609375 c 128,-1,4
 244.740742087 471.599609375 244.740742087 471.599609375 276.185348282 433.994926417 c 0,5,6
 338.400390625 359.59180214 338.400390625 359.59180214 338.400390625 226.341097905 c 128,-1,7
 338.400390625 93.0903936692 338.400390625 93.0903936692 279.080096414 32.3278302019 c 0,8,9
 247.519604404 0 247.519604404 0 202.342065564 0 c 128,-1,10
 157.164526725 0 157.164526725 0 126.781559959 18.1587925086 c 128,-1,11
 96.3985931928 36.3175850171 96.3985931928 36.3175850171 79.4889998608 58.8309006207 c 0,12,13
 39.599609375 111.93935921 39.599609375 111.93935921 39.599609375 204.935286083 c 0,0,1
260.465519885 197.606420332 m 128,-1,15
 264 222.862673604 264 222.862673604 264 242.272346242 c 128,-1,16
 264 261.682018879 264 261.682018879 262.233121801 282.301241021 c 128,-1,17
 260.466243601 302.920463162 260.466243601 302.920463162 254.967134547 332.736265082 c 128,-1,18
 249.468025493 362.552067003 249.468025493 362.552067003 235.383390355 381.075838189 c 128,-1,19
 221.298755218 399.599609375 221.298755218 399.599609375 197.404521457 399.599609375 c 128,-1,20
 173.510287696 399.599609375 173.510287696 399.599609375 154.377571924 372.070564784 c 0,21,22
 120 322.606509514 120 322.606509514 120 238.799804688 c 0,23,24
 120 121.964589376 120 121.964589376 164.033012503 86.3873912328 c 0,25,26
 177.384781564 75.599609375 177.384781564 75.599609375 194.938910762 75.599609375 c 128,-1,27
 212.493039961 75.599609375 212.493039961 75.599609375 227.315709093 95.2309625685 c 128,-1,28
 242.138378225 114.862315762 242.138378225 114.862315762 249.534708997 143.606241411 c 128,-1,14
 256.931039769 172.35016706 256.931039769 172.35016706 260.465519885 197.606420332 c 128,-1,15
EndSplineSet
Substitution2: "'lnum' Lining Figures in Latin lookup 4 subtable" zero
Substitution2: "'smcp' Lowercase to Small Capitals in Latin lookup 0 subtable" zero.smcp
EndChar

StartChar: one.onum
Encoding: 65538 -1 63
Width: 195
VWidth: 1200
Flags: W
HStem: 451.6 20G<95.7916 114.16>
VStem: 67.2002 68.3994<7.49653 468.499>
LayerCount: 2
Fore
SplineSet
100.52040379 471.599609375 m 0,0,1
 127.799957274 471.599609375 127.799957274 471.599609375 136.799804688 442.799804688 c 1,2,-1
 135.599609375 34.7998046875 l 1,3,4
 133.884788759 16.7896516641 133.884788759 16.7896516641 124.055705548 7.19463051953 c 128,-1,5
 114.226622337 -2.400390625 114.226622337 -2.400390625 101.169926938 -2.400390625 c 128,-1,6
 88.1132315395 -2.400390625 88.1132315395 -2.400390625 78.5061011272 6.5040487813 c 128,-1,7
 68.8989707149 15.4084881876 68.8989707149 15.4084881876 67.2001953125 32.400390625 c 1,8,-1
 68.400390625 440.400390625 l 1,9,10
 71.8904007748 455.233111281 71.8904007748 455.233111281 81.4765631903 463.416360328 c 128,-1,11
 91.0627256057 471.599609375 91.0627256057 471.599609375 100.52040379 471.599609375 c 0,0,1
EndSplineSet
Substitution2: "'lnum' Lining Figures in Latin lookup 4 subtable" one
Substitution2: "'smcp' Lowercase to Small Capitals in Latin lookup 0 subtable" one.smcp
EndChar

StartChar: two.onum
Encoding: 65539 -1 64
Width: 340
VWidth: 1200
Flags: W
HStem: -0.523749 61.7239<121.2 314.201> 386.4 80.3994<106.952 222.389>
VStem: 230.4 74.3994<252.045 379.055>
LayerCount: 2
Fore
SplineSet
236.080432637 -1.5949236043 m 2,0,-1
 165.250637635 0 l 2,1,2
 156.876961891 0 156.876961891 0 138.607067664 -0.347486798518 c 128,-1,3
 120.337173437 -0.694973597036 120.337173437 -0.694973597036 110.3460431 -0.523749307531 c 128,-1,4
 100.354912762 -0.352525018026 100.354912762 -0.352525018026 83.8338237684 0.450048733552 c 0,5,6
 18 3.64817319998 18 3.64817319998 18 39.599609375 c 0,7,8
 18 49.1985675317 18 49.1985675317 24 61.2001953125 c 1,9,10
 68.7149649386 127.595577653 68.7149649386 127.595577653 178.799804688 217.200195312 c 0,11,12
 203.723183233 237.826415508 203.723183233 237.826415508 217.061786929 267.779286738 c 128,-1,13
 230.400390625 297.732157968 230.400390625 297.732157968 230.400390625 326.400390625 c 0,14,15
 230.400390625 386.400390625 230.400390625 386.400390625 181.200195312 386.400390625 c 0,16,17
 144.515086906 386.400390625 144.515086906 386.400390625 88.7998046875 355.200195312 c 0,18,19
 79.2014971306 350.400390625 79.2014971306 350.400390625 66.2547737436 350.400390625 c 128,-1,20
 53.3080503566 350.400390625 53.3080503566 350.400390625 41.6540251783 362.297249158 c 128,-1,21
 30 374.194107691 30 374.194107691 30 389.394756788 c 128,-1,22
 30 404.595405884 30 404.595405884 40.730331637 416.947688431 c 0,23,24
 59.417601717 438.459646109 59.417601717 438.459646109 102.503071845 452.629725399 c 128,-1,25
 145.588541973 466.799804688 145.588541973 466.799804688 175.543966666 466.799804688 c 0,26,27
 231.846714877 466.799804688 231.846714877 466.799804688 268.323259782 439.130785532 c 128,-1,28
 304.799804688 411.461766375 304.799804688 411.461766375 304.799804688 358.229432209 c 128,-1,29
 304.799804688 304.997098042 304.799804688 304.997098042 289.296234978 263.57765952 c 0,30,31
 262.498040767 191.983428104 262.498040767 191.983428104 192.393699936 125.32512875 c 0,32,33
 164.099149882 98.4214225715 164.099149882 98.4214225715 121.200195312 61.2001953125 c 1,34,35
 171.599609375 63.599609375 171.599609375 63.599609375 288 63.599609375 c 0,36,37
 305.000090424 63.599609375 305.000090424 63.599609375 314.500045212 55.0498046875 c 128,-1,38
 324 46.5 324 46.5 324 35.6829303571 c 128,-1,39
 324 24.8658607141 324 24.8658607141 318.713231132 17.778692334 c 128,-1,40
 313.426462264 10.6915239539 313.426462264 10.6915239539 302.963697508 6.88918815523 c 0,41,42
 279.618240872 -1.5949236043 279.618240872 -1.5949236043 236.080432637 -1.5949236043 c 2,0,-1
EndSplineSet
Substitution2: "'lnum' Lining Figures in Latin lookup 4 subtable" two
Substitution2: "'smcp' Lowercase to Small Capitals in Latin lookup 0 subtable" two.smcp
EndChar

StartChar: three.onum
Encoding: 65540 -1 65
Width: 524
VWidth: 1200
Flags: W
HStem: -306 74.4004<190.29 336.813> 386.4 80.3994<198.617 320.287>
VStem: 32.4004 76.7998<-143.794 -15.6929> 372 81.5996<172.616 330.472> 416.4 78<-151.39 -25.2726>
LayerCount: 2
Fore
SplineSet
168 339.599609375 m 1,0,1
 154.561484336 331.200195312 154.561484336 331.200195312 141.85675435 331.200195312 c 128,-1,2
 129.152024363 331.200195312 129.152024363 331.200195312 120.087892159 336.312147858 c 0,3,4
 100.799804688 347.190165261 100.799804688 347.190165261 100.799804688 365.474457612 c 128,-1,5
 100.799804688 383.758749964 100.799804688 383.758749964 109.200195312 397.200195312 c 1,6,7
 149.555845117 436.595610701 149.555845117 436.595610701 179.961763095 451.697707694 c 128,-1,8
 210.367681074 466.799804688 210.367681074 466.799804688 259.200195312 466.799804688 c 0,9,10
 345.862188472 466.799804688 345.862188472 466.799804688 399.730898924 414.804718902 c 128,-1,11
 453.599609375 362.809633115 453.599609375 362.809633115 453.599609375 271.200195312 c 0,12,13
 453.599609375 201.963416199 453.599609375 201.963416199 421.74690183 153.603004417 c 128,-1,14
 389.894194285 105.242592635 389.894194285 105.242592635 336 88.7998046875 c 1,15,16
 400.913220374 86.1324156627 400.913220374 86.1324156627 447.6568055 27.6420904402 c 128,-1,17
 494.400390625 -30.8482347824 494.400390625 -30.8482347824 494.400390625 -108.698603187 c 128,-1,18
 494.400390625 -186.548971591 494.400390625 -186.548971591 430.04294314 -246.274485796 c 128,-1,19
 365.685495655 -306 365.685495655 -306 272.850635058 -306 c 128,-1,20
 180.015774461 -306 180.015774461 -306 108.263019636 -241.407189691 c 0,21,22
 73.8366621435 -210.416112281 73.8366621435 -210.416112281 53.1185263842 -161.361609136 c 128,-1,23
 32.400390625 -112.307105992 32.400390625 -112.307105992 32.400390625 -52.7998046875 c 0,24,25
 32.400390625 -33.948482771 32.400390625 -33.948482771 47.755814331 -20.5743390418 c 128,-1,26
 63.1112380371 -7.2001953125 63.1112380371 -7.2001953125 80.400390625 -7.2001953125 c 0,27,28
 109.200195312 -7.2001953125 109.200195312 -7.2001953125 109.200195312 -40.7998046875 c 0,29,30
 109.200195312 -127.739020129 109.200195312 -127.739020129 155.147723636 -179.669314752 c 128,-1,31
 201.095251961 -231.599609375 201.095251961 -231.599609375 262.193484609 -231.599609375 c 128,-1,32
 323.291717256 -231.599609375 323.291717256 -231.599609375 369.846053941 -183.274519504 c 128,-1,33
 416.400390625 -134.949429633 416.400390625 -134.949429633 416.400390625 -88.1397333633 c 128,-1,34
 416.400390625 -41.3300370938 416.400390625 -41.3300370938 375.269165509 -3.30767824631 c 128,-1,35
 334.137940394 34.7146806012 334.137940394 34.7146806012 277.200195312 48 c 0,36,37
 255.452391448 53.4366744313 255.452391448 53.4366744313 248.199110474 74.4916420863 c 0,38,39
 246 80.8752635206 246 80.8752635206 246 87.599609375 c 0,40,41
 246 118.914591747 246 118.914591747 280.799804688 127.200195312 c 0,42,43
 329.964809023 138.671896289 329.964809023 138.671896289 350.982404512 173.853361855 c 128,-1,44
 372 209.034827421 372 209.034827421 372 247.141397403 c 128,-1,45
 372 285.247967385 372 285.247967385 358.2040813 315.912089502 c 128,-1,46
 344.408162599 346.57621162 344.408162599 346.57621162 318.596048909 366.488301123 c 128,-1,47
 292.783935218 386.400390625 292.783935218 386.400390625 261.599609375 386.400390625 c 0,48,49
 214.79942104 386.400390625 214.79942104 386.400390625 168 339.599609375 c 1,0,1
EndSplineSet
Substitution2: "'lnum' Lining Figures in Latin lookup 4 subtable" three
Substitution2: "'smcp' Lowercase to Small Capitals in Latin lookup 0 subtable" three.smcp
EndChar

StartChar: four.onum
Encoding: 65541 -1 66
Width: 409
VWidth: 1200
Flags: W
HStem: -1.2002 81.6006<120.09 278.034> 448 20G<121.3 145.95>
VStem: 33.5996 85.2002<82.5178 297.533> 277.01 86.5896<-224.328 7.2002 84 233.698> 289.756 84.6446<140.511 298.125>
LayerCount: 2
Fore
SplineSet
363.599609375 -12 m 2,0,-1
 370.799804688 -230.400390625 l 1,1,2
 370.799804688 -271.693195961 370.799804688 -271.693195961 349.411216113 -292.796377589 c 0,3,4
 337.245450389 -304.799804688 337.245450389 -304.799804688 324.23097343 -304.799804688 c 128,-1,5
 311.21649647 -304.799804688 311.21649647 -304.799804688 304.812584457 -300.54328707 c 128,-1,6
 298.408672443 -296.286769452 298.408672443 -296.286769452 294.046935219 -287.263787584 c 128,-1,7
 289.685197994 -278.240805716 289.685197994 -278.240805716 286.455347445 -268.520315748 c 128,-1,8
 283.225496897 -258.799825779 283.225496897 -258.799825779 281.42800357 -243.398850598 c 128,-1,9
 279.630510243 -227.997875416 279.630510243 -227.997875416 278.527797934 -215.756603685 c 128,-1,10
 277.425085625 -203.515331953 277.425085625 -203.515331953 277.144912971 -184.679554044 c 128,-1,11
 276.864740316 -165.843776136 276.864740316 -165.843776136 276.842243021 -154.024913227 c 128,-1,12
 276.819745727 -142.206050318 276.819745727 -142.206050318 277.009970519 -122.878660268 c 128,-1,13
 277.200195312 -103.551270219 277.200195312 -103.551270219 277.200195312 -78.1877524433 c 128,-1,14
 277.200195312 -52.8242346674 277.200195312 -52.8242346674 279.599609375 7.2001953125 c 1,15,16
 237.604491393 -1.2001953125 237.604491393 -1.2001953125 188.401295807 -1.2001953125 c 128,-1,17
 139.198100221 -1.2001953125 139.198100221 -1.2001953125 116.377362105 1.83973143504 c 128,-1,18
 93.5566239897 4.87965818259 93.5566239897 4.87965818259 78.2221658893 12.9600732525 c 128,-1,19
 62.887707789 21.0404883223 62.887707789 21.0404883223 53.9995951784 30.2622032232 c 128,-1,20
 45.1114825677 39.4839181242 45.1114825677 39.4839181242 39.3555459714 61.6146659791 c 128,-1,21
 33.599609375 83.745413834 33.599609375 83.745413834 33.599609375 144.565177746 c 128,-1,22
 33.599609375 205.384941659 33.599609375 205.384941659 49.9980529042 289.788089052 c 128,-1,23
 66.3964964334 374.191236445 66.3964964334 374.191236445 87.599609375 427.200195312 c 0,24,25
 104.599643284 468 104.599643284 468 138 468 c 0,26,27
 153.900099984 468 153.900099984 468 165.749854679 457.842786251 c 128,-1,28
 177.599609375 447.685572501 177.599609375 447.685572501 177.599609375 438.040540553 c 128,-1,29
 177.599609375 428.395508605 177.599609375 428.395508605 168.644718285 398.393702898 c 0,30,31
 146.748907361 325.035595185 146.748907361 325.035595185 132.774356024 264.441706142 c 128,-1,32
 118.799804688 203.8478171 118.799804688 203.8478171 118.799804688 152.323810894 c 128,-1,33
 118.799804688 100.799804688 118.799804688 100.799804688 120 85.2001953125 c 1,34,35
 147.194987774 80.400390625 147.194987774 80.400390625 165.411456346 80.400390625 c 128,-1,36
 183.627924919 80.400390625 183.627924919 80.400390625 280.799804688 84 c 1,37,38
 282.483276788 102.798353184 282.483276788 102.798353184 283.323727557 138.06037032 c 0,39,40
 285.200580997 216.805777693 285.200580997 216.805777693 289.755774432 255.67974532 c 0,41,42
 296.636571899 314.400390625 296.636571899 314.400390625 322.799804688 314.400390625 c 0,43,44
 350.300375419 314.400390625 350.300375419 314.400390625 362.350383022 298.625870186 c 128,-1,45
 374.400390625 282.851349748 374.400390625 282.851349748 374.400390625 235.200195312 c 128,-1,46
 374.400390625 187.500366211 374.400390625 187.500366211 369 92.7003173828 c 128,-1,47
 363.599609375 -2.09973144525 363.599609375 -2.09973144525 363.599609375 -12 c 2,0,-1
EndSplineSet
Substitution2: "'lnum' Lining Figures in Latin lookup 4 subtable" four
Substitution2: "'smcp' Lowercase to Small Capitals in Latin lookup 0 subtable" four.smcp
EndChar

StartChar: five.onum
Encoding: 65542 -1 67
Width: 511
VWidth: 1200
Flags: W
HStem: -301.2 87.6006<176.067 323.876> -1.2002 21G<88.2053 107.116> 58.7998 88.7998<181.326 349.113> 392.4 76.7998<128.4 422.888>
VStem: 48 76.7998<-163.963 -105.152> 51.5996 76.8008<106.8 392.4> 382.8 81.6006<-158.817 22.413>
LayerCount: 2
Fore
SplineSet
97.2001953125 469.200195312 m 1,0,-1
 403.200195312 468 l 1,1,2
 432 461.223656467 432 461.223656467 432 439.200195312 c 0,3,4
 432 424.518468053 432 424.518468053 420.000394197 410.069954972 c 128,-1,5
 408.000788394 395.621441892 408.000788394 395.621441892 391.200195312 391.200195312 c 1,6,-1
 195.599609375 393.599609375 l 2,7,8
 186.099690755 393.599609375 186.099690755 393.599609375 174.049845378 393.299804688 c 128,-1,9
 162 393 162 393 149.950154622 392.700195312 c 128,-1,10
 137.900309245 392.400390625 137.900309245 392.400390625 128.400390625 392.400390625 c 1,11,-1
 128.400390625 361.200195312 l 2,12,13
 128.400390625 318.600219726 128.400390625 318.600219726 130.200195312 232.200073242 c 128,-1,14
 132 145.799926758 132 145.799926758 132 106.799804688 c 1,15,16
 220.396809986 147.599609375 220.396809986 147.599609375 280.0288623 147.599609375 c 128,-1,17
 339.660914615 147.599609375 339.660914615 147.599609375 382.01532631 114.233478477 c 0,18,19
 464.400390625 49.3318370672 464.400390625 49.3318370672 464.400390625 -85.2001953125 c 0,20,21
 464.400390625 -193.464901195 464.400390625 -193.464901195 405.948262965 -247.332548253 c 128,-1,22
 347.496135306 -301.200195312 347.496135306 -301.200195312 253.490534055 -301.200195312 c 128,-1,23
 159.484932803 -301.200195312 159.484932803 -301.200195312 105.749005806 -251.302576704 c 128,-1,24
 52.0130788092 -201.404958096 52.0130788092 -201.404958096 48 -139.200195312 c 1,25,26
 48 -119.384107595 48 -119.384107595 61.9573315432 -104.692053797 c 128,-1,27
 75.9146630865 -90 75.9146630865 -90 97.0573529062 -90 c 128,-1,28
 118.200042726 -90 118.200042726 -90 124.799804688 -116.400390625 c 0,29,30
 137.656842897 -164.399441907 137.656842897 -164.399441907 171.308296383 -188.999525641 c 128,-1,31
 204.959749868 -213.599609375 204.959749868 -213.599609375 252.042740697 -213.599609375 c 128,-1,32
 299.125731525 -213.599609375 299.125731525 -213.599609375 340.962768106 -179.546308783 c 128,-1,33
 382.799804688 -145.49300819 382.799804688 -145.49300819 382.799804688 -92.400390625 c 0,34,35
 382.799804688 -16.3226048396 382.799804688 -16.3226048396 361.644693865 21.238599924 c 128,-1,36
 340.489583043 58.7998046875 340.489583043 58.7998046875 284.400390625 58.7998046875 c 0,37,38
 254.507370021 58.7998046875 254.507370021 58.7998046875 208.439473758 45.8813623146 c 128,-1,39
 162.371577496 32.9629199418 162.371577496 32.9629199418 139.471104408 15.8813623146 c 128,-1,40
 116.570631321 -1.2001953125 116.570631321 -1.2001953125 97.6604377309 -1.2001953125 c 128,-1,41
 78.7502441406 -1.2001953125 78.7502441406 -1.2001953125 66.9752197266 8.21982421875 c 128,-1,42
 55.2001953125 17.63984375 55.2001953125 17.63984375 55.2001953125 34.7998046875 c 2,43,-1
 51.599609375 427.200195312 l 1,44,45
 61.6660680393 462.432117981 61.6660680393 462.432117981 97.2001953125 469.200195312 c 1,0,-1
EndSplineSet
Substitution2: "'lnum' Lining Figures in Latin lookup 4 subtable" five
Substitution2: "'smcp' Lowercase to Small Capitals in Latin lookup 0 subtable" five.smcp
EndChar

StartChar: six.onum
Encoding: 65543 -1 68
Width: 464
VWidth: 1200
Flags: W
HStem: 6 76.7998<160.282 284.065> 385.2 84<153.087 306.529>
VStem: 30 81.5996<142.436 354.069> 357.6 80.4004<166.345 331.221>
LayerCount: 2
Fore
SplineSet
208.799804688 691.200195312 m 0,0,1
 224.639166673 717.599609375 224.639166673 717.599609375 253.559775782 717.599609375 c 0,2,3
 294 717.599609375 294 717.599609375 294 689.477218007 c 0,4,5
 294 682.400933219 294 682.400933219 288 668.400390625 c 1,6,7
 276.255247234 648.402589293 276.255247234 648.402589293 223.750461466 574.831004998 c 128,-1,8
 171.245675699 501.259420702 171.245675699 501.259420702 152.400390625 452.400390625 c 1,9,10
 195.333393617 469.200195312 195.333393617 469.200195312 241.200195312 469.200195312 c 0,11,12
 337.567487452 469.200195312 337.567487452 469.200195312 387.783743726 407.181709213 c 128,-1,13
 438 345.163223113 438 345.163223113 438 243.599609375 c 0,14,15
 438 169.962660496 438 169.962660496 404.967424753 114.59060002 c 128,-1,16
 371.934849506 59.2185395436 371.934849506 59.2185395436 321.432965872 32.6092697718 c 128,-1,17
 270.931082238 6 270.931082238 6 212.400390625 6 c 0,18,19
 124.239126189 6 124.239126189 6 77.1195630947 68.9770711413 c 128,-1,20
 30 131.954142283 30 131.954142283 30 259.200195312 c 0,21,22
 30 360.679813561 30 360.679813561 84.5515350146 490.5596286 c 0,23,24
 108.190273103 546.840261764 108.190273103 546.840261764 157.863986031 617.994764958 c 128,-1,25
 207.537698958 689.149268151 207.537698958 689.149268151 208.799804688 691.200195312 c 0,0,1
132.005542432 353.730811377 m 0,26,27
 111.599609375 331.6014553 111.599609375 331.6014553 111.599609375 261.748964927 c 128,-1,28
 111.599609375 191.896474554 111.599609375 191.896474554 128.28843101 153.170609347 c 128,-1,29
 144.977252645 114.44474414 144.977252645 114.44474414 166.517977793 98.6222744136 c 128,-1,30
 188.058702941 82.7998046875 188.058702941 82.7998046875 217.200195312 82.7998046875 c 0,31,32
 274.321529791 82.7998046875 274.321529791 82.7998046875 315.960569583 135.773054231 c 128,-1,33
 357.599609375 188.746303774 357.599609375 188.746303774 357.599609375 249.085720543 c 128,-1,34
 357.599609375 309.425137312 357.599609375 309.425137312 324.593532507 347.312666312 c 128,-1,35
 291.587455639 385.200195312 291.587455639 385.200195312 226.305781179 385.200195312 c 128,-1,36
 161.024106719 385.200195312 161.024106719 385.200195312 132.005542432 353.730811377 c 0,26,27
EndSplineSet
Substitution2: "'lnum' Lining Figures in Latin lookup 4 subtable" six
Substitution2: "'smcp' Lowercase to Small Capitals in Latin lookup 0 subtable" six.smcp
EndChar

